<?xml version="1.0" standalone="no"?>
<!DOCTYPE svg PUBLIC "-//W3C//DTD SVG 1.1//EN" "http://www.w3.org/Graphics/SVG/1.1/DTD/svg11.dtd" >
<svg xmlns="http://www.w3.org/2000/svg" xmlns:xlink="http://www.w3.org/1999/xlink" version="1.1">
<metadata>
Created by FontForge 20170731 at Mon Apr 19 18:19:08 2021
 By Aleksey,,,
Copyright (c) 2020 by Alfinart All Rights Reserved
</metadata>
<defs>
<font id="BeautyGadiez" horiz-adv-x="1611" >
  <font-face 
    font-family="Beauty Gadiez"
    font-weight="400"
    font-stretch="normal"
    units-per-em="2048"
    panose-1="2 0 5 0 0 0 0 0 0 0"
    ascent="1638"
    descent="-410"
    x-height="954"
    cap-height="1363"
    bbox="-1188.93 -548.258 1867.99 1650"
    underline-thickness="150"
    underline-position="-442"
    unicode-range="U+001D-E220"
  />
<missing-glyph horiz-adv-x="1024" 
d="M924 0h-824v1434h824v-1434zM150 1384v-1334q353 159 724 0v1334q-384 -118 -724 0zM419 334l57 58q10 10 20 10q9 0 22 -11l56 -60q9 -10 9 -20q0 -12 -10 -22l-56 -62q-14 -14 -21 -14q-11 0 -20 10l-61 71q-7 8 -7 18q0 9 11 22zM413 1191q53 30 112 30
q93 0 148.5 -47.5t55.5 -127.5q0 -48 -23 -99q-22 -49 -87 -129q-57 -73 -76 -98t-39 -64t-20 -69q0 -39 24 -133h-32q-35 99 -35 148q0 76 81 218q82 142 82 217q0 57 -33 90t-91 33q-11 0 -16 -1l32 -51q7 -11 5 -21q-2 -11 -14 -20l-66 -50q-18 -11 -24 -10q-9 1 -17 14
l-47 81q-4 10 -3 19q1 10 28 32q32 25 55 38z" />
    <glyph glyph-name="uniE210" unicode="ll" horiz-adv-x="999" 
d="M424 1240q65 31 110.5 24t69 -35.5t21.5 -77t-31 -101.5q-35 -64 -110 -123q-121 -92 -257 -149l-3 -2q-23 -58 -39 -118q-15 -55 -32 -134q-20 -92 -30 -194q-11 -106 2 -179q13 -76 67 -90q60 -13 134 51t158 214q11 175 71 362q62 191 158 343q96 154 207 209
q66 31 111 24t68.5 -35.5t21.5 -77t-31 -101.5q-33 -62 -110 -123q-122 -93 -256 -149l-4 -2q-23 -58 -39 -118q-15 -55 -32 -134q-20 -92 -30 -194q-11 -102 3 -179q13 -76 67 -90q63 -13 141.5 58.5t166.5 237.5q11 18 30 9q19 -8 10 -29q-87 -163 -159 -241
q-42 -46 -106.5 -74.5t-133.5 -21.5t-106 64q-40 66 -48 173q-55 -90 -103 -141q-42 -46 -106 -74.5t-133 -21.5t-106 64q-58 96 -48 267q10 172 72 361q60 185 157 341q96 151 207 207zM745 836q107 50 209 126q76 62 105 123q23 53 15.5 93t-40 41t-84.5 -46
q-69 -77 -125 -179t-80 -158zM248 836q111 52 209 126q77 62 105 123q21 42 18.5 73.5t-16.5 49.5t-44.5 10t-65.5 -45q-66 -72 -125 -179q-60 -110 -81 -158z" />
    <glyph glyph-name="uniE214" unicode="tt" horiz-adv-x="718" 
d="M268 1219q11 26 35 37t51 2q26 -11 37 -35t2 -51q-18 -66 -29 -99q91 -8 166 -11l33 85q15 37 32 72q11 26 35 37t51 2q26 -11 37 -35t2 -51q-7 -24 -24 -77q-5 -15 -12 -38q87 -7 178 12q20 5 26 -17q5 -21 -17 -26q-105 -23 -201 -13q-1 -8 -5 -17q-7 -20 -11 -35
q-4 -10 -6 -17q-276 -892 -171 -886q51 7 119 97q68 91 122 194q11 19 30 10t9 -30q-83 -159 -158 -240q-104 -107 -182 -86q-85 24 -97 145q-24 -32 -49 -59q-104 -107 -182 -86q-79 22 -94 131q-15 111 13 266q28 158 78 321q44 148 100 298q10 25 14 37q-10 8 -18 15
q-41 43 -16 135q7 21 28 16q20 -7 15 -27q-19 -70 6 -94l2 -2l10 26q31 75 41 94zM350 1030q-8 -25 -24 -77q-15 -42 -41 -126q-27 -87 -67 -231q-34 -121 -64 -253q-28 -126 -32 -204q-4 -79 28 -81q62 5 167 165q6 168 61 371q58 215 119 382q1 2 3 8q2 4 6.5 15.5
t7.5 18.5q-81 3 -164 12z" />
    <glyph glyph-name="uniE215" unicode="cb" horiz-adv-x="1333" 
d="M1362 359q19 -8 10 -29q-19 -34 -62 -70q-42 -35 -79 -48q-34 -13 -76 -18q-7 -22 -18 -42q-64 -123 -152 -157q-89 -35 -156 -8q-67 25 -72 86q-4 60 100 125q75 40 180 52q37 111 5 226q-28 103 -91 129q-78 32 -169 -75q-40 -205 -31 -460q0 -28 -18.5 -47.5
t-46.5 -20.5t-47.5 17.5t-21.5 46.5q-3 106 1 191q-50 -89 -115 -157q-68 -71 -160 -93q-148 -28 -232 54q-84 83 -108 225q-24 144 7 293q32 153 113 258q83 107 212 119q72 7 139 -46q67 -58 79 -195q1 -9 -4.5 -16t-14.5 -8q-10 -1 -17 5t-8 15q-6 71 -33 123
q-27 55 -82 56q-97 -7 -159 -119q-60 -109 -77 -260q-16 -149 21 -270q37 -120 137 -147q68 -15 147.5 51t160.5 217l3 36q21 213 98 417q42 112 127 237q83 120 197 179q65 31 110.5 24t69 -35.5t21.5 -77t-31 -101.5q-32 -63 -110 -124q-120 -90 -257 -149l-4 -2
q-23 -58 -39 -118q-4 -15 -5 -19q0 -2 -2 -8t-2 -8q109 94 206 77q95 -16 148 -117q71 -146 17 -332q51 9 94.5 37.5t67.5 71.5q8 18 29 9zM1079 1165q-65 -71 -125 -180q-58 -107 -81 -159q112 52 209 127q79 62 105 122q18 40 17.5 74t-15 50t-44.5 8.5t-66 -42.5z
M880 159q-67 -39 -59 -82q5 -30 39 -37q51 -11 97 41q39 43 60 121q-83 -12 -137 -43z" />
    <glyph glyph-name="uniE216" unicode="ch" horiz-adv-x="1383" 
d="M1414 356q18 -12 10 -30q-87 -163 -159 -241q-104 -109 -183 -86q-30 9 -50.5 29t-32 43.5t-15.5 61t-4 67t5.5 77t10.5 75.5t14 77q34 128 20.5 191.5t-108.5 1.5q-68 -44 -157 -123q-34 -190 -26 -429q0 -28 -18 -47.5t-46 -20.5q-29 -1 -48.5 17.5t-20.5 46.5
q-3 79 -1 175q-114 -197 -265 -234q-148 -28 -232 54q-84 83 -108 225q-24 144 7 293q32 153 113 258q83 107 212 119q72 7 139 -46q66 -58 80 -195q0 -22 -20 -24q-10 -1 -17 5t-8 15q-6 71 -33 123q-27 55 -82 56q-97 -7 -159 -119q-60 -109 -77 -260q-16 -146 22 -270
q37 -120 137 -147q65 -15 141.5 46t155.5 202q16 278 133 545q50 105 123 200q75 97 170 144q66 31 111.5 24t69 -35.5t21.5 -77t-31 -101.5q-34 -64 -111 -124q-116 -89 -257 -149l-4 -2q-23 -58 -39 -118q-7 -25 -19 -79q68 57 120 90q134 89 198 86q64 -1 79 -68
q16 -62 2 -163q-14 -102 -34 -197q-23 -109 -30 -186q-8 -75 30 -77q50 8 118 98q67 89 123 194q11 18 30 10zM1067 1165q-67 -75 -125 -180q-58 -107 -81 -159q112 52 209 127q78 61 106 122q19 43 17 74.5t-15.5 49t-44 10t-66.5 -43.5z" />
    <glyph glyph-name="uniE217" unicode="ck" horiz-adv-x="1366" 
d="M1396 369q18 -8 9 -30q-84 -161 -159 -240q-46 -49 -114 -78t-135 -18q-65 10 -106 78q-35 69 -44 167q-60 -28 -129 -52q-1 -41 1 -127q1 -28 -17.5 -48t-46.5 -21q-29 0 -48 18t-21 47q-3 68 -1 151q-105 -173 -250 -209q-148 -28 -232 54q-83 83 -107 225
q-26 143 6 293q32 151 114 258q83 107 212 119q71 7 138 -46q69 -59 79 -195q1 -9 -4.5 -16t-14.5 -8q-20 -2 -25 20q-6 71 -33 123q-27 55 -81 56q-98 -7 -160 -119q-60 -109 -77 -260q-16 -146 22 -270q37 -120 137 -147q62 -13 133.5 40.5t146.5 178.5q9 128 32 250
q27 146 85 282q47 112 126 221q80 111 185 163q66 32 111.5 25.5t69 -35.5t21.5 -77.5t-31 -101.5q-35 -65 -110 -124q-124 -94 -257 -149l-4 -2q-21 -54 -40 -118q-1 -5 -3 -13t-3 -13q235 207 330 83q48 -66 32 -157q-29 -141 -182 -241q-4 -96 24 -163q28 -66 82 -80
q62 -15 140.5 57.5t168.5 239.5q8 18 30 9zM1048 1163q-68 -73 -126 -180t-81 -159q113 54 209 127q77 61 106 123q21 42 18.5 73.5t-16.5 49.5t-44.5 10.5t-65.5 -44.5zM766 266q130 64 196 151q69 89 71 157q3 68 -66 70q-70 3 -215 -106q-27 -137 -33 -292q17 6 47 20z
" />
    <glyph glyph-name="uniE218" unicode="eb" horiz-adv-x="1315" 
d="M1344 359q18 -8 9 -29q-19 -34 -62 -70q-42 -34 -78 -48t-76 -18q-7 -22 -18 -42q-64 -122 -153 -157t-156 -8q-66 25 -71 86q-4 60 100 125q76 40 179 52q37 111 6 226q-28 102 -92 129q-78 31 -169 -75q-40 -205 -31 -460q0 -28 -18 -47.5t-46 -20.5q-29 -1 -48.5 17.5
t-20.5 46.5q-3 80 -1 174q-5 -9 -17 -29q-7 -8 -11 -17l-1 1q-103 -156 -235 -187q-149 -23 -232 68q-81 89 -104 237q-22 148 9 296q33 146 113 242q74 78 169 99q96 22 168 -22t69 -162q-3 -55 -33 -115q-41 -89 -118 -163q-75 -72 -218 -113q2 -107 37 -184
q38 -77 113 -96q36 -8 74.5 6.5t69.5 40.5t62 64t51.5 70t39.5 66q1 17 5 56q19 211 97 417q42 112 127 237q83 120 197 179q66 31 111.5 24t69 -35.5t21.5 -77t-31 -101.5q-34 -64 -111 -124q-116 -89 -257 -149l-4 -2q-20 -50 -38 -118q-3 -11 -9 -35q108 94 205 77
t149 -117q70 -144 16 -332q51 9 95 37.5t67 71.5q8 18 30 9zM1060 1165q-65 -71 -125 -180q-59 -107 -81 -159q112 52 209 127q78 61 106 122q17 40 17 74t-14.5 50t-44.5 8.5t-67 -42.5zM481 768q2 76 -51 97q-53 20 -119 -34q-98 -80 -136 -262q-14 -69 -18 -147
q124 37 193 103q66 65 103 146q27 55 28 97zM861 159q-62 -38 -60 -73t38 -46q36 -10 83 25t77 137q-84 -12 -138 -43z" />
    <glyph glyph-name="uniE219" unicode="eh" horiz-adv-x="1376" 
d="M1407 356q18 -11 9 -30q-85 -163 -159 -241q-104 -109 -183 -86q-30 9 -51 29t-32.5 43.5t-15.5 61t-3.5 67t6.5 77t11 75.5t14 77q26 146 21 184q-8 66 -89 22q-10 -6 -21 -13q-63 -41 -157 -123q-33 -193 -25 -429q0 -28 -18.5 -47.5t-46.5 -20.5t-47.5 17.5
t-20.5 46.5q-4 83 -1 174q-12 -20 -17 -29q-7 -8 -11 -17l-1 1q-103 -155 -235 -187q-149 -23 -232 68q-82 90 -105 237q-22 145 10 296q31 146 113 242q74 78 169 99q96 22 168 -22t69 -162q-3 -55 -33 -115q-41 -89 -119 -163q-75 -72 -217 -113q2 -107 37 -184
q38 -77 113 -96q44 -10 90.5 12.5t86 65.5t68 84t51.5 84q18 279 134 546q49 105 123 200q75 97 170 144q65 31 110.5 24t69 -35.5t21.5 -77t-31 -101.5q-32 -63 -110 -124q-120 -90 -257 -149l-4 -2q-23 -58 -39 -118q-12 -42 -20 -79q69 57 120 90q134 89 198 86
q65 -2 80 -68t2 -163q-14 -102 -34 -197q-23 -105 -31 -186q-8 -75 30 -77q51 8 119 98q67 89 123 194q9 19 30 10zM1060 1165q-65 -71 -125 -180q-59 -107 -81 -159q112 52 209 127q77 62 105 122q18 40 17.5 74t-15 50t-44.5 8.5t-66 -42.5zM481 768q2 76 -51 97
q-53 20 -119 -34q-98 -80 -136 -262q-14 -69 -18 -147q124 37 193 103q66 65 103 146q27 55 28 97z" />
    <glyph glyph-name="uniE220" unicode="ek" horiz-adv-x="1372" 
d="M1397 369q17 -8 10 -30q-86 -162 -160 -240q-47 -49 -114 -78t-135 -18q-65 10 -106 78q-35 68 -45 167q-58 -27 -128 -52q0 -41 2 -127q0 -28 -18.5 -48t-46.5 -21q-28 0 -47.5 18t-21.5 47q-1 82 0 160q-1 -3 -4 -7.5t-5 -6.5q-3 -5 -11 -17v1q-103 -156 -235 -187
q-150 -23 -233 68q-81 89 -104 237q-22 145 10 296q31 146 112 242q74 78 170 99q96 22 168 -22t69 -162q-3 -55 -33 -115q-41 -89 -118 -163q-75 -72 -219 -113q1 -105 38 -184q38 -77 113 -96q42 -9 85.5 10t81.5 58t66.5 77.5t52.5 81.5q9 131 31 241q27 146 85 282
q47 112 126 221q81 111 186 163q65 32 110.5 25.5t69 -35.5t21.5 -77.5t-31 -101.5q-33 -64 -111 -124q-122 -93 -256 -149l-4 -2q-23 -58 -39 -118q-1 -3 -2.5 -7t-1.5 -6q-2 -8 -3 -13q47 41 87 69t86.5 48t87 12t70.5 -46q47 -67 31 -157q-29 -141 -182 -241
q-4 -96 24 -163q28 -66 81 -80q63 -15 141.5 57t168.5 240q11 17 30 9zM1048 1163q-65 -72 -124 -180q-58 -107 -81 -159q113 54 209 127q76 61 105 123q21 42 18.5 73.5t-16.5 49.5t-44.5 10.5t-66.5 -44.5zM480 768q1 76 -52 97q-54 20 -119 -34q-99 -80 -137 -264
q-14 -67 -17 -145q124 37 193 103q66 65 103 146q26 54 29 97zM768 266q130 64 196 151q69 90 70 157q3 68 -66 70q-69 3 -214 -106q-27 -137 -33 -292q21 8 47 20z" />
    <glyph glyph-name=".notdef" horiz-adv-x="1024" 
d="M924 0h-824v1434h824v-1434zM150 1384v-1334q353 159 724 0v1334q-384 -118 -724 0zM419 334l57 58q10 10 20 10q9 0 22 -11l56 -60q9 -10 9 -20q0 -12 -10 -22l-56 -62q-14 -14 -21 -14q-11 0 -20 10l-61 71q-7 8 -7 18q0 9 11 22zM413 1191q53 30 112 30
q93 0 148.5 -47.5t55.5 -127.5q0 -48 -23 -99q-22 -49 -87 -129q-57 -73 -76 -98t-39 -64t-20 -69q0 -39 24 -133h-32q-35 99 -35 148q0 76 81 218q82 142 82 217q0 57 -33 90t-91 33q-11 0 -16 -1l32 -51q7 -11 5 -21q-2 -11 -14 -20l-66 -50q-18 -11 -24 -10q-9 1 -17 14
l-47 81q-4 10 -3 19q1 10 28 32q32 25 55 38z" />
    <glyph glyph-name="uni0000" horiz-adv-x="0" 
 />
    <glyph glyph-name="uni0000" horiz-adv-x="0" 
 />
    <glyph glyph-name="nonmarkingreturn" horiz-adv-x="682" 
 />
    <glyph glyph-name="space" unicode=" " horiz-adv-x="695" 
 />
    <glyph glyph-name="space" unicode="&#xa0;" horiz-adv-x="695" 
 />
    <glyph glyph-name="exclam" unicode="!" horiz-adv-x="363" 
d="M74 1276q4 36 36 60t70 22q36 -4 59 -31t20 -63l-124 -1083h-122zM11 121l121 -11l-10 -111l-122 11z" />
    <glyph glyph-name="quotedbl" unicode="&#x22;" horiz-adv-x="467" 
d="M177 1322q-10 -85 -33.5 -144.5t-48.5 -73.5t-48 0.5t-32 78t0 159.5q3 16 29 21.5t56 1t54 -16t23 -26.5zM366 1295q-20 -150 -65 -201q-44 -52 -79 1q-33 55 -17 221q2 21 43.5 24t81 -11.5t36.5 -33.5z" />
    <glyph glyph-name="numbersign" unicode="#" horiz-adv-x="1373" 
d="M512 1360l-47 -397l430 5l49 405l116 -13l-47 -390l258 3l1 -118l-272 -3l-36 -295l266 2v-117l-280 -2l-54 -445l-116 14l51 430l-430 -2l-52 -442l-117 14l51 427l-282 -2l-1 117l297 2l35 291l-261 -2v117l276 3l49 411zM845 557l36 294l-430 -5l-36 -292z" />
    <glyph glyph-name="dollar" unicode="$" horiz-adv-x="957" 
d="M745 289q-28 -108 -153 -191q-78 -48 -170 -51l-5 -52l-117 14l6 51q-46 12 -89 35q-93 48 -154 142q-59 91 -63 219l79 1q3 -105 51 -178q49 -75 124 -115q26 -13 62 -25l61 508q-56 36 -101 76q-103 103 -126 230q-14 79 6 156q31 107 115 161q84 52 187 51l6 52
l116 -13l-7 -57q54 -17 99 -48q136 -96 180 -293q4 -17 5 -31l-79 -9q0 4 -1 6l-3 21q-26 131 -117 210q-47 39 -94 54l-57 -471q12 -8 18 -13q41 -29 62 -44.5t55.5 -45t51.5 -51.5t37 -57t26 -69t4.5 -78.5t-15.5 -94.5zM432 127q64 5 118 38q98 65 119 145q20 83 -38 148
q-55 64 -144 120zM444 1213q-99 -32 -135 -145q-10 -42 -3 -88q14 -78 80 -143l12 -12z" />
    <glyph glyph-name="uni0025" unicode="%" horiz-adv-x="913" 
d="M546 1360l-164 -1365l-116 14l163 1364zM657 162q-34 -31 -69 -25q-55 12 -72 86t0 160q17 88 55 135q75 83 121 2q42 -80 33 -186q-7 -104 -68 -172zM667 106q45 13 80.5 61.5t51.5 109t8 128.5t-44 115q-53 67 -112.5 65.5t-107.5 -69.5q-48 -72 -59 -170
q-9 -96 18 -160q22 -45 69 -69t96 -11zM119 877q25 -39 60 -42q57 -1 91 66q35 69 41 155q7 85 -19 144q-54 101 -118 32q-61 -67 -79 -171t24 -184zM95 825q-57 38 -76 117q-19 78 1 166q21 86 86 142q68 51 125 35t87 -94q29 -85 14 -180t-57 -150q-32 -38 -84 -50
q-54 -11 -96 14z" />
    <glyph glyph-name="ampersand" unicode="&#x26;" horiz-adv-x="993" 
d="M727 178q47 59 63 130q12 58 -1 109q-14 50 -52 84q-32 28 -88 40l18 83q75 -16 124 -59q61 -52 79 -127q19 -69 2 -148q-19 -91 -81 -166q-57 -68 -139 -104q-149 -52 -267 -19.5t-192.5 125t-82.5 212.5q-6 100 41 208q48 109 159 176q-3 10 -5 26q-10 49 -8 114
q-168 29 -232.5 131.5t-31.5 286.5l167 -29q-29 -138 -16 -209q14 -74 121 -95q21 142 83.5 248.5t157.5 157.5q50 25 126 30t141 -27q65 -30 75 -109q5 -49 -19 -103q-36 -82 -141 -160q-126 -88 -262 -116q-1 -39 3 -76q30 4 54 0q72 -16 86 -72q9 -32 -3 -62
q-12 -31 -42 -49q-50 -27 -101 -6q-52 23 -83 66q-29 -19 -51 -66t-33 -106.5t-5.5 -125.5t26.5 -123.5t68 -100.5t115 -56q129 -24 227 87zM477 957q106 28 202 96q86 64 113 126q15 33 12 59q-2 20 -16 31t-39 15q-59 3 -117 -55q-59 -59 -100 -137q-41 -76 -55 -135z
M460 704q9 -8 16 -13q33 -19 45 -10q4 3 6 8q2 7 1 10q-1 7 -18 10q-20 3 -50 -5z" />
    <glyph glyph-name="quotesingle" unicode="'" horiz-adv-x="278" 
d="M177 1322q-20 -151 -65 -202q-44 -52 -79 1q-33 55 -17 221q3 16 29 21.5t55.5 1t53.5 -16t23 -26.5z" />
    <glyph glyph-name="parenleft" unicode="(" horiz-adv-x="591" 
d="M281 15l-75 -39q-161 226 -184 482q-22 254 82 500q105 245 324 437l63 -56q-136 -157 -215 -396q-81 -243 -85 -491q-4 -250 90 -437z" />
    <glyph glyph-name="parenright" unicode=")" horiz-adv-x="516" 
d="M65 -40l-65 53q128 166 175 412q47 249 16 497q-30 250 -131 431l73 43q177 -234 229 -493q54 -260 -19 -507q-74 -247 -278 -436z" />
    <glyph glyph-name="asterisk" unicode="*" horiz-adv-x="436" 
d="M128 1325q0 18 13 31.5t31 13.5q19 0 32.5 -13.5t13.5 -31.5v-64l65 13q19 2 33.5 -8.5t17.5 -29.5q2 -19 -8.5 -33.5t-29.5 -17.5t-47 -8q1 -1 11 -14l35 -45q12 -15 9.5 -32.5t-16.5 -30.5q-16 -11 -33.5 -9t-29.5 17q-17 22 -52 66q-15 -18 -30.5 -35t-24.5 -26l-8 -8
q-30 -30 -63 -3q-14 13 -15 31t11 32l4 4q18 16 53 57q-61 22 -66 22q-17 6 -25.5 22t-3.5 35q7 18 22.5 26t34.5 3q29 -10 66 -23v59z" />
    <glyph glyph-name="plus" unicode="+" horiz-adv-x="720" 
d="M0 720h268v269h85v-269h268v-84h-268v-268h-85v268h-268v84z" />
    <glyph glyph-name="comma" unicode="," horiz-adv-x="211" 
d="M26 124q-11 0 -18.5 8t-7.5 19t7.5 19t19.5 8h15q70 5 70 -29q-4 -66 -18 -102q-20 -48 -57 -52q-25 -2 -30 23q-2 25 23 30q9 0 19.5 18.5t6.5 37.5t-30 20z" />
    <glyph glyph-name="hyphen" unicode="-" horiz-adv-x="721" 
d="M0 720h621v-84h-621v84z" />
    <glyph glyph-name="hyphen" unicode="&#xad;" horiz-adv-x="721" 
d="M0 720h621v-84h-621v84z" />
    <glyph glyph-name="period" unicode="." horiz-adv-x="242" 
d="M71 -5q-29 0 -50 21t-21 51q0 29 21 50t50 21q30 0 51 -21t21 -50q0 -30 -21 -51t-51 -21z" />
    <glyph glyph-name="slash" unicode="/" horiz-adv-x="380" 
d="M280 1360l-164 -1365l-116 14l163 1364z" />
    <glyph glyph-name="zero" unicode="0" horiz-adv-x="1032" 
d="M310 198q70 -112 171 -120q121 -8 207 105q87 116 130 289q44 177 41 351q-3 178 -58 294q-83 156 -168 165q-86 9 -165 -76q-114 -121 -178 -302t-63 -371q1 -189 83 -335zM242 49q-120 76 -181 228t-61 338q2 187 68 357q67 172 205 286q192 148 355 101
q163 -46 249 -268q55 -153 52 -335q-1 -177 -50 -341q-46 -161 -126 -262q-91 -109 -239 -142q-147 -32 -272 38z" />
    <glyph glyph-name="one" unicode="1" horiz-adv-x="498" 
d="M195 1276q0 4 1 6q-70 -15 -119 -33q-12 -4 -22.5 1t-14.5 16q-4 12 1 22.5t16 14.5q1 1 3 1t3 1q39 15 112 34q69 19 128 8q57 -10 55 -81l-68 -1183v-3q9 1 28.5 1.5t29.5 0.5q7 1 20 1t21 -10t9 -25q0 -15 -8 -25.5t-20 -11.5q-79 -4 -150 -4q-5 -1 -16 -1q-2 0 -3 1
h-3q-83 0 -171 4q-12 1 -19.5 11.5t-7.5 25.5t8.5 25t20.5 10q59 -2 98 -3q-10 136 5 382q19 281 38 484q20 236 25 330z" />
    <glyph glyph-name="two" unicode="2" horiz-adv-x="1002" 
d="M168 425q37 3 78 -13q76 -37 159 -95q136 191 178.5 401.5t-15.5 437.5q-38 136 -121 134q-71 -3 -145 -98q-66 -87 -87 -187q-7 -26 -32 -21q-11 3 -17 12t-3 20q21 100 79 186q58 87 147 128q149 60 259 -43q92 -91 112 -231q19 -136 -13 -295t-91 -295
q-57 -135 -122 -230q90 -56 189 -69q100 -13 134 22q18 18 37 -1q18 -18 -1 -38q-43 -49 -112.5 -54t-138 22t-140.5 75q-39 -50 -70 -79q-75 -72 -174 -100q-119 -29 -181 24q-61 52 -69 140q-8 87 33 161t127 86zM373 275q-80 56 -148 87q-28 12 -52 10q-30 -5 -51 -23
q-32 -27 -44.5 -76t3 -93t57.5 -54q51 -11 117 38.5t118 110.5z" />
    <glyph glyph-name="three" unicode="3" horiz-adv-x="802" 
d="M3 294q-7 24 18 31q10 3 19 -2t12 -15q35 -104 130 -137t192 -2q99 36 133 114q36 78 -29 167q-41 51 -100 74q-39 15 -79 14q-28 -2 -49.5 13.5t-28.5 43.5q-6 31 10 55.5t46 31.5q9 1 20 5q14 4 21 7q108 45 168 146q68 111 57 221q-1 5 -3 19q-19 82 -92 118
q-71 37 -149 22q-77 -15 -112 -86q-11 -21 -34 -14q-22 12 -13 34q70 147 186 183q117 36 220 -25q104 -60 137 -203q4 -19 5 -33q14 -160 -78 -312q-46 -76 -117 -135q59 -36 99 -88q67 -82 73 -188q3 -60 -19 -117q-12 -29 -29 -56q-87 -130 -210 -166q-124 -35 -236 32
t-168 248z" />
    <glyph glyph-name="four" unicode="4" horiz-adv-x="1010" 
d="M757 1319q-1 -51 -1 -147q-2 -143 -4 -500h44q34 0 58 -24t24 -58t-24 -58t-58 -24h-45q-2 -54 -8 -104q-8 -77 -10 -166q-1 -83 29 -136q30 -52 113 -38q28 2 34 -24q2 -27 -24 -33l-7 -1q-122 -22 -204 41q-73 67 -85 171q-12 103 -4 209q3 43 3 81h-504q-152 0 -6 190
q6 8 8 10q71 101 165 221q95 121 200 234q107 113 185 160q83 50 121 -4zM589 672q1 175 3 406q0 69 1 104q-299 -350 -414 -510h410z" />
    <glyph glyph-name="five" unicode="5" horiz-adv-x="823" 
d="M6 197q-14 23 9 39q25 13 39 -9q63 -88 167 -96q104 -7 199 53q95 62 123 173q14 62 1 120q-12 57 -47 104.5t-85.5 75t-108 36.5t-119 -11t-112.5 -68q-10 -8 -21 -8q-12 0 -20 8t-8 21q1 61 1 184q0 165 6 328q1 33 1.5 50.5t4 39t4 31.5t8 22.5t10.5 16.5t16 9.5t20 6
t28.5 0.5t34 -1t43.5 -3q63 -5 165 -9h34q12 -1 36 -1q34 0 57.5 -23.5t23.5 -57.5t-23.5 -57.5t-57.5 -23.5q-13 -1 -25 0h-12h-20h-17q-85 1 -159 9h-8q-27 2 -41.5 2.5t-28.5 -3.5t-19.5 -11t-10.5 -24t-6 -37.5t-2 -56.5l-5 -331q88 64 184 85t180.5 -1t154 -91.5
t104.5 -177.5q19 -93 -2 -188q-40 -175 -163 -259q-123 -83 -270 -55t-263 189z" />
    <glyph glyph-name="six" unicode="6" horiz-adv-x="916" 
d="M124 123q-82 104 -107 344q-17 171 9 341q27 170 78 295q55 136 169 209q74 44 155 48.5t148 -26.5t113.5 -100.5t54.5 -163.5q1 -11 -6 -20t-19 -11q-12 -1 -21 6.5t-11 19.5q-13 105 -75 165q-61 61 -140 63t-138 -71q-43 -55 -72 -156t-39 -182.5t-12 -153.5v-12
q73 65 157.5 92t164 13t147.5 -82t103 -184q20 -66 22 -137.5t-15.5 -139.5t-50.5 -125.5t-89 -99t-126 -56.5q-112 -22 -221 8q-108 30 -179 116zM209 646q1 -41 -0.5 -105.5t9.5 -144t27.5 -148.5t54 -118.5t88.5 -54.5q90 -9 156.5 55t90.5 157.5t8 197t-76 168.5
q-66 71 -158.5 71t-199.5 -78z" />
    <glyph glyph-name="seven" unicode="7" horiz-adv-x="901" 
d="M534 60q11 -5 15.5 -16t-0.5 -22q-5 -12 -16 -16.5t-23 0.5q-108 17 -167 94t-69 200q-12 125 29 288.5t100 294.5t133 259q-69 -12 -176 -10q-102 3 -202 29q-98 27 -150 87q-8 10 -6.5 22t11.5 20q9 8 21 6.5t20 -10.5q41 -42 160 -33q117 9 250 38q130 30 207 51
q6 2 14.5 4.5t10.5 2.5q35 8 64 -9t39 -52q1 -28 -82 -181q-66 -125 -121 -240q-63 -131 -112 -276q-48 -139 -48 -257q0 -47 8 -100.5t31.5 -107t58.5 -66.5z" />
    <glyph glyph-name="eight" unicode="8" horiz-adv-x="881" 
d="M224 700q-119 45 -171 157q-53 113 -29 236t137 203q95 59 211 62t213 -56q108 -73 146 -194q38 -119 -7 -233q-44 -114 -182 -170l4 -2q142 -58 188 -181q47 -123 10 -251q-38 -130 -147 -209q-96 -63 -213 -60q-117 5 -211 67q-102 75 -131 191q-29 119 5 230
q34 113 125 181q27 18 52 29zM437 74q99 29 136 131q37 103 24 222t-75 192q-60 74 -159 44q-99 -41 -133 -141t-18 -211q16 -109 76 -183q59 -72 149 -54zM553 839q45 92 29 218q-17 129 -89 201q-53 41 -110.5 36t-108.5 -48q-78 -70 -86 -183q-6 -113 43 -210
q65 -119 161 -120t161 106z" />
    <glyph glyph-name="nine" unicode="9" horiz-adv-x="908" 
d="M691 1229q84 -108 108 -345q9 -84 -1 -210.5t-36 -258.5t-79 -243t-120 -150q-77 -45 -216 -32q-107 11 -185 84q-78 75 -91 207q-1 12 6.5 21t19.5 10t21 -6t10 -19q6 -60 33.5 -110t67.5 -78t84.5 -38t90 7.5t78.5 60.5q43 56 72 156.5t39 183t11 153.5l1 12
q-74 -66 -158.5 -93t-164 -13t-147 82.5t-102.5 184.5q-20 66 -22.5 137t14.5 139.5t50.5 126t89.5 98.5t127 56q114 23 220 -8q109 -30 179 -115zM607 706q3 31 0.5 84.5t-5.5 115t-16 125.5t-31 117t-51.5 88.5t-76.5 40.5q-90 8 -156 -56t-90 -157t-8.5 -196.5
t75.5 -168.5q67 -71 159.5 -71t199.5 78z" />
    <glyph glyph-name="colon" unicode=":" horiz-adv-x="243" 
d="M72 525q29 0 50 -21t21 -51q0 -29 -21 -50t-50 -21q-30 0 -51 21t-21 50q0 30 21 51t51 21zM72 974q29 0 50 -21t21 -50q0 -30 -21 -51t-50 -21q-30 0 -51 21t-21 51q0 29 21 50t51 21z" />
    <glyph glyph-name="semicolon" unicode=";" horiz-adv-x="243" 
d="M53 491q-11 0 -19 7.5t-8 19.5q0 11 8 18.5t19 7.5q9 0 15 1h31.5t27.5 -7.5t11 -21.5q-3 -65 -17 -103q-20 -48 -57 -52q-12 -1 -20.5 6t-9.5 18q-2 11 4.5 19.5t18.5 10.5q9 0 19.5 18.5t6.5 37.5t-30 20zM71 974q30 0 51 -21t21 -50q0 -30 -21 -51t-51 -21
q-29 0 -50 21t-21 51q0 29 21 50t50 21z" />
    <glyph glyph-name="semicolon" unicode="&#x37e;" horiz-adv-x="243" 
d="M53 491q-11 0 -19 7.5t-8 19.5q0 11 8 18.5t19 7.5q9 0 15 1h31.5t27.5 -7.5t11 -21.5q-3 -65 -17 -103q-20 -48 -57 -52q-12 -1 -20.5 6t-9.5 18q-2 11 4.5 19.5t18.5 10.5q9 0 19.5 18.5t6.5 37.5t-30 20zM71 974q30 0 51 -21t21 -50q0 -30 -21 -51t-51 -21
q-29 0 -50 21t-21 51q0 29 21 50t50 21z" />
    <glyph glyph-name="less" unicode="&#x3c;" horiz-adv-x="605" 
d="M505 887q-258 -175 -345 -240q220 -108 345 -168v-107q-462 224 -474 230q-21 11 -26 28.5t9 33.5q6 6 9 8q3 3 5 4q48 41 477 332v-121z" />
    <glyph glyph-name="equal" unicode="=" horiz-adv-x="721" 
d="M0 804h621v-84h-621v84zM0 636h621v-85h-621v85z" />
    <glyph glyph-name="greater" unicode="&#x3e;" horiz-adv-x="605" 
d="M0 887v121q431 -291 477 -332q2 -1 5 -4q3 -2 9 -8q14 -16 9 -33.5t-26 -28.5q-12 -6 -474 -230v107q21 10 68.5 33t96.5 47t97 47q12 6 25.5 12.5t30.5 15t26 13.5q-81 60 -344 240z" />
    <glyph glyph-name="question" unicode="?" horiz-adv-x="846" 
d="M17 189q5 54 20 104.5t32 88.5t48 79t53.5 66t63.5 60.5t62.5 52.5t65.5 50q87 60 150 125q64 65 71 148q2 44 -10 83q-14 41 -40 71q-74 80 -177 80q-105 0 -187 -76q-81 -76 -89 -223l-80 1q2 92 34.5 175t84 142t120 94.5t139.5 40.5t145 -28t133 -103q46 -55 69 -125
q23 -69 18 -143q-9 -157 -144 -278q-8 -6 -41.5 -33t-53.5 -43q-110 -82 -219 -186q-109 -103 -161 -223h-107zM115 3l-91 -3q-8 44 -9 82h99q-5 -42 1 -79z" />
    <glyph glyph-name="at" unicode="@" horiz-adv-x="1355" 
d="M888 1007q-38 -206 -53 -347q-13 -128 1 -213q4 -30 17 -54q27 -62 82 -52q57 11 95 53q66 77 93 208q27 133 0 275t-122 248q-94 105 -272 126q-196 13 -325 -85q-127 -97 -184 -257q-57 -158 -43 -331q13 -172 99 -307q86 -134 242 -183q158 -48 386 40q16 7 28 10
t16 2l4 -1l20 -43q3 -7 1 -10t-12 -5q-7 -1 -18 -6q-296 -102 -496 -50q-201 53 -309 202q-107 152 -123 343q-15 194 61 371q77 180 241 287q166 108 421 90q208 -22 326 -136q118 -112 154 -271q37 -155 2 -312q-34 -153 -133 -261q-39 -42 -86.5 -69t-95.5 -34.5t-93 16
t-75 79.5q-16 29 -23 58q-39 -78 -115 -115t-166 -6q-59 22 -104 83t-67 138.5t-22.5 167.5t24.5 169q57 190 196 254q100 42 174 11q76 -30 115 -110q0 4 1 6q4 27 7 44t9 21.5t24 0.5l76 -13q28 -4 22 -32zM714 857q-20 76 -67.5 119t-102 33t-92.5 -75q-50 -93 -60 -207
q-9 -115 13 -195q30 -100 83 -108q53 -6 109 47q54 52 89 135q17 44 28 123q11 78 0 128z" />
    <glyph glyph-name="A" unicode="A" 
d="M1465 319l1 1q5 23 26 18q22 -6 17 -25v-3q-30 -141 -77 -218q-38 -66 -101.5 -85.5t-122.5 17.5t-84 121q-31 115 -32 236q-2 130 4 193q-79 -14 -175 25l-6 3q-36 16 -81 22q-2 -7 -5.5 -19t-4.5 -16q-23 -78 -34 -115.5t-33 -109t-35.5 -109t-36.5 -97.5t-41.5 -94
t-44 -79t-50 -72.5t-55 -53.5t-62.5 -42q-123 -58 -218 -44q-81 13 -132 63t-66 123q-16 84 24 175q6 15 15 30q6 9 18 29q14 16 31 5q18 -13 6 -31q-2 -3 -8 -11.5t-9 -13.5q-7 -13 -13 -26q-34 -76 -20 -148q12 -59 53 -100q40 -40 107 -51q79 -13 193 40q29 14 56.5 38.5
t49.5 49.5t46 68t40.5 74t38.5 89.5t34.5 91.5t34.5 104t31.5 103.5t32.5 110.5q1 5 4.5 17.5t5.5 19.5q-62 -6 -161 -75q-7 -6 -16 -4.5t-15 9.5q-13 17 6 31q124 87 200 86q4 15 11.5 41.5t10.5 35.5q53 196 105 347q44 121 94 178q81 94 155 71q73 -21 96 -149
q9 -68 2 -163q-4 -60 -15 -142q0 -3 -1 -8t-1 -7q-2 -19 -20 -183q26 18 40 29q17 15 31 -4q13 -16 -4 -31q-36 -28 -71 -51q0 -3 -1.5 -17t-2.5 -23q-9 -92 -13 -183q-4 -105 14 -199q18 -91 77 -120q46 -16 90 45q45 63 67 182zM1099 621q11 145 27 269q1 4 1 13
q10 78 15 139q0 28 1.5 74t-9 94.5t-32.5 57.5q-19 10 -47 -24q-44 -51 -85 -165q-52 -150 -105 -344l-9 -33q-1 -6 -4.5 -17t-5.5 -17q44 -8 84 -24q4 -2 7 -3q84 -37 162 -20z" />
    <glyph glyph-name="B" unicode="B" horiz-adv-x="1505" 
d="M497 142q-9 0 -15 6.5t-6 16.5q0 9 7 15t16 6q78 1 125 94q47 95 71 219q24 120 37 228q2 13 4 27t4 29t3 21q-39 -110 -136 -158q-95 -48 -199 -22q-67 18 -112 65.5t-61.5 108.5t-15 128t21.5 129q30 94 95 160.5t154.5 101t187.5 48t210 8.5q12 24 36 33t50 -1
q33 -17 39 -51q68 -10 148 -58q79 -47 126 -137q48 -96 30 -212q-20 -114 -109 -203q-18 -18 -28 -26q168 -119 196 -260q30 -141 -60 -261q-91 -120 -284 -169q-86 -20 -217 -22q-127 0 -255 24q-128 26 -213 78q-38 -22 -77 -28q-93 -13 -161 44q-66 58 -88 152
q-21 95 19 190q40 96 160 163q22 9 30 -10q9 -19 -9 -30q-128 -66 -155.5 -187t35.5 -208t162 -70q21 3 45 14q-2 2 -7 7.5t-7 8.5q-43 46 -60 119q-16 76 10 151q37 91 110 127q73 37 138 7q79 -46 67 -130q-12 -86 -67 -167t-105 -124q77 -58 214 -62q135 -4 287 37
q149 44 249 136q102 94 112 210q11 118 -106 233q-81 -48 -163 -52q-86 -5 -128 2q-10 -65 -19.5 -112t-25 -103t-33.5 -94.5t-44.5 -77t-59 -61.5t-76.5 -37t-97 -14zM485 501q-35 21 -74 -4q-72 -49 -89 -148q-15 -97 36 -179q32 26 81 92q47 64 69 133q23 68 -23 106z
M754 876q36 238 115 453q-96 1 -201.5 -45t-189.5 -128t-112 -176q-28 -105 10 -186q39 -77 111 -103t143 30q50 43 68 93t8 96q-7 32 -28 56q-18 20 -41 23q-37 6 -77 -51q-14 -19 -32 -7q-16 15 -6 31q59 81 120 71q39 -4 69 -37q27 -29 38 -76q5 -23 5 -44zM1006 1310
q-86 -208 -144 -606q146 15 223 95q79 80 92 186q15 106 -30 197q-44 92 -141 128z" />
    <glyph glyph-name="C" unicode="C" horiz-adv-x="1325" 
d="M320 581q-42 -225 31 -346t213 -150q138 -28 293 29q156 59 276 194q14 16 29 2q16 -12 3 -29q-149 -168 -337 -239t-356 -36t-253 186q-86 153 -31 428q-93 47 -137 129q-51 100 -28 220q5 24 12 44q61 174 211 248q160 78 353 37q20 -7 15 -26q-5 -20 -24 -15
q-178 37 -325 -33q-134 -66 -190 -224q-5 -13 -11 -39q-21 -104 25 -192q34 -66 109 -106q46 182 143 333t243 249.5t314 107.5q192 8 260 -78t32 -214t-156 -253q-120 -123 -304 -192t-410 -35zM329 622q161 -24 333 30q173 54 306 166t175 263q13 54 -7.5 91t-60.5 50.5
t-87.5 18.5t-88.5 -5q-139 -30 -257 -139q-119 -109 -201 -241q-84 -135 -112 -234z" />
    <glyph glyph-name="D" unicode="D" horiz-adv-x="1368" 
d="M283 142q-9 1 -15.5 7.5t-6.5 15.5q2 21 24 21q78 1 125 95q47 95 71 219q24 126 36 228l11 77q-39 -110 -135 -158q-97 -48 -199 -23q-68 19 -113 66.5t-61.5 109t-14.5 127.5t22 129q24 75 72 133t109.5 93.5t139.5 57.5t157.5 29.5t167.5 4.5q13 24 37 33t49 -1
q32 -16 40 -51q186 -38 296 -169q110 -129 142 -310q32 -180 -22 -360q-52 -179 -198 -316q-145 -136 -385 -179q-168 -27 -316 4t-237 129q-43 48 -60 120q-15 77 11 151q33 84 100 121q68 38 130 19q62 -18 85 -102q8 -40 -7 -77q-7 -21 -29 -12q-19 7 -12 29q10 25 4 51
q-15 44 -45 54.5t-60 -10.5q-76 -53 -89 -153t42 -182q70 -87 184 -101q116 -12 242 28q129 41 236 110q109 70 168 147q93 126 125 277q24 122 -10 265q-33 144 -112 262q-78 118 -191 159q-52 -127 -101 -429q-27 -173 -71 -350q-42 -168 -121 -277q-78 -109 -215 -112z
M540 877q36 238 115 453q-148 2 -304.5 -103t-199.5 -246q-28 -106 11 -186q39 -77 111 -103q72 -25 143 29q51 44 69 94t6 95q-8 35 -28 57q-16 19 -40 22q-37 7 -78 -51q-15 -16 -31 -6q-18 12 -6 31q59 81 120 71q40 -4 69 -38q28 -31 38 -76q5 -22 5 -43z" />
    <glyph glyph-name="E" unicode="E" horiz-adv-x="896" 
d="M545 869q18 10 29 -7q8 -19 -8 -29q-45 -27 -89 -36q-85 -16 -152 -52q-55 -30 -95 -89.5t-58 -128.5t-18 -141t20 -129q22 -63 68.5 -105.5t102 -58.5t117 -8.5t114.5 37t93 85.5t53 130q18 98 -34 174q-46 66 -160 91q-18 5 -16 25q5 19 25 17q129 -30 185 -108
q62 -93 42 -206q-36 -178 -171 -266q-134 -89 -308 -54q-148 36 -217 160q-68 126 -40 299q24 117 101 203q79 86 162 122q-100 77 -98 195q1 121 72 216t182 136q110 41 227 -3q85 -32 110 -127q12 -61 -7 -121t-63 -104q-83 -79 -195 -24q-18 12 -9 28q4 8 12 11t16 -2
q88 -41 147 18q36 34 52 85q16 52 6 100q-21 76 -85 88q-61 13 -129 -10q-100 -37 -150 -127t-49 -177q2 -88 54 -129q53 -39 161 22z" />
    <glyph glyph-name="F" unicode="F" horiz-adv-x="1261" 
d="M294 98q56 71 84 190q30 122 45 235q3 19 8 57.5t6 47.5q8 66 13 100q-90 16 -168 59q-77 42 -114 127q-26 64 -17 131q9 68 53 130q51 72 149.5 113.5t239.5 42.5q32 42 81 22q21 -10 32 -30q131 -23 221 -57q1 -1 4 -1q75 -27 116 -31q46 -4 71 37q13 20 31 8
q17 -8 8 -30q-38 -64 -97 -62q-56 3 -143 35q-1 1 -2 1t-1.5 0.5t-1.5 0.5q-86 33 -207 54q-42 -153 -73 -372q-10 -76 -24 -153q105 -10 238 -7q21 0 23 -21q0 -21 -22 -23q-133 -4 -246 6q-30 -194 -82 -361q-53 -169 -142 -264q-55 -54 -140 -76q-86 -21 -158 7
q-37 16 -58 46q-21 31 -19 70q2 56 57 113q7 6 16 6t15 -6q16 -16 0 -32q-42 -42 -44 -83q-1 -24 12 -43q14 -19 39 -30q47 -19 105 -7q57 12 92 50zM457 772q43 318 116 515q-243 -10 -334 -139q-36 -49 -44 -108q-7 -56 14 -109q31 -71 99 -108q69 -36 149 -51z" />
    <glyph glyph-name="G" unicode="G" horiz-adv-x="1311" 
d="M913 54q43 15 122 68q19 12 31 -7q12 -18 -6 -31q-34 -24 -84 -51q-50 -26 -92 -30q-40 -2 -65 14t-31.5 40t-9.5 48.5t1 40.5q1 5 1 12q-1 4 -43 -12q-129 -52 -235 -61q-152 -5 -229 79q-77 83 -95 208q-17 126 10 248q-92 48 -136 129q-52 101 -28 220q4 18 11 44
q63 176 212 248q160 78 353 37q19 -7 15 -25q-5 -21 -24 -16q-177 37 -325 -33q-134 -65 -191 -224q-4 -13 -10 -39q-20 -104 25 -192q34 -65 108 -106q35 135 100.5 256t154 215.5t204 153t241.5 65.5q130 9 221 -44q91 -52 86 -186q-11 -132 -123 -270t-301 -223
q-189 -84 -431 -54q-10 -61 -10.5 -112t9 -97t32.5 -78t59.5 -55t90.5 -27.5t125 4.5q108 19 197 118q89 100 110 216q0 5 -4 6t-14 -1t-21.5 -5.5t-29.5 -10.5q-26 -10 -40 -15q-20 -7 -29 14q-5 20 14 28q13 5 33 12q28 11 48 18.5t52.5 17.5t54.5 11t44 -2t33.5 -19
t10.5 -43q-3 -18 -71 -143q-68 -128 -88 -169q-44 -87 -60 -144q-8 -28 -4 -39.5t21 -6.5zM899 1236q-134 -29 -247 -128q-115 -101 -190 -232q-77 -133 -104 -258q158 -17 325 39q166 55 294 167q126 110 167 257q11 44 -0.5 76.5t-38.5 49t-62.5 27t-73 8.5t-70.5 -6z" />
    <glyph glyph-name="H" unicode="H" horiz-adv-x="1617" 
d="M34 227q28 85 133 167q17 11 31 -5q12 -19 -5 -31q-93 -72 -117 -146q-17 -51 -8 -91q26 -101 126 -65q63 25 126 94q63 68 111 141q51 77 68 115q40 84 106 294l-94 -1q-10 0 -16.5 6t-6.5 15q0 10 6.5 16.5t15.5 6.5l108 2q46 149 75 296q29 145 21 234q-14 69 -66 69
q-51 0 -101 -32q-60 -36 -98 -133q-26 -69 -38 -165q-1 -9 -8.5 -15t-16.5 -5q-21 2 -19 25q14 108 41 176q42 109 115 154q54 33 140 38q84 4 146 -35q62 -40 52 -133q-43 -288 -93 -472l365 6q86 273 230 516q17 29 37 48.5t37 25.5t32.5 4.5t24.5 -14t12.5 -30.5t-4 -45
t-24.5 -57q-100 -168 -200 -446l119 2q9 0 15.5 -6.5t6.5 -15.5t-6 -15.5t-16 -6.5l-133 -3q-55 -169 -66 -331t53 -274q56 -90 139 -29q33 27 51 77q27 74 -1 187q-5 22 16 27q20 5 27 -16q31 -127 0 -213q-42 -119 -137 -134q-117 -10 -179 50q-62 62 -81 158t-13 198
q6 99 20 176q11 63 27 122l-364 -5q-59 -205 -137 -356q-81 -161 -168 -252q-104 -112 -253 -112q-114 3 -156 73q-42 71 -8 171z" />
    <glyph glyph-name="I" unicode="I" horiz-adv-x="813" 
d="M294 98q56 71 84 190q30 127 44 235q3 19 7.5 55.5t6.5 47.5q21 171 54 355q35 187 95 335q-77 12 -150 3q-107 -12 -182 -63q-80 -65 -81 -155q-2 -45 15 -84q17 -40 46 -61q42 -33 110 -16q35 12 55 41q11 18 14 34q3 19 -3 38q-9 36 -57 71q-18 12 -7 31q13 17 31 6
q62 -43 76 -95q9 -29 4 -58q-4 -28 -21 -51q-29 -44 -80 -59q-90 -24 -148 22q-43 33 -61 80q-21 47 -19 103q5 120 100 188q84 59 202 72q96 12 194 -9q23 10 50 -1q34 -16 40 -50q-37 -106 -82 -402q-15 -103 -24.5 -159t-27 -152t-35.5 -157.5t-42.5 -134t-56 -125.5
t-68.5 -90q-55 -53 -141 -76q-86 -21 -157 7q-39 17 -58 46q-22 32 -20 70q1 55 58 113q16 14 31 0q15 -15 0 -32q-42 -42 -44 -83q-2 -25 11 -43q13 -19 39 -30q47 -19 105 -7t93 50z" />
    <glyph glyph-name="J" unicode="J" horiz-adv-x="932" 
d="M22 146q-22 66 -9 142q13 75 59 143l1 2q11 14 29 6q16 -10 8 -30h1l-2 -2q-40 -61 -52 -127q-11 -66 7 -120q21 -57 65 -83.5t95 -23t102 27t89 61.5q105 113 160 309q56 195 82 405q24 198 34 345q1 8 2.5 22.5t1.5 20.5q-167 -44 -258 -36q-56 3 -109.5 24t-132.5 64
q-18 8 -9 30q8 18 30 9q76 -41 125 -60.5t99 -22.5q88 -8 258 39v1q3 31 25.5 47t47.5 14t44 -21.5t17 -51.5l-2 -17q-1 -12 -2 -26.5t-3 -34.5t-3 -32q-5 -84 -22 -253q-15 -150 -35 -256q-10 -55 -18.5 -96.5t-23.5 -101t-30.5 -104.5t-39 -98.5t-49 -92.5t-61 -77
t-75 -61t-90.5 -35.5t-108 -8.5q-86 4 -152.5 44.5t-95.5 115.5z" />
    <glyph glyph-name="K" unicode="K" horiz-adv-x="1465" 
d="M294 98q56 71 84 190q31 126 44 235q6 37 13 100q23 179 55 356q36 191 95 337q-77 12 -150 3q-107 -12 -182 -63q-81 -65 -82 -155q-1 -43 16 -84q17 -40 46 -61q43 -32 110 -16q35 12 55 41q11 18 14 34q3 19 -3 38q-9 37 -58 71q-18 11 -6 31q13 17 31 6
q62 -43 76 -95q8 -32 4 -58q-4 -28 -21 -51q-29 -44 -79 -59q-91 -24 -149 22q-43 33 -61 80q-21 47 -19 103q5 120 100 188q84 59 202 72q96 12 193 -9q24 10 51 -1q34 -16 40 -50q-34 -96 -58 -255q-7 -38 -22 -137q-2 -12 -6 -37t-6 -37q40 97 119 202q83 111 189 197
q109 88 220 110q113 24 208 -58q7 -6 7.5 -15t-5.5 -16q-16 -16 -31 -1q-143 87 -528 -355q-5 -6 -8 -9q-8 -10 -40 -45q-56 -65 -144 -185q18 -85 88 -210q70 -124 162 -238q91 -111 169 -151q127 -61 182 95q36 100 14 285q-2 20 19 25q23 2 25 -20q23 -197 -16 -304
q-49 -145 -145 -166q-96 -22 -208 42q-110 63 -208 181q-96 117 -142 248q-64 -253 -171 -366q-55 -53 -141 -76q-84 -21 -157 7q-39 17 -59 46q-20 33 -19 70q1 55 58 113q16 14 31 0q15 -15 0 -32q-44 -44 -44 -83q-2 -25 11 -43q13 -19 40 -30q46 -19 104 -7t93 50z" />
    <glyph glyph-name="L" unicode="L" horiz-adv-x="1157" 
d="M308 98q18 23 32 48l-18 7q-13 5 -37 15q-25 11 -40 17t-41 15t-42.5 11.5t-37.5 1t-33 -10.5t-21 -27.5t-10 -46.5q-1 -24 12 -43q14 -19 39 -30q46 -19 105 -7q57 12 92 50zM359 186q53 133 77 337q3 19 7.5 55.5t6.5 47.5q24 181 55 355q33 185 94 335q-77 12 -150 3
q-108 -12 -181 -63q-81 -65 -82 -155q-2 -45 15 -84q18 -40 47 -61q42 -33 110 -16q35 12 55 41q10 16 13 34t-2 38q-10 37 -58 71q-18 12 -7 31q15 16 31 6q62 -43 76 -95q9 -29 4 -58q-4 -28 -20 -51q-29 -44 -80 -59q-91 -24 -149 22q-40 31 -61 80q-20 50 -19 103
q5 119 101 188q84 59 202 72q96 12 193 -9q23 10 51 -1q33 -17 39 -50q-38 -110 -81 -402q-27 -192 -73 -407q-43 -199 -127 -340q139 -54 296 -85q154 -30 283 9q21 7 29 -13q7 -20 -14 -29q-140 -43 -307 -11q-168 34 -313 91q-12 -16 -29 -33q-55 -54 -140 -76
q-86 -21 -158 7q-37 16 -58 46q-34 58 -12 122t101 72q67 -1 190 -51l24 -9z" />
    <glyph glyph-name="M" unicode="M" horiz-adv-x="1796" 
d="M294 106q55 70 84 191q30 120 45 234q9 71 13 99q24 184 55 361q35 190 97 339q12 24 36 33t49 -1q34 -16 40 -51q-16 -44 -25 -87l286 -675q245 330 406 536q186 236 188 238l6 7q8 10 19 8q54 33 79 -6t-20 -126q-54 -90 -118 -234q-65 -145 -110 -301
q-47 -159 -54 -307q-6 -148 54 -255q56 -90 139 -28q32 25 51 76q27 74 -1 188q-5 21 16 26q20 7 27 -15q32 -128 0 -213q-40 -111 -132 -134q-65 -14 -113 3q-81 29 -122 113q-39 84 -42 175q-11 375 189 785q-184 -236 -449 -592q-3 -7 -10 -8q-8 -4 -16.5 -1t-11.5 12
l-278 652q-26 -144 -40 -240q-16 -103 -25 -158t-26.5 -151.5t-35.5 -157.5t-42.5 -133.5t-56 -125.5t-68.5 -90q-55 -54 -140 -76t-157 6q-39 17 -59 47q-21 32 -20 70q1 55 58 112q16 16 32 0q14 -16 -1 -31q-42 -42 -44 -83q-1 -24 12 -43q14 -21 39 -31q46 -19 105 -7
q57 12 92 50z" />
    <glyph glyph-name="N" unicode="N" horiz-adv-x="1546" 
d="M295 106q55 71 83 191q30 120 45 234q5 35 13 99q25 191 56 361q34 187 96 339q12 24 36 33t50 -1q32 -16 40 -51q-23 -66 -41 -155q25 -325 84 -556q57 -224 112 -359l5 43q1 6 8 94q10 125 25 256q16 140 50 286q33 144 91 246q37 64 91 104.5t115 44.5q99 -3 146 -81
q46 -76 28 -175q-18 -98 -110 -163q-18 -11 -30 8q-9 19 9 30q66 43 80 123q13 78 -19 143q-31 62 -97 55q-67 -17 -104 -125q-68 -212 -105 -482q-38 -273 -45 -377q-4 -31 -5 -42q-11 -116 -19 -160q-6 -28 -28 -43t-50 -10t-43 27t-11 50q4 20 9 56q-49 104 -112 311
q-63 206 -104 528q-4 -25 -12 -77q-22 -150 -38.5 -241.5t-47 -218t-72.5 -215.5t-97 -144q-55 -54 -140 -76t-157 6q-38 17 -58 47q-22 30 -20 70q2 57 57 112q16 16 32 0q14 -16 -1 -31q-42 -42 -44 -83q-1 -24 12 -43q14 -21 39 -31q47 -19 105 -7t93 50z" />
    <glyph glyph-name="O" unicode="O" horiz-adv-x="1205" 
d="M458 14q-19 -4 -41 -6q-155 -11 -251 84q-95 95 -131 253q-35 159 -12 338q22 179 104 338q83 159 221 253q61 39 130.5 62t147.5 16.5t129 -54.5q46 -43 61 -114q7 -36 6 -79q-1 -3 -1 -8q-1 -3 -1 -8q104 -30 134 -189q16 -85 5 -198q-11 -109 -45 -221
q-32 -100 -80 -184q82 -1 125 51q44 53 74 122q7 13 13 26q6 12 17.5 16t22.5 -2q11 -7 15 -19t-2 -24q-49 -109 -114 -174t-188 -55q-137 -203 -339 -224zM420 75q191 1 323 191q-9 9 -27 25q-44 36 -78 93q-34 58 -51 111q-28 93 -23 221q6 124 39 219q39 115 127 151
q27 9 53 8h6q4 42 -4 83q-15 70 -83 87q-43 10 -91.5 -11t-92 -63t-76.5 -82.5t-59 -82.5q-114 -184 -151 -404t34 -406q55 -123 154 -140zM776 319q49 85 81 182q34 104 43 207q9 99 -5 180q-26 139 -113 143q-16 1 -34 -4q-59 -26 -89 -114q-29 -86 -35 -198
q-5 -117 20 -200q20 -63 57 -115q31 -42 75 -81z" />
    <glyph glyph-name="P" unicode="P" horiz-adv-x="1298" 
d="M295 106q55 71 83 191q30 120 45 234q5 35 13 99q25 191 56 361q34 187 96 339q12 24 36 33t49 -1q31 -13 39 -44q107 18 198.5 -2.5t157 -75t96.5 -149t16 -216.5q-16 -139 -81 -259q-35 -65 -93 -111t-122.5 -64.5t-133.5 0t-122 75.5q-28 31 -51 68q-30 -154 -78 -285
q-46 -128 -122 -207q-55 -54 -140 -76t-157 6q-38 17 -59 47q-21 32 -20 70q3 57 58 112q16 16 32 0q14 -16 -1 -31q-42 -42 -44 -83q-1 -24 12 -43q14 -21 39 -31q47 -19 105 -7t93 50zM700 1270q-39 -150 -68 -363q-20 -129 -42 -254q79 -145 185 -148q107 -2 207 175
q52 96 66 210q13 110 -19 204l-6 12q-94 210 -323 164z" />
    <glyph glyph-name="Q" unicode="Q" horiz-adv-x="1251" 
d="M458 14q-19 -4 -41 -6q-155 -11 -251 84q-95 95 -131 253q-35 159 -12 338q22 179 104 338q83 159 221 253q61 39 130.5 62t147 16.5t129.5 -54.5q46 -43 61 -114q7 -32 5 -79v-8q-1 -3 -1 -8q106 -31 133 -189q17 -88 6 -198q-11 -111 -46 -221q-29 -94 -80 -184
q83 -1 126 51q44 53 74 122q7 13 13 26q6 12 17.5 16t22.5 -2q25 -15 13 -43q-49 -109 -114 -174t-188 -55q-51 -75 -121 -133q54 -32 111 -49q115 -30 173 -6q60 26 79 76q21 52 20 98q0 50 -4 63v3q13 18 31 4q36 -30 50.5 -76.5t4.5 -92.5q-28 -103 -121 -127
q-91 -25 -201 2q-107 25 -186 74q-80 -50 -175 -60zM420 75q189 1 323 191q-20 18 -27 25q-44 36 -78 93q-34 58 -51 111q-29 98 -23 221q6 124 39 219q39 115 127 151q25 9 53 8h6q4 42 -4 83q-15 71 -84 87q-42 10 -90.5 -11t-92 -63t-76.5 -82.5t-59 -82.5
q-114 -184 -151 -404t34 -406q55 -123 154 -140zM776 319q49 85 81 182q32 104 43 207q9 99 -5 180q-12 66 -41 103.5t-73 39.5q-15 1 -33 -4q-59 -26 -89 -114q-29 -86 -35 -198q-6 -116 19 -200q19 -61 58 -115q30 -42 75 -81z" />
    <glyph glyph-name="R" unicode="R" horiz-adv-x="1484" 
d="M294 106q55 70 84 191q31 124 44 234q7 45 15 107q22 180 55 357q36 190 95 335q13 24 37 33t49 -1q30 -13 39 -44q107 18 198.5 -2.5t157 -75t96.5 -149t16 -216.5q-18 -140 -82 -259q-79 -139 -224 -177q23 -39 53 -104q0 -2 1.5 -4.5t2.5 -3.5q25 -59 69 -132
q44 -74 104 -112q61 -37 139 6q48 29 103 80q16 15 32 -1q6 -7 5.5 -16t-7.5 -15q-55 -52 -110 -86q-20 -12 -34 -19q-146 -56 -230 -17q-84 41 -129 127q-46 93 -70 172q-29 95 -59 127q-64 18 -116 75q-27 29 -52 68q-30 -154 -78 -285q-46 -127 -121 -207
q-55 -53 -141 -76q-84 -22 -157 6q-38 17 -58 47q-21 32 -20 70q2 57 58 112q15 15 31 0q15 -15 0 -31q-43 -43 -45 -83q0 -24 12 -43q14 -21 39 -31q47 -19 105 -7t93 50zM699 1270q-36 -140 -67 -360q-23 -146 -43 -257q79 -145 185 -148q108 -2 208 175q52 97 65 210
q14 114 -19 204q0 1 -1 3t-1 3l-3 6q-94 210 -324 164z" />
    <glyph glyph-name="S" unicode="S" horiz-adv-x="962" 
d="M71 498q62 80 195 107q38 5 80 6q39 0 59 -1q-3 6 -8 17.5t-6 13.5q-7 18 -13 31q-2 5 -6 13q-52 115 -90 227q-63 204 -20 310q44 106 141 129q97 22 193 -32q96 -52 139 -172q15 -47 15 -103q-1 -43 -28 -84q-28 -41 -74 -75q-14 -11 -36 -25q-13 -8 -39 -22
q-21 -9 -29 9q-9 21 9 29q24 14 37 21q14 9 32 22q39 29 64 65q18 27 20 61q-2 89 -65 142q-61 53 -136 55q-73 1 -111 -67q-37 -67 10 -221q40 -115 89 -223q1 -3 3 -7q52 -120 56 -130q96 -16 170 -7q72 11 96 85q7 20 27 15q20 -6 15 -27q-30 -96 -108 -112
q-81 -17 -182 -1q50 -126 65 -237q8 -85 -14 -147q-33 -91 -124 -133q-93 -41 -196 -31q-127 17 -203 100q-76 84 -87 194q-10 111 60 205zM423 565q-37 3 -77 3q-41 0 -73 -7q-117 -23 -168 -90q-59 -80 -50 -180q11 -101 79 -168q69 -67 191 -50q62 12 108 45.5t66 85.5
q13 38 7 92q-16 119 -83 269z" />
    <glyph glyph-name="T" unicode="T" horiz-adv-x="1673" 
d="M687 106q55 70 84 191q31 124 44 234q7 53 15 108q22 175 47 318q29 166 78 307q-3 0 -9 2t-9 2l-24 6q-270 63 -436 43q-165 -19 -245 -89q-78 -68 -92 -153q-14 -83 20 -148q34 -64 96 -76q62 -11 147 22q78 34 118 93q42 63 49 121q6 37 -2 65q-6 22 -21 28
q-22 9 -65 -25q-16 -13 -31 4t4 31q65 50 108 31q35 -14 47 -56q12 -37 5 -85q-11 -69 -58 -139q-48 -70 -138 -109q-126 -50 -226 -14q-101 36 -147 129q-46 94 -13 214q45 126 149 177q103 51 239 53q138 2 267 -23q148 -28 235 -50q22 -6 33 -8q2 0 7 -2t7 -2q1 3 10 24
q13 24 37 33t49 -1q34 -16 40 -51q-1 -3 -4.5 -12.5t-5.5 -15.5q72 -3 160 11q85 13 142 44q34 15 52 42q18 28 50.5 30.5t53 -17.5t10.5 -49q-22 -48 -90 -81q-67 -31 -113 -39q-130 -17 -277 13q-33 -139 -60 -328q-16 -103 -25 -158.5t-26.5 -152t-35.5 -157.5
t-42.5 -133.5t-56 -125.5t-68.5 -90q-55 -53 -141 -76q-84 -22 -157 6q-38 17 -58 47q-21 32 -20 70q2 55 58 112q16 15 31 0q14 -15 0 -31q-43 -43 -45 -83q0 -24 13 -43q15 -21 38 -31q47 -19 105 -7t93 50z" />
    <glyph glyph-name="U" unicode="U" horiz-adv-x="1811" 
d="M489 1310q-111 -47 -196 -150q-87 -105 -127 -227q-41 -122 -15 -224q25 -100 137 -141q57 -18 124 7q66 32 114 104q42 66 46 147t-26 142q-18 40 -44 66q-25 25 -52 29q-47 11 -101 -53q-14 -16 -31 -3q-17 15 -3 31q72 82 142 69q42 -7 76 -41q33 -31 54 -80
q32 -75 29 -163q-2 -89 -53 -169q-47 -70 -112 -105.5t-129 -35.5t-126 29.5t-105.5 82t-64 130.5t-6.5 165q38 190 191 315q155 126 351 141q99 6 185 -35q87 -41 130 -137q43 -144 12 -316q-31 -170 -84 -340q-4 -16 -7 -25q-22 -71 -46 -180q-21 -103 -7 -193
q15 -89 101 -119q115 -31 230 -6q115 27 194 94q12 11 23 23q-55 123 -55 310q2 188 42 381q40 195 108 342q67 147 147 194q22 18 48.5 15.5t45.5 -23.5q17 -22 15 -48.5t-24 -45.5q-7 -6 -20 -19q-74 -83 -129 -235q-53 -151 -79 -330q-5 -32 -6 -119q-2 -87 6 -194
q8 -109 28 -192q23 -86 64 -113q43 -27 110 43q44 47 72 131q7 22 28 15q20 -7 15 -28q-32 -96 -82 -149q-61 -62 -133 -67q-117 -4 -178 91q-11 -11 -17 -16q-89 -75 -214 -103q-126 -28 -252 6q-147 46 -194 129q-45 83 -28 198q18 115 60 251l6 18q11 38 33 131
q24 103 38 217q15 123 2 225q-12 104 -73 152q-60 48 -188 1z" />
    <glyph glyph-name="V" unicode="V" horiz-adv-x="1469" 
d="M488 1310q-111 -47 -196 -150q-87 -105 -127 -227q-41 -122 -15 -224q26 -101 138 -141q56 -18 123 7q65 32 115 104q44 69 45 147q3 79 -25 142q-20 40 -45 66q-25 25 -52 29q-46 10 -100 -53q-14 -16 -32 -3q-16 14 -3 31q72 83 143 69q41 -7 76 -41q32 -32 53 -80
q32 -75 29 -163q-2 -89 -53 -169q-75 -108 -175 -132t-192 20q-89 43 -143 142q-53 99 -33 236q38 190 191 315q154 126 351 141q99 6 185 -35q87 -41 130 -137q43 -144 12 -316q-33 -178 -83 -340q-3 -7 -7 -23q-53 -168 -59 -290q-4 -89 18 -137t58 -51t79 25t83 82
q106 145 179 363q109 324 168 821q1 9 8 14.5t17 4.5q9 -1 14.5 -8t4.5 -17q-59 -505 -170 -829q-100 -305 -268 -472q-53 -49 -113 -49q-50 0 -89.5 22.5t-61.5 58t-37 80.5t-16 91t2 88q19 124 61 262q16 51 34 131q24 103 38 217q15 123 2 225q-14 105 -73 152
q-60 48 -189 1z" />
    <glyph glyph-name="W" unicode="W" horiz-adv-x="1976" 
d="M488 1310q-111 -47 -196 -150t-126 -227q-41 -122 -15 -224q26 -101 137 -141q56 -18 124 7q65 32 113 104q43 66 47 147t-27 142q-16 39 -43 66q-24 24 -53 29q-47 11 -100 -53q-15 -17 -31 -3q-18 13 -4 31q72 83 143 69q41 -7 76 -41q32 -32 53 -80q32 -75 29 -163
q-2 -89 -53 -169q-47 -70 -111.5 -105.5t-128.5 -35.5t-125.5 29.5t-106 82t-65 130.5t-6.5 165q38 190 191 315q154 126 351 141q100 6 186 -35t129 -137q43 -144 12 -316q-31 -170 -84 -340q-1 -5 -8 -28q-20 -68 -35 -133q-17 -74 -22 -152q-3 -89 19 -137t58 -51t79 25
t82 82q104 143 178 363q110 319 169 814q5 21 25 19q9 -1 15 -8t5 -16q-58 -497 -171 -823q-21 -62 -48 -128q2 -8 1 -11q-37 -194 51 -272q53 -47 130 -35q82 10 173 89q70 62 128.5 158.5t105.5 232t69 324t13 406.5q-1 9 5.5 15.5t15.5 7.5q10 0 16.5 -6t6.5 -16
q10 -223 -13.5 -416.5t-72.5 -334t-110.5 -240.5t-134.5 -164q-100 -88 -195 -100q-99 -14 -167 45q-71 64 -76 204q-73 -138 -166 -231q-49 -49 -112 -49q-51 0 -90.5 22.5t-62 58t-37 80.5t-15.5 91t2 88q16 114 61 262q11 38 33 131q24 103 38 217q17 122 3 225
q-14 105 -74 152q-60 48 -188 1z" />
    <glyph glyph-name="X" unicode="X" horiz-adv-x="1914" 
d="M573 701q84 23 144 90q50 59 61 157q9 148 -48 204q-29 31 -66 38t-78 -4q-81 -25 -122 -111q-8 -19 -29 -12q-19 8 -12 29q50 106 150 137q52 14 100 5q50 -10 89 -52q70 -67 61 -237q-17 -152 -111 -230q-95 -79 -215 -83q-121 -4 -219 63q-98 68 -122 205
q-19 124 50 243t233 182q22 8 33 11q69 22 140 24h26q69 -3 125 -19.5t98.5 -47t75 -66t60 -87t48.5 -98t47 -109.5v-1q5 -12 5 -13q49 -123 90 -246l6 -18q181 211 315 399q124 174 185 277q7 12 18 5q12 -7 5 -19q-47 -82 -190 -283q-132 -186 -323 -409q96 -298 188 -416
q71 -98 175 -137t221 -13q20 5 27 -17q2 -22 -17 -27q-167 -41 -310 -12q-143 30 -240 175q-85 146 -147 333q-75 -82 -148 -150q-87 -83 -210 -174q-121 -91 -257 -147q-133 -55 -259 -32q-124 24 -212 169q-14 25 -7.5 51t30.5 41q25 13 50.5 6.5t40.5 -30.5
q34 -52 71 -88.5t75.5 -55t76.5 -28t79.5 -2.5t79 17.5t80 34.5t78 46.5t78 56t73.5 59t72 60.5l1 1q28 24 42 35q80 77 156 159q-3 10 -9.5 31t-10.5 31q-44 136 -96 266l-8 21q-38 100 -103 214q-61 108 -153 168q-91 61 -224 23q-14 -4 -30 -11q-102 -47 -148 -159
q-46 -111 -23 -218q25 -92 108 -159q82 -66 180 -46z" />
    <glyph glyph-name="Y" unicode="Y" horiz-adv-x="971" 
d="M641 653q28 35 43 61q17 138 30 266q14 134 24 310q2 29 21.5 46.5t48.5 16.5q27 -1 45 -21t18 -48q-21 -377 -61 -637q-10 -72 -14 -108q-21 -178 -46.5 -308.5t-70.5 -247.5q-67 -163 -181 -251q-115 -89 -231 -95q-115 -6 -192 80q-75 86 -65 271q8 175 159 422
q12 19 30 7q17 -11 8 -31q-145 -237 -153 -401q-14 -206 80 -262q75 -45 185 21q115 69 198 217q20 37 37 76q65 159 104 485q4 28 13 98q-46 -53 -102 -85q-117 -61 -220 -12t-145 174q-30 105 -38 239q-9 195 5 313q1 8 2.5 22t1.5 21q2 28 22 45.5t49 15.5
q28 -2 45.5 -22t16.5 -49q0 -6 -1.5 -19.5t-2.5 -20.5q-13 -105 -5 -298q5 -86 17 -146q12 -88 40.5 -148t69.5 -86t97 -4.5t118 93.5z" />
    <glyph glyph-name="Z" unicode="Z" horiz-adv-x="1180" 
d="M523 882q82 -70 114.5 -166t7.5 -203q4 0 6 1q43 12 92 43q98 62 171 151q70 92 121 192q13 20 30 9q8 -4 11 -12.5t-2 -16.5q-85 -162 -158 -241q-62 -66 -150 -120q-56 -35 -102 -48q-9 -2 -34 -7q-21 -97 -73 -202q-51 -105 -135 -180q-83 -74 -204 -79
q-116 5 -167 93q-51 89 -23 197q16 58 50 99.5t74 63t96.5 33t102.5 14t107 0.5q30 -2 49 -2q0 3 1 4q0 2 1 3q20 71 12 154q-7 84 -66 129q-47 -60 -102 -126q-1 -1 -8.5 -11.5t-14.5 -18.5q-17 -22 -43.5 -25.5t-49.5 12.5q-23 18 -26.5 44.5t13.5 49.5l24 31q14 19 31 38
q6 8 21.5 26.5t23.5 29.5q31 39 58 75t62 84t62 90t53.5 87.5t40.5 82.5t19.5 68.5t-6 51.5t-39.5 26q-107 20 -182 -42q-75 -63 -124 -159q-52 -102 -85 -190q-19 -49 -36 -87q-2 -6 -6.5 -14.5t-6.5 -12.5t-6.5 -12.5t-6.5 -12.5q-11 -19 -30 -10q-18 12 -10 30q4 7 13 25
q0 1 2 4t2 4q1 3 4 9t4 9q14 29 40 91q2 7 8 19t8 19q48 128 114 234q68 107 197 168q120 55 202 25q94 -33 77 -164q-21 -169 -229 -457zM485 457q-18 0 -28 1h-4q-138 7 -215 -15q-103 -36 -140 -111q-38 -74 -21 -144q17 -71 74 -93q58 -22 147 47q102 85 187 315z" />
    <glyph glyph-name="bracketleft" unicode="[" horiz-adv-x="543" 
d="M443 1243q-127 0 -162 -1q-107 -858 -118 -945q-21 -161 -23 -179l124 -2l-3 -123q-64 1 -191 2l-70 -1l9 70q0 1 15 115q31 252 141 1132l7 54q52 1 105 0q55 -1 166 1v-123z" />
    <glyph glyph-name="backslash" unicode="\" horiz-adv-x="380" 
d="M164 -5l-164 1365l117 13l163 -1364z" />
    <glyph glyph-name="bracketright" unicode="]" horiz-adv-x="453" 
d="M62 1276l19 97q26 -1 79 -1q97 0 193 -9q-28 -412 -92 -1328l-3 -48q-48 3 -152 5q-63 1 -106 3l21 121q41 -7 122 -22q5 81 29 405q9 120 27.5 380t27.5 380q-16 3 -54 5q-48 2 -111 12z" />
    <glyph glyph-name="asciicircum" unicode="^" horiz-adv-x="455" 
d="M0 906l124 463h104l127 -472l-105 -28l-74 278l-72 -269z" />
    <glyph glyph-name="underscore" unicode="_" horiz-adv-x="721" 
d="M0 79h621v-84h-621v84z" />
    <glyph glyph-name="grave" unicode="`" horiz-adv-x="278" 
d="M1 1322q-1 15 23 26.5t53.5 16t55.5 -1t29 -21.5q17 -167 -18 -221q-33 -53 -78 -1q-45 53 -65 202z" />
    <glyph glyph-name="a" unicode="a" horiz-adv-x="929" 
d="M722 918q11 26 35 37t51 2q26 -11 37 -35.5t2 -50.5q-5 -19 -27 -84q-28 -83 -66 -204q-38 -124 -69 -241q-29 -117 -34 -200q-5 -80 35 -82q50 8 118 98q67 89 123 194q10 21 30 9q18 -8 9 -30q-84 -159 -159 -240q-103 -108 -182 -85q-74 23 -96 97q-22 75 -9 181
q-30 -53 -65 -100t-82.5 -93t-104.5 -68t-113 -11q-102 24 -140 128q-36 104 -16 246q19 142 87 277q68 136 170 219q104 85 235 74q80 -10 140 -70q32 -33 50 -74q5 13 25 64q7 23 16 42zM655 746q-25 79 -91 117q-78 37 -156 -21q-76 -58 -140 -172q-62 -110 -97 -239
q-34 -122 -26 -221q8 -95 73 -119q63 -14 131 54q68 66 124 153q43 67 73 139.5t64 175.5q19 61 45 133z" />
    <glyph glyph-name="b" unicode="b" horiz-adv-x="697" 
d="M113 73q0 -28 -18.5 -47.5t-46.5 -21.5q-29 0 -48 18.5t-21 46.5q-10 346 63 616q1 4 3.5 13.5t4.5 14.5q-69 -19 -127 -28q-9 -2 -16.5 3.5t-9.5 14.5q-2 21 19 26q85 15 150 35q28 82 72.5 168t118.5 174.5t153 124.5q65 31 110.5 24.5t69 -35t21.5 -77t-31 -101.5
q-35 -65 -110 -124q-119 -90 -256 -149l-5 -1q-20 -55 -39 -119q0 -4 -1 -6q-2 -7 -7 -28q109 93 205 76q95 -16 148 -117q35 -71 38.5 -160.5t-21.5 -169.5q50 9 93.5 37t67.5 71q10 21 30 9q18 -8 9 -30q-19 -34 -62 -69q-40 -33 -78 -48q-36 -14 -76 -18q-8 -22 -18 -42
q-64 -123 -152 -157t-156 -7q-66 25 -71 85t99 125q74 39 180 53q37 110 6 224q-28 102 -91 129q-78 32 -170 -75q-39 -206 -30 -458zM378 204q-83 -12 -137 -43q-66 -39 -59 -82q6 -30 40 -37q52 -10 99 44q37 43 57 118zM234 827q111 52 209 126q77 61 105 123
q25 53 16.5 94t-41.5 41.5t-84 -46.5q-65 -72 -124 -180q-58 -103 -81 -158z" />
    <glyph glyph-name="c" unicode="c" horiz-adv-x="623" 
d="M334 957q73 6 138 -46q67 -58 79 -194q2 -23 -20 -25q-9 -1 -16 5t-8 15q-6 70 -33 123q-28 54 -82 55q-98 -8 -159 -118q-60 -107 -77 -259q-15 -150 22 -270q38 -120 137 -146q67 -16 147 50.5t160 218.5q11 18 30 9q19 -11 10 -30q-26 -50 -45 -84t-51.5 -80.5
t-63.5 -77t-73.5 -57t-87.5 -36.5q-147 -28 -231 54t-108 225q-24 144 7 292q32 152 113 257q83 107 212 119z" />
    <glyph glyph-name="d" unicode="d" horiz-adv-x="975" 
d="M897 1231q66 31 111 24.5t68.5 -35t21.5 -77t-31 -101.5q-32 -63 -110 -124q-118 -90 -256 -149l-4 -1q-22 -56 -39 -119q-14 -50 -32 -133q-20 -92 -30 -194q-11 -102 3 -179q13 -76 67 -90q59 -14 137 54q79 67 171 241q11 19 30 10q19 -11 10 -30q-84 -160 -159 -240
q-33 -36 -81.5 -62t-99 -35t-98.5 10t-75 67q-17 31 -29 82q-62 -85 -133 -122t-132 -27t-111 53t-75 111q-47 135 -11 283q37 151 130 253q94 105 225 105q88 -3 173 -109q62 186 156 333q95 148 203 201zM461 233q-7 186 60 412q-56 84 -120 80q-65 -3 -126 -70
q-47 -54 -75 -147q-27 -88 -32 -190q-4 -95 22 -168q26 -69 86 -77q79 -7 185 160zM722 827q108 50 208 126q78 61 105 123q19 39 18.5 73t-15.5 50.5t-45 9t-66 -43.5q-67 -75 -125 -180q-53 -96 -80 -158z" />
    <glyph glyph-name="e" unicode="e" horiz-adv-x="612" 
d="M530 767q-3 -53 -33 -115q-40 -87 -118 -162q-76 -73 -218 -112q1 -106 38 -185q36 -77 113 -95q45 -10 92 13t86.5 67t68 85.5t51.5 84.5q11 18 30 10q18 -11 9 -30q-28 -54 -65 -114q-4 -6 -5 -9q-1 -1 -3 -3.5t-3 -4.5q-103 -156 -235 -187q-149 -23 -232 68
q-81 90 -104 238q-22 144 10 294q31 146 112 242q74 78 169 99q96 22 168 -22q72 -43 69 -162zM162 424q123 37 192 103q67 66 103 145q26 54 29 97q1 77 -52 97q-54 20 -119 -34q-99 -81 -136 -265q-14 -67 -17 -143z" />
    <glyph glyph-name="f" unicode="f" horiz-adv-x="637" 
d="M379 16q-41 -5 -82 15q-46 22 -72 70q-25 48 6 96q36 42 87 19q53 -23 93 -149q68 31 130 123q62 93 95 158q8 18 30 9q18 -11 9 -30q-83 -159 -158 -240q-44 -41 -95 -61q20 -89 -16.5 -176t-113.5 -135t-163 -30q-69 14 -104.5 83t-37 174.5t20 230t64.5 263.5
q54 176 133 351q76 167 161 287q84 120 160 157q65 31 110.5 24.5t69 -35t21.5 -77t-31 -101.5q-32 -63 -110 -124q-22 -17 -85 -54q-100 -59 -109 -64q-56 -32 -54 -32q-153 -403 -191 -632q-36 -226 -2 -310q34 -85 97 -70q63 14 108 90t29 170zM350 827q111 52 209 126
q78 61 105 123q19 39 18.5 73t-15.5 50.5t-45.5 9t-65.5 -43.5q-67 -75 -125 -180q-58 -103 -81 -158zM367 60q-33 103 -69 116q-15 7 -25 0q-11 -8 -14 -25q-5 -29 25 -58q32 -26 68 -33h8h7z" />
    <glyph glyph-name="g" unicode="g" horiz-adv-x="967" 
d="M444 953q74 8 139 -45q29 -22 45 -60q2 13 14 85q6 28 28 43t50 11q28 -6 43 -28t10 -50q-1 -4 -6.5 -38.5t-9.5 -58.5q0 -2 -0.5 -5.5t-1.5 -5.5q-20 -142 -65 -380q-45 -235 -115 -461q1 1 4 1q1 1 2 1t2 1q42 10 92 42q100 62 172 152q67 87 120 191q11 19 30 10
q18 -12 10 -30q-85 -160 -159 -240q-61 -67 -150 -121q-56 -34 -102 -47q-24 -6 -37 -9q-32 -92 -72 -168.5t-81 -127.5t-86 -89t-86.5 -53t-82 -20t-73.5 10q-80 32 -110 111q-31 76 -8 166q16 59 50 100.5t74 63t96.5 33t102.5 13.5t107 0q29 0 43 -1q14 40 35 111
q-59 -51 -132 -67q-148 -29 -228 48q-78 75 -104 204q-24 129 26 290q50 158 158 281q109 122 256 137zM613 748q-11 62 -38 100t-72 39q-53 -1 -105.5 -43t-92 -109.5t-70.5 -149.5t-42 -166t-6.5 -155.5t36.5 -122t87 -61.5q83 -20 188 90q78 324 115 578zM417 -94h-13
h-15q-141 7 -219 -16q-102 -34 -140 -109q-37 -75 -21 -145t74 -92t147 46q102 85 187 316z" />
    <glyph glyph-name="h" unicode="h" horiz-adv-x="767" 
d="M125 73q0 -28 -18.5 -47.5t-46.5 -21.5q-28 0 -47.5 18.5t-20.5 46.5q-12 344 62 616q2 4 5 13.5t4 14.5q-70 -19 -128 -28q-9 -2 -16.5 3.5t-8.5 14.5q-2 9 3.5 16.5t14.5 9.5q84 15 151 35q27 81 72 168t119 175t152 124q65 31 110.5 24.5t69 -35t21.5 -77t-31 -101.5
q-35 -65 -110 -124q-118 -90 -256 -149l-4 -1q-22 -56 -39 -119q-13 -48 -19 -78q69 56 119 89q133 90 198 87q64 -3 79 -68q15 -66 2 -163q-14 -103 -34 -196q-23 -107 -31 -187q-6 -75 30 -76q51 7 119 97q68 91 122 194q11 19 30 10q20 -13 9 -30q-83 -159 -158 -240
q-104 -109 -183 -86q-69 22 -89 92q-19 68 -10 159q11 95 28 178q34 127 20.5 190.5t-108.5 1.5q-61 -38 -157 -122q-33 -191 -25 -428zM246 827q111 52 209 126q77 61 105 123q19 39 18.5 73t-15.5 50.5t-45.5 9t-65.5 -43.5q-65 -71 -125 -180q-58 -103 -81 -158z" />
    <glyph glyph-name="i" unicode="i" horiz-adv-x="404" 
d="M430 359q20 -13 9 -30q-83 -159 -158 -240q-103 -109 -183 -86q-73 21 -94.5 111t-3 201.5t58.5 241t75 216.5t62 142q11 27 35 37.5t51 1.5q26 -11 37 -35t2 -51q0 -1 -27 -83q-28 -83 -66 -204q-39 -127 -69 -242q-31 -122 -35 -200q-4 -79 36 -81q50 8 118 97
q67 89 123 194q8 19 29 10zM307 999q-30 0 -50.5 19.5t-20.5 46.5q0 28 20.5 47.5t50.5 19.5q29 0 50 -19.5t21 -47.5q0 -27 -21 -46.5t-50 -19.5z" />
    <glyph glyph-name="j" unicode="j" horiz-adv-x="419" 
d="M448 358q18 -11 9 -30q-84 -160 -159 -240q-57 -63 -149 -121q-57 -34 -102 -47q-12 -3 -38 -9q-28 -79 -61.5 -147t-68 -116.5t-72.5 -87.5t-74.5 -61t-73 -35.5t-68.5 -11.5t-62 11q-79 31 -111 111q-31 77 -7 166q16 59 50 100.5t73.5 63t96 33t103 13.5t107.5 0
q28 0 43 -1q74 227 121 472q51 265 70 400q14 87 18 112q6 28 28 43t50 11q27 -6 42 -28t11 -50q-6 -40 -12 -73q-2 -11 -6 -35q0 -6 -1 -9q-23 -152 -66 -378q-46 -237 -113 -454q1 1 4 1q0 1 2 1t2 1q43 11 92 42q99 63 171 152q65 85 121 191q8 19 30 10zM-319 -410
q102 85 187 316h-14h-14q-141 7 -219 -16q-101 -34 -139 -109q-38 -76 -22 -145q15 -70 73 -92q57 -22 148 46zM179 999q-29 0 -50 19.5t-21 46.5q0 28 21 47.5t50 19.5q30 0 51 -19.5t21 -47.5q0 -27 -21 -46.5t-51 -19.5z" />
    <glyph glyph-name="k" unicode="k" horiz-adv-x="749" 
d="M334 308q-4 -94 24 -162q28 -66 81 -80q62 -15 141 57t168 239q8 18 30 9q18 -8 9 -30q-83 -159 -158 -240q-34 -36 -82.5 -62t-99 -35t-98.5 10.5t-75 69.5q-33 64 -44 166q-63 -29 -128 -52q-2 -69 1 -127q0 -28 -18.5 -47t-46.5 -21q-28 0 -47.5 18t-20.5 46
q-12 346 62 616q6 20 9 29q-70 -19 -128 -28q-9 -2 -16.5 3t-8.5 14q-5 20 18 26q72 13 151 35q20 60 51.5 124.5t74.5 133t100 125.5t117 84q66 31 111 24.5t68.5 -35t21.5 -77t-31 -101.5q-33 -62 -110 -123q-122 -93 -256 -149l-4 -2q-23 -58 -39 -118q-1 -1 -2 -4.5
t-1 -5.5q-1 -2 -2.5 -7.5t-1.5 -8.5q234 208 330 83q47 -67 31 -156q-29 -142 -181 -241zM103 248q6 3 22.5 9.5t24.5 10.5q128 63 195 151q70 89 71 156q3 68 -66 70q-69 3 -214 -106q-27 -135 -33 -291zM224 826q111 52 209 126q78 62 105 123q24 53 16 93t-40.5 41
t-83.5 -46q-69 -77 -125 -179q-60 -110 -81 -158z" />
    <glyph glyph-name="l" unicode="l" horiz-adv-x="509" 
d="M431 1238q65 31 110.5 24.5t69 -35t21.5 -77t-31 -101.5q-34 -64 -111 -124q-119 -92 -256 -149l-4 -1q-22 -56 -39 -119q-10 -37 -31 -133q-20 -92 -30 -194q-11 -106 2 -179q14 -77 67 -91q62 -13 141 58.5t168 237.5q8 19 30 10q18 -11 9 -30q-84 -161 -159 -240
q-42 -47 -106.5 -75.5t-133 -21t-105.5 64.5q-59 95 -48 266q10 171 72 362q60 185 157 341q95 150 207 206zM255 834q111 52 209 126q76 62 105 123q14 31 17 60t-5.5 47t-24.5 25.5t-41.5 -3.5t-54.5 -41q-66 -74 -124 -179q-58 -103 -81 -158z" />
    <glyph glyph-name="m" unicode="m" horiz-adv-x="1171" 
d="M498 766q18 24 34 44t39 44.5t44 42t46.5 34t49.5 24t51 7t53 -11.5q73 -36 95 -138q23 -105 19 -232q-5 -140 -16 -253q-10 -115 -12 -191q0 -74 27 -75q50 8 118 97q67 89 123 194q8 19 30 10q18 -8 9 -30q-84 -160 -159 -240q-104 -109 -182 -86q-90 30 -88 167
q4 87 4 91q13 321 -9 450q-49 292 -265 -10q-1 -2 -2 -3q9 -109 5 -208q-1 -29 -5 -92q-1 -14 -2 -43.5t-1 -44.5q-5 -129 -2 -242q-2 -34 -25 -53q-4 -7 -14 -9q-12 -6 -26 -6q-28 0 -47.5 18t-21.5 46q-2 117 5 212q2 41 4 125q7 472 -123 445q-51 -10 -122 -97
q-2 -100 -4.5 -261.5t-3.5 -225.5l-3 -198q0 -28 -19.5 -47t-47.5 -19q-28 1 -47 20.5t-19 46.5q0 34 12 811q1 29 20.5 47t47.5 19q28 -2 46.5 -20.5t18.5 -47.5v-52q68 77 117 104q93 49 149 19q74 -36 99 -182z" />
    <glyph glyph-name="n" unicode="n" horiz-adv-x="804" 
d="M-3 879q2 29 21 47t47 19q28 -2 46.5 -20.5t19.5 -47.5l-2 -88q35 46 80 84.5t96.5 66.5t103 23t88.5 -49q33 -39 49.5 -104t17 -158.5t-3 -156t-12.5 -168.5q-10 -115 -12 -191q0 -74 27 -75q51 7 119 97q68 91 122 194q11 18 30 10q18 -8 9 -30q-83 -159 -158 -240
q-104 -109 -182 -86q-93 31 -88 167q0 37 3 96q6 124 5 258q0 141 -26 242q-13 47 -35 71t-54 24.5t-77.5 -38t-100.5 -114.5q0 -1 -1 -1q-1 -1 -1 -2q-2 -100 -4 -253.5t-3 -204.5l-2 -184q-2 -29 -21 -47.5t-47 -18.5q-28 1 -46.5 20t-19.5 47l2 99q4 309 10 712z" />
    <glyph glyph-name="o" unicode="o" horiz-adv-x="751" 
d="M314 7q-10 -2 -30 -4q-146 -8 -220 95q-75 105 -79 260q-6 155 56 306t192 236q67 42 150 55q88 14 151 -38q34 -31 46 -81q5 -30 4 -56q0 -7 -1 -10v-2q80 -26 99 -133q12 -61 4 -140q-8 -80 -34 -157q-22 -67 -59 -131q61 -1 93 37q34 39 56 87l9 18q10 21 30 9
q18 -8 9 -30q-38 -77 -85 -123q-47 -47 -140 -39q-99 -143 -251 -159zM286 50q141 1 239 136q-1 1 -4.5 4t-5.5 5q-1 2 -4.5 5t-5.5 4q-22 16 -41 43q-4 4 -5 7q-32 43 -49 94q-20 60 -17 149q1 85 29 163q29 82 94 107q19 6 39 5h5q3 32 -3 59q-11 50 -62 61
q-31 8 -67.5 -7t-69 -45t-57 -59t-43.5 -58q-83 -126 -112 -286q-27 -157 26 -288q40 -87 114 -99zM551 223q37 63 59 129q24 71 32 147q7 67 -4 128q-16 93 -84 101q-14 2 -24 -3q-45 -18 -67 -81q-25 -69 -26 -148q-1 -82 15 -134q14 -45 42 -81q22 -29 57 -58z" />
    <glyph glyph-name="p" unicode="p" horiz-adv-x="911" 
d="M-109 -498q-9 -27 -32.5 -39.5t-50.5 -5.5q-27 9 -39.5 32.5t-5.5 50.5q18 58 43 120q13 32 37 97q1 2 5 13.5t13.5 39.5t18.5 55q26 76 82 249q49 157 89 305q42 158 60 280q19 123 -4 172q-22 47 -104 -21l-3 -3q-4 -3 -10 -11q-15 -17 -31 -4q-19 14 -4 31q7 10 19 20
q58 50 105 67t78.5 2.5t52 -46t31.5 -79.5q125 127 257 132q136 1 203 -76t75 -198q9 -121 -30 -252q-40 -133 -115 -238q71 -26 128 -9q58 18 92 64q39 52 61 98l1 2l1 2q8 19 29 10q19 -8 10 -30q-30 -63 -70 -115q-41 -52 -112 -74q-77 -23 -169 15q-62 -76 -139 -114
t-162 -29q-73 10 -112.5 56.5t-35.5 119.5q6 65 56 103q53 38 125 41q82 0 168 -66q64 109 92 233q30 126 12 228q-18 101 -98 139q-103 43 -258 -103q6 -76 -4 -141q-33 -205 -118 -460t-160 -454q-36 -97 -38 -101q-26 -66 -39 -108zM363 109q64 41 116 123
q-80 58 -144 58q-58 -1 -99 -32q-34 -25 -39 -70q-1 -76 51 -95q51 -19 115 16z" />
    <glyph glyph-name="q" unicode="q" horiz-adv-x="1105" 
d="M720 909q10 26 34.5 37t50.5 2q27 -11 38 -35.5t1 -50.5q-2 -11 -28 -89q-14 -42 -64 -196q-37 -142 -75 -319q-40 -190 -61 -349q-22 -165 -11 -281q11 -111 72 -114q80 4 136 124q82 184 37 382q-40 -4 -81 15q-46 22 -72 70q-25 48 6 96q36 42 87 18q51 -21 93 -148
q68 31 130 123q61 91 95 157q10 21 30 9q18 -8 9 -29q-87 -163 -159 -241q-45 -42 -94 -60q47 -221 -38 -408q-36 -81 -100 -130q-62 -49 -156 -35q-67 10 -107 76q-38 72 -36 194q2 128 20 254q18 125 41 237q13 73 13 76q-28 -52 -66 -103t-87.5 -100t-109 -74t-116.5 -14
q-101 24 -139 128q-36 104 -16 246q19 142 87 277q68 136 170 219q104 85 235 74q80 -10 140 -70q31 -33 50 -73q17 42 24 63q8 24 17 42zM620 644q0 1 1.5 5t2.5 6q1 3 3 11h1q7 23 25 71q-25 78 -91 118q-77 37 -156 -22q-76 -58 -140 -172t-98 -239q-34 -122 -26 -221
q9 -95 74 -118q63 -14 131 54q69 68 124 152q70 108 136 313q8 28 13 42zM839 64q-35 102 -69 115q-16 8 -25 1q-13 -8 -14 -25q-6 -28 25 -59q33 -26 68 -32h8h7z" />
    <glyph glyph-name="r" unicode="r" horiz-adv-x="795" 
d="M590 915q10 26 34.5 37t50.5 1q27 -10 38 -34.5t1 -50.5q-4 -20 -27 -84q-29 -82 -66 -204q-41 -132 -68 -241q-31 -122 -35 -200q-5 -80 35 -82q50 7 118 98q67 89 123 194q4 8 13 11t17 -2q18 -8 9 -30q-83 -159 -158 -240q-105 -108 -183 -85q-85 28 -100 133
q-15 102 14 242q29 139 75 269q48 135 84 214q-14 -4 -39.5 -10.5t-35.5 -9.5q-89 -19 -133 -25q-70 -10 -122 -7q-7 -31 -21 -69q-48 -131 -86 -220q-44 -101 -89 -188q-11 -17 -30 -9q-19 12 -9 30q43 79 87 185q42 96 85 217q16 47 19 59q-88 21 -90 68q-3 46 31 77
q36 33 77 22q53 -16 35 -129q40 -1 107 8q44 6 129 25q51 11 110 30zM202 855q15 81 -8 84q-14 5 -31 -13q-20 -18 -18 -37q1 -23 57 -34z" />
    <glyph glyph-name="s" unicode="s" horiz-adv-x="366" 
d="M40 145q29 29 78 50q-8 25 -23 57q-40 83 -76 217q-37 137 -23 276q21 136 88 187t140 37q74 -13 111 -72q38 -60 1 -143q-4 -9 -13.5 -12.5t-18.5 -0.5q-20 11 -12 30q31 75 -3 100q-35 26 -89 2q-53 -24 -78 -97q-22 -93 0 -193q23 -97 62 -201q24 -67 45 -139
q32 15 75 44q43 30 61 62q12 19 30 9q21 -10 9 -30q-53 -71 -166 -125q-10 -133 -63 -172q-53 -38 -104 -26q-43 9 -57 48q-13 39 26 92zM134 147q-35 -8 -60 -37.5t-5 -50.5q11 -11 33 -1t33.5 32.5t-1.5 56.5z" />
    <glyph glyph-name="t" unicode="t" horiz-adv-x="398" 
d="M275 1218q11 27 35 38t51 1q26 -11 37 -35t2 -51q-3 -12 -18 -58q-8 -25 -18 -57q88 -7 178 12q21 5 27 -17q5 -20 -17 -26q-106 -23 -202 -13q0 -3 -1.5 -8t-2.5 -7q-8 -24 -12 -37q0 -2 -1 -4t-2 -5.5t-2 -5.5q-123 -400 -171 -621q-24 -109 -29 -191q-3 -74 29 -76
q50 8 118 98q68 91 122 194q13 20 30 9q19 -9 10 -30q-86 -160 -159 -240q-103 -106 -182 -85q-80 21 -95 130q-15 111 13 266q29 157 78 321q44 148 100 298q0 1 1.5 4.5t2.5 5.5q10 25 10 27q-12 8 -18 16q-41 42 -15 135q6 22 27 15q22 -7 15 -27q-19 -69 6 -94q2 0 2 -2
l11 26q32 77 40 94z" />
    <glyph glyph-name="u" unicode="u" horiz-adv-x="812" 
d="M156 99q16 -27 46 -33q91 -20 202 125q0 123 39 271q42 153 89 272q51 128 75 179q11 26 35 37t51 2q26 -11 37 -35t2 -51q-16 -52 -28 -88q-41 -122 -67 -205q-34 -109 -67 -239q-29 -116 -34 -198q-4 -78 35 -80q50 8 118 97q67 89 123 194q8 19 30 10q18 -11 9 -30
q-84 -161 -159 -240q-103 -109 -182 -86q-82 27 -98 123q-14 -16 -21 -23q-42 -46 -106.5 -74.5t-133 -21.5t-105.5 64q-26 40 -38 94q-32 149 17 363.5t132 388.5q11 27 35 37.5t51 1.5q26 -11 37 -35t2 -51q-7 -20 -22 -57q-17 -39 -30 -74q-26 -65 -61 -196
q-32 -125 -42 -248t29 -194z" />
    <glyph glyph-name="v" unicode="v" horiz-adv-x="725" 
d="M156 99q14 -23 31 -28.5t35 8t33 30t34.5 50t31 55.5t28.5 57q19 39 35 66q-4 38 -10 104q-17 201 24 359q20 62 52 99q57 61 122 55q65 -4 88 -87q13 -53 -20 -143q-51 -131 -149 -297q2 -19 3 -46q1 -52 10 -138q9 -74 33 -107t72 28q65 86 114 183q11 19 30 10
q20 -13 9 -30q-83 -159 -158 -240q-73 -75 -116 -50q-42 25 -65 98q-21 74 -30 136q-9 -43 -49 -124q-36 -73 -88 -116q-36 -27 -80 -28q-80 -5 -131 66q-25 38 -37 94q-34 149 15.5 363t132.5 389q11 27 35.5 37.5t51.5 1.5q26 -11 37 -35t1 -51q-5 -14 -21 -57
q-17 -39 -30 -74q-29 -72 -62 -196q-32 -125 -42 -248q-9 -123 30 -194zM507 761q-28 -109 -21 -253q74 130 113 231q28 75 17 119q-1 11 -8 21q-73 -12 -101 -118z" />
    <glyph glyph-name="w" unicode="w" horiz-adv-x="1073" 
d="M195 913q11 26 35.5 37t50.5 2q27 -11 38 -35t1 -51q-4 -17 -27 -83q-29 -83 -66 -204q-41 -134 -68 -242q-31 -122 -35 -200q-4 -79 35 -81q39 5 88 61q50 56 99 137q-4 164 45 345q49 178 116 316q10 27 34.5 37.5t51.5 1.5q26 -11 37 -35t2 -51q-1 -4 -4 -11.5
t-8.5 -20.5t-9.5 -25q-17 -39 -30 -74q-26 -65 -61 -196q-32 -125 -42 -248t29 -194q50 -79 136 65q18 30 58 108q21 43 34 65q-4 38 -10 104q-17 201 24 359q20 63 53 99q55 61 121 55q65 -4 88 -87q14 -55 -19 -143q-54 -134 -150 -297q2 -19 3 -46q1 -52 10 -138
q9 -74 33 -107t72 28q63 83 115 183q8 19 30 10q18 -11 9 -30q-85 -161 -159 -240q-73 -75 -116 -50q-42 25 -65 98q-22 77 -29 136q-10 -45 -50 -124q-36 -73 -88 -116q-36 -27 -80 -28q-80 -5 -131 66q-25 38 -37 94q0 1 -1 5t-1 5q0 2 -1 5t-1 4q-36 -55 -73 -95
q-104 -109 -182 -86q-74 21 -95.5 111.5t-3.5 200.5t59 242t74.5 215.5t61.5 142.5zM857 761q-28 -109 -21 -253q74 130 113 231q28 75 17 119q-1 9 -7 21q-74 -12 -102 -118z" />
    <glyph glyph-name="x" unicode="x" horiz-adv-x="967" 
d="M174 -12q-12 -18 -31 -6q-16 14 -5 31q125 177 287 402l-6 90q-7 120 -19 191.5t-39 101.5q-84 82 -215 -215q-24 -54 -66 -161q-25 -61 -28 -68l-6 -12q-3 -7 -7 -14q-11 -18 -30 -10q-18 11 -9 30q16 35 49 125q30 83 82 207q48 110 105 186t123 73q54 -5 96 -47
q43 -45 62.5 -123t27.5 -191q184 248 292 383q13 18 31 4q18 -13 4 -32q-132 -164 -296 -388q-5 -6 -14.5 -19t-11.5 -16q15 -235 60 -348q76 -191 212 -38q81 96 148 225q11 19 30 10q18 -12 10 -30q-86 -161 -159 -240q-46 -49 -110 -72.5t-128 -11.5q-89 22 -130 119
q-40 96 -51 224q-118 -164 -258 -360z" />
    <glyph glyph-name="y" unicode="y" horiz-adv-x="902" 
d="M324 -45q14 -1 43 -1q30 89 62 210q-22 -32 -52 -64q-42 -46 -106.5 -74.5t-133 -21.5t-105.5 64q-26 40 -38 94q-32 149 17 363.5t132 388.5q11 26 35 37t51 2q26 -11 37 -35t2 -51q-3 -8 -21 -53q-8 -19 -31 -78q-26 -65 -61 -196q-32 -125 -42 -248t29 -194
q16 -27 46 -33q56 -13 125.5 43t146.5 187q54 256 82 455l7 42q13 82 18 113q6 28 28 43t50 10q27 -6 42.5 -28.5t10.5 -49.5q-3 -19 -12 -73q-4 -22 -6 -35q0 -4 -1.5 -13.5t-2.5 -14.5q-22 -156 -61 -355q-38 -204 -107 -425q2 1 5 1q1 1 2 1t2 1q41 12 91 42
q100 62 172 152q68 89 121 191q8 19 30 10q17 -11 9 -30q-84 -160 -159 -240q-60 -65 -149 -121q-58 -34 -103 -47q-24 -6 -36 -8q-28 -80 -61.5 -147.5t-68.5 -116.5t-73 -88t-74 -60.5t-73 -35t-69 -11.5t-62 10q-80 31 -111 111q-31 77 -8 167q16 58 50.5 99.5t74.5 63
t96.5 33t102.5 14t107 0.5zM351 -91q-5 1 -14 1h-14q-4 0 -5 1q-140 6 -214 -16q-101 -36 -139 -110q-38 -76 -22 -145q15 -70 73 -92q57 -22 148 46q111 100 187 315z" />
    <glyph glyph-name="z" unicode="z" horiz-adv-x="944" 
d="M436 335q167 -147 121 -370h1q2 0 6 2q43 12 92 42q99 63 171 152q68 89 121 191q8 19 30 10q17 -11 9 -30q-84 -160 -159 -240q-60 -65 -149 -121q-58 -34 -103 -47q-22 -6 -33 -8q-23 -98 -73 -200q-51 -106 -135 -181q-83 -75 -205 -80q-117 5 -166 93q-51 89 -23 197
q16 58 50 99.5t74 63t96 33t102.5 14t107.5 0.5q15 -1 48 -1q1 1 1 3q0 1 1 2t1 2q20 71 12 153q-7 83 -67 129q-58 -75 -101 -126q-10 -11 -23 -30q-18 -22 -44 -25.5t-50 13.5q-22 17 -25.5 43.5t12.5 49.5l25 31q3 3 10 11.5t11 14.5q14 16 55 69q31 39 58 75t62 84
t62 90t53.5 87.5t40.5 82t19.5 68t-6.5 51.5t-40 26q-107 20 -181 -42q-74 -60 -125 -158q-48 -95 -84 -190q-15 -37 -37 -88q-1 -2 -2 -5t-2 -4q-1 -4 -4 -9t-4 -8l-6 -12q-3 -7 -7 -14q-12 -18 -30 -10q-19 11 -10 30q3 7 12 25q6 12 9 17q1 1 2 4t2 5q17 39 39 92
q10 21 17 40q50 128 115 232q67 105 196 167q120 54 202 25q94 -34 77 -166q-24 -169 -229 -454zM398 -91q-5 1 -14 1h-15q-3 0 -4 1q-140 6 -214 -16q-102 -36 -140 -110q-37 -75 -21 -145q15 -70 73 -92q57 -22 148 46q102 85 187 315z" />
    <glyph glyph-name="braceleft" unicode="{" horiz-adv-x="566" 
d="M456 1373q7 0 10 -1v-101h-9l-93 -1q-4 -194 -39 -348t-99 -216q54 -86 60 -189q6 -104 -3 -221q-4 -42 -5 -94q0 -16 -0.5 -48t-1.5 -45q64 0 105 -1h85v-113q-51 0 -104 1q-103 0 -151 1l-60 1l-5 79q-6 124 3 232q11 114 -3 206q-13 93 -103 149l-4 3q-23 17 -32 48
q-1 2 -1 6q-6 26 2 54q1 2 1 5q1 1 1 2t0.5 1.5t0.5 1.5q14 31 37 41l2 1l2 1h1q11 5 23 3q161 -12 155 453l-1 88z" />
    <glyph glyph-name="bar" unicode="|" horiz-adv-x="227" 
d="M8 -3l-8 1374l118 1l8 -1375h-118z" />
    <glyph glyph-name="braceright" unicode="}" horiz-adv-x="566" 
d="M10 1373l226 -1l-1 -88q-6 -465 156 -453q11 2 22 -3q1 0 2.5 -0.5t2.5 -1.5q23 -10 37 -41q0 -1 1.5 -4.5t1.5 -5.5q8 -27 3 -54q-1 -1 -1 -3q-1 -1 -1 -3q-7 -31 -32 -48l-4 -3q-88 -55 -103 -149q-14 -92 -3 -206q10 -104 4 -232l-6 -79l-60 -1q-48 -1 -151 -1
q-53 -1 -104 -1v113h85q41 1 105 1q-2 35 -3 93q-2 61 -3 94q-10 114 -4 221q8 103 60 189q-66 63 -100 216q-33 150 -38 348l-92 1h-10v101q3 1 10 1z" />
    <glyph glyph-name="asciitilde" unicode="~" horiz-adv-x="715" 
d="M75 606q-12 -14 -28.5 -15t-30.5 10q-13 12 -14.5 29t9.5 31q35 40 74.5 62.5t71 29.5t74 1.5t67 -13t67.5 -22.5q54 -22 98 -22q43 1 67 64q6 17 21.5 24t32.5 2q17 -7 24 -22.5t2 -32.5q-11 -31 -23.5 -54t-28.5 -37t-29.5 -23t-34.5 -10t-34.5 -1.5t-39.5 6.5
t-39.5 11.5l-43.5 14.5q-39 15 -66 21.5t-63 8.5t-69.5 -14t-63.5 -49z" />
    <glyph glyph-name="exclamdown" unicode="&#xa1;" horiz-adv-x="361" 
d="M188 91q-4 -36 -37 -61q-31 -22 -69 -21q-36 5 -59 31.5t-21 62.5l125 1083h122zM251 1246l-121 12l10 110l121 -11z" />
    <glyph glyph-name="plusminus" unicode="&#xb1;" horiz-adv-x="567" 
d="M0 771h202v201h63v-201h202v-64h-202v-202h-63v202h-202v64zM0 447h467v-64h-467v64z" />
    <glyph glyph-name="questiondown" unicode="&#xbf;" horiz-adv-x="847" 
d="M730 1162q-5 -54 -19.5 -104t-32 -89t-47.5 -79t-54 -66.5t-63.5 -60t-63 -52t-65.5 -49.5q-87 -60 -151 -126q-63 -66 -70 -148q-2 -45 10 -82q14 -40 39 -72q74 -80 177 -80q105 0 187 76q83 77 90 223l80 -1q-2 -92 -34.5 -175t-84 -142t-120 -94.5t-139.5 -40.5
t-145 28t-133 103q-47 55 -69 126q-23 68 -18 142q9 155 144 278q48 40 95 76q111 84 219 186q109 105 161 223h107zM632 1349l91 2q6 -36 8 -82h-98q5 41 -1 80z" />
    <glyph glyph-name="Agrave" unicode="&#xc0;" 
d="M1465 319l1 2q5 20 25 18q23 -7 18 -27v-1q-30 -144 -76 -219q-39 -67 -102 -86t-122 17.5t-85 120.5q-31 114 -32 237q-2 130 4 193q-79 -14 -176 25q-39 17 -86 25q-1 -5 -5 -16.5t-5 -17.5q-21 -71 -30.5 -104t-29.5 -99t-32 -99.5t-32 -90t-35.5 -88t-37.5 -76.5
t-42.5 -72.5t-45 -57.5t-51.5 -51t-56 -35q-125 -59 -218 -44q-81 13 -132 63q-51 51 -66 123q-16 83 23 175q10 20 16 30q12 20 18 29q14 16 31 5q18 -13 5 -31q-5 -9 -15 -25q-12 -22 -14 -26q-34 -76 -20 -148q12 -59 53 -100q40 -40 106 -51q80 -13 194 40
q33 16 62.5 41.5t56.5 64t49 75t45.5 94t39.5 100t39 115t36 116t36 124.5q2 6 5.5 18t4.5 18q-62 -6 -161 -75q-19 -12 -31 5q-11 17 5 31q124 87 201 87q2 9 11 38q2 9 11 38q0 2 1.5 8t2.5 9q58 202 101 330q44 121 94 178q82 94 155 72t96 -150q10 -63 2 -162
q-5 -63 -15 -143q0 -3 -1 -8t-1 -7q-1 -15 -5 -45q-7 -66 -15 -138q26 18 40 29q16 14 31 -3q12 -18 -4 -32q-36 -28 -71 -51q0 -2 -1.5 -16.5t-2.5 -23.5q-9 -92 -13 -182q-4 -105 14 -199q18 -92 77 -121q46 -16 90 45q45 63 67 182zM1099 621q8 108 25 251q0 3 1 9t1 9
q12 103 17 152q5 58 -3 135.5t-38 90.5q-18 9 -47 -24q-44 -53 -85 -165q-52 -150 -105 -344q-12 -44 -19 -67q47 -7 91 -27q84 -37 162 -20zM1074 1546q-1 11 15.5 19t37.5 11t39 -0.5t20 -14.5q7 -67 0 -111t-22.5 -54t-33 0t-33.5 51t-23 99z" />
    <glyph glyph-name="Aacute" unicode="&#xc1;" 
d="M1465 319l1 2q5 20 26 18q22 -7 17 -27v-1q-28 -140 -76 -219q-39 -67 -102 -86t-122 17.5t-85 120.5q-31 114 -32 237q-2 130 4 193q-79 -14 -175 25q-39 17 -87 25q-1 -5 -5 -16.5t-5 -17.5q-21 -71 -30.5 -104t-29.5 -99t-32 -99.5t-32 -90t-35.5 -88t-37.5 -76.5
t-42.5 -72.5t-45 -57.5t-51.5 -51t-56 -35q-125 -59 -218 -44q-81 13 -132 63q-52 52 -65 123q-17 85 23 175l15 30q6 13 19 29q13 17 31 5q16 -14 5 -31q-6 -9 -16 -25q-12 -22 -14 -26q-34 -76 -20 -148q12 -59 53 -100q40 -40 107 -51q79 -13 193 40q33 16 62.5 41.5
t56.5 64t49 75t45.5 94t39.5 100t39 115t36 116t36 124.5q2 6 5.5 18t4.5 18q-62 -6 -161 -75q-7 -5 -16 -4t-15 9q-12 18 6 31q125 87 200 87q9 29 11 38t11 38q0 2 1.5 8t2.5 9q58 202 101 330q43 118 94 178q82 94 155 72t96 -150q10 -63 2 -162q-4 -58 -17 -158
q-1 -15 -5 -45q-7 -66 -15 -138q26 18 40 29q16 14 31 -3q13 -17 -4 -32q-36 -28 -71 -51q0 -2 -1.5 -16.5t-2.5 -23.5q-9 -92 -13 -182q-4 -105 14 -199q18 -93 78 -121q46 -16 89 45q45 63 67 182zM1099 621q8 108 25 251q0 3 1 9t1 9q12 103 17 152q0 28 1.5 74
t-9.5 94.5t-33 57.5q-18 9 -46 -24q-45 -52 -86 -165q-48 -140 -100 -328q0 -3 -2 -8t-2 -8q-3 -12 -20 -67q47 -7 91 -27q84 -37 162 -20zM1246 1546q-10 -97 -43 -139t-57 1t-12 153q2 14 30.5 16t56 -7.5t25.5 -23.5z" />
    <glyph glyph-name="Acircumflex" unicode="&#xc2;" 
d="M1465 319l1 2q5 20 26 18q20 -7 18 -27l-1 -1q-28 -140 -76 -219q-39 -67 -102 -86t-122 17.5t-85 120.5q-31 114 -32 237q-1 113 4 193q-79 -14 -175 25q-39 17 -87 25q-8 -24 -11 -37q-24 -84 -37.5 -129.5t-37 -121t-40.5 -120t-42.5 -106t-49 -100t-53 -79.5
t-62.5 -68.5t-69 -45.5q-125 -59 -218 -44q-81 13 -132 63q-52 52 -65 123q-17 85 23 175q10 20 16 30q8 16 18 29q13 17 31 5q17 -12 5 -31q-6 -9 -16 -25q-12 -22 -14 -26q-33 -79 -20 -148q12 -59 53 -100q40 -40 107 -51q81 -13 193 40q33 16 62.5 41.5t56.5 64t49 75
t45.5 94t39.5 100t39 115t36 116t36 124.5q3 12 11 36q-64 -6 -161 -75q-20 -13 -31 5q-12 19 5 31q125 87 200 87q4 13 11 38t11 38q1 3 2.5 8t1.5 7q53 188 102 332q44 120 93 178q82 94 156 72q74 -23 95 -150q10 -63 2 -162q-3 -44 -16 -158q0 -5 -1.5 -17t-2.5 -18
q-7 -56 -16 -148q2 2 16.5 12.5t22.5 16.5q17 13 31 -3q14 -19 -4 -32q-36 -28 -71 -51q0 -3 -1.5 -16.5l-2.5 -22.5q-9 -92 -13 -183q-4 -105 14 -199q20 -93 78 -121q47 -16 90 45t66 182zM1099 621q8 108 25 251q0 3 1 9t1 9q12 103 17 152q0 28 1.5 74t-9.5 94.5
t-33 57.5q-18 9 -46 -24q-46 -55 -86 -165q-50 -147 -99 -328q-4 -9 -5 -16q-8 -27 -19 -67q47 -8 90 -27q87 -37 162 -20zM1032 1419l80 231h68l82 -235l-68 -14l-48 138l-46 -134z" />
    <glyph glyph-name="Atilde" unicode="&#xc3;" 
d="M1466 319v2q5 20 26 18q20 -7 18 -27v-1q-30 -141 -77 -219q-38 -67 -101.5 -86t-123 17.5t-84.5 120.5q-31 114 -32 237q-1 113 4 193q-79 -14 -175 25q-39 17 -86 25l-12 -39q-92 -316 -144 -442q-107 -257 -247 -326q-125 -59 -218 -44q-81 13 -132 63q-52 52 -65 123
q-17 85 23 175q10 20 16 30q8 16 18 29q14 16 31 5q17 -12 5 -31q-6 -9 -16 -25q-7 -13 -13 -26q-34 -76 -20 -148q11 -59 53 -100q41 -41 106 -51q81 -13 193 40q33 16 62.5 41.5t56.5 64.5t48.5 74t45.5 94t39.5 99.5t38.5 114.5t35.5 115t36.5 124l12 39q-64 -6 -161 -75
q-19 -12 -31 5q-12 19 5 31q125 87 200 87q6 18 22 76q1 3 2.5 8t1.5 7q53 188 102 332q44 120 93 178q82 94 156 72q74 -23 95 -150q11 -68 3 -162q-5 -63 -15 -143q-1 -3 -1 -8t-1 -7q-13 -102 -20 -183q17 11 33 24q4 4 6 5q18 13 32 -3q12 -18 -4 -32q-39 -30 -72 -51
q-3 -28 -4 -39q-9 -92 -13 -183q-4 -105 14 -199q20 -93 78 -121q47 -16 90 45q45 63 67 182zM1099 621q8 108 25 251l3 18q0 8 1 12q10 79 15 140q0 28 1.5 74t-9.5 94.5t-33 57.5q-18 9 -46 -24q-46 -55 -86 -165q-50 -147 -99 -328q-4 -9 -5 -16q-12 -44 -19 -67
q47 -8 90 -27q87 -37 162 -20zM1023 1468q-17 -17 -37 -1q-18 19 0 37q58 58 114 53q54 -4 105 -29q32 -19 59.5 -17t43.5 37q12 22 34 14q24 -11 15 -34q-31 -72 -76 -74q-42 0 -96 26q-36 17 -80 22q-42 5 -82 -34z" />
    <glyph glyph-name="Adieresis" unicode="&#xc4;" horiz-adv-x="1610" 
d="M1465 319v2q5 20 26 18q20 -7 18 -27v-1q-30 -141 -77 -219q-38 -67 -101.5 -86t-122.5 17.5t-84 120.5q-31 114 -32 237q-2 130 4 193q-80 -14 -176 25q-39 17 -86 25q-1 -5 -5 -16.5t-5 -17.5q-21 -71 -30.5 -104t-29.5 -99t-32 -99.5t-32 -90t-35.5 -88t-37.5 -76.5
t-42.5 -72.5t-45 -57.5t-51.5 -51t-56 -35q-125 -59 -219 -44q-80 14 -131 63q-51 51 -66 123q-16 83 23 175q10 20 16 30q8 16 18 29q14 16 31 5q18 -13 5 -31q-3 -5 -9 -14t-7 -11q-7 -13 -13 -26q-34 -76 -20 -148q12 -59 53 -100t106 -51q81 -13 193 40q37 18 72 52.5
t61.5 71t55.5 99t48 108t45.5 128.5t41 131t41.5 143q1 6 4.5 17t5.5 16q-64 -6 -161 -75q-19 -12 -31 5q-12 19 5 31q124 87 200 87q2 7 6 19t6 19q2 9 11 38q53 196 105 347q44 120 93 178q83 94 156 72t96 -150q10 -63 2 -162q-5 -63 -15 -143q0 -3 -1 -8t-1 -7
q-2 -19 -20 -183q16 11 33 24q4 4 6 5q18 13 32 -3q12 -18 -4 -32q-37 -30 -72 -51q-3 -28 -4 -39q-9 -92 -13 -183q-4 -105 14 -199q20 -93 78 -121q46 -16 90 45q45 63 67 182zM1098 621q13 156 28 269q0 8 1 12q10 79 15 140q5 60 -2 136.5t-38 89.5q-19 9 -47 -24
q-44 -53 -85 -165q-52 -150 -105 -344q-12 -44 -19 -67q48 -8 90 -27q87 -37 162 -20zM1025 1565h122v-123h-122v123zM1174 1565h123v-123h-123v123z" />
    <glyph glyph-name="Aring" unicode="&#xc5;" 
d="M1465 319v2q7 20 26 18q23 -7 18 -27v-1q-30 -141 -77 -219q-38 -67 -101.5 -86t-122.5 17.5t-84 120.5q-31 114 -32 237q-2 130 4 193q-79 -14 -175 25q-39 17 -87 25q-1 -5 -5 -16.5t-5 -17.5q-21 -71 -30.5 -104t-29.5 -99t-32 -99.5t-32 -90t-35.5 -88t-37.5 -76.5
t-42.5 -72.5t-45 -57.5t-51.5 -51t-56 -35q-125 -59 -218 -44q-81 13 -132 63q-51 51 -66 123q-16 84 24 175q6 15 15 30q8 16 18 29q15 17 31 5q18 -13 6 -31q-2 -3 -8 -11.5t-9 -13.5q-7 -13 -13 -26q-34 -76 -20 -148q12 -59 53 -100q40 -40 107 -51q79 -13 193 40
q37 18 71.5 52t61.5 72t55.5 98.5t48 108.5t45.5 128t41 131.5t41 142.5q1 6 4.5 17t5.5 16q-62 -6 -161 -75q-7 -5 -16 -4t-15 9q-11 17 5 31q124 87 201 87q2 9 11 38q2 9 11 38q53 196 105 347q44 120 93 178q83 94 156 72t96 -150q10 -63 2 -162q-5 -63 -15 -143
q0 -3 -1 -8t-1 -7q-2 -19 -20 -183q26 18 40 29q16 14 31 -3q12 -18 -4 -32q-37 -30 -72 -51q-1 -16 -3 -39q-8 -69 -13 -183q-4 -105 14 -199q18 -92 77 -121q46 -16 90 45q45 63 67 182zM1099 621q11 145 27 269q1 4 1 12q10 79 15 140q0 28 1.5 74t-9 94.5t-32.5 57.5
q-19 9 -47 -24q-44 -53 -85 -165q-52 -150 -105 -344q-12 -44 -19 -67q47 -7 91 -27q84 -37 162 -20zM1151 1641q47 0 80 -33t33 -80t-33 -80t-80 -33q-45 0 -80 33q-33 33 -33 80t33 80q35 33 80 33zM1151 1599q-30 0 -50.5 -21t-20.5 -50q0 -30 20.5 -50.5t50.5 -20.5
t50.5 20.5t20.5 50.5q0 29 -20.5 50t-50.5 21z" />
    <glyph glyph-name="AE" unicode="&#xc6;" horiz-adv-x="1971" 
d="M1618 861q19 8 29 -8q11 -15 -7 -29q-49 -27 -89 -35q-81 -16 -152 -52q-55 -31 -95 -90.5t-58 -128.5t-18 -141t20 -129q22 -63 68 -105.5t102 -58.5t117.5 -8.5t114 37t92.5 86t53 130.5q18 97 -33 173q-45 66 -160 92q-19 5 -17 24q6 19 25 17q131 -29 185 -108
q63 -92 42 -205q-35 -177 -170 -266q-134 -89 -308 -54q-139 34 -197 125q-58 90 -67 211q-8 122 1 236q-79 -14 -175 25q-39 17 -87 25q-1 -5 -5 -16.5t-5 -17.5q-21 -71 -30.5 -104t-29.5 -99t-32 -99.5t-32 -90t-35.5 -88t-37.5 -76.5t-42.5 -72.5t-45 -57.5t-51.5 -51
t-56 -35q-125 -59 -218 -44q-81 13 -132 63q-52 52 -65 123q-17 85 23 175l15 30q12 20 18 29q15 17 31 5q18 -13 6 -31q-2 -3 -8 -11.5t-9 -13.5q-7 -13 -13 -26q-34 -76 -20 -148q12 -59 53 -100q40 -40 107 -51q79 -13 193 40q33 16 62.5 41.5t56.5 64t49 75t45.5 94
t39.5 100t39 115t36 116t36 124.5q3 12 11 36q-64 -6 -161 -75q-19 -12 -32 5q-12 18 6 31q123 87 200 87q2 9 11 38q2 9 11 38q53 196 105 347q44 121 94 178q82 94 155 72t96 -150q7 -45 5 -121q26 97 101 171t170.5 98t198.5 -12q83 -31 109 -127q13 -60 -6 -121
t-64 -104q-83 -79 -195 -24q-17 10 -9 28t29 9q85 -42 147 18q36 36 52 85q15 52 5 100q-19 76 -84 88q-64 13 -129 -11q-100 -37 -150 -127q-50 -89 -50 -177q2 -89 54 -128q55 -39 161 22zM1240 702q63 59 125 83q-87 67 -98 168q-1 -27 -6 -57q-1 -3 -1 -10.5t-1 -11.5
q-9 -67 -19 -172zM1099 621q11 145 27 269q4 25 5 40q3 29 11 112q1 28 2.5 74t-9.5 94.5t-33 57.5q-18 9 -47 -24q-44 -53 -85 -165q-50 -149 -105 -344q-12 -44 -19 -67q49 -7 91 -27q84 -37 162 -20z" />
    <glyph glyph-name="Egrave" unicode="&#xc8;" horiz-adv-x="896" 
d="M545 861q16 10 29 -7q8 -17 -7 -29q-47 -27 -89 -36q-87 -17 -153 -52q-55 -30 -95 -89.5t-57.5 -128.5t-17.5 -141t19 -129q22 -63 68.5 -105.5t102.5 -58.5t117.5 -8.5t114 37t92.5 86t53 130.5q18 97 -34 173q-46 67 -159 91q-19 5 -17 25q6 21 25 16
q130 -28 185 -107q63 -92 42 -206q-36 -177 -170 -266q-132 -88 -308 -53q-149 36 -218 160q-68 126 -40 298q24 116 101 203q79 86 162 122q-100 78 -99 196q1 120 73 216q72 94 182 135q111 41 228 -3q83 -31 109 -126q12 -62 -7 -122q-19 -61 -63 -103q-82 -81 -195 -25
q-17 11 -9 29q12 16 28 9q86 -42 148 17q36 35 51 85q17 51 6 101q-19 75 -84 87q-62 13 -130 -10q-99 -37 -149 -127q-50 -89 -50 -177q2 -89 54 -128q54 -39 161 21zM461 1546q-1 11 15.5 19t37 11t38.5 -0.5t20 -14.5q13 -110 -10.5 -153t-57 -1t-43.5 139z" />
    <glyph glyph-name="Eacute" unicode="&#xc9;" horiz-adv-x="896" 
d="M545 861q16 10 29 -7q8 -17 -7 -29q-47 -27 -89 -36q-87 -17 -153 -52q-54 -30 -94 -89.5t-58 -128.5t-18 -141t19 -129q22 -63 68.5 -105.5t102.5 -58.5t117.5 -8.5t114 37t92.5 86t53 130.5q18 97 -34 173q-46 67 -159 91q-19 5 -17 25q6 21 25 16q130 -28 185 -107
q63 -92 41 -206q-34 -177 -169 -266q-132 -88 -308 -53q-149 36 -218 160q-68 126 -40 298q24 116 101 203q79 86 162 122q-100 78 -99 196q1 120 73 216q72 94 182 135q111 41 228 -3q83 -31 109 -126q12 -62 -7 -122q-19 -61 -63 -103q-82 -81 -195 -25q-17 11 -9 29
q10 17 28 9q86 -42 148 17q36 35 51 85q17 51 6 101q-19 75 -84 87q-62 13 -130 -10q-99 -37 -149 -127q-50 -89 -50 -177q2 -89 54 -128q54 -39 161 21zM629 1546q-7 -58 -23 -99t-33.5 -51t-33 0t-22.5 54t0 111q2 11 20 14.5t39 0.5t37.5 -11t15.5 -19z" />
    <glyph glyph-name="Ecircumflex" unicode="&#xca;" horiz-adv-x="896" 
d="M545 861q16 10 29 -7q8 -17 -7 -29q-47 -27 -89 -36q-87 -17 -153 -52q-54 -30 -94 -89.5t-58 -128.5t-18 -141t19 -129q22 -63 68.5 -105.5t102.5 -58.5t117.5 -8.5t114 37t92.5 86t53 130.5q18 97 -34 173q-46 67 -159 91q-19 5 -17 25q6 21 25 16q130 -28 185 -107
q63 -92 42 -206q-36 -177 -170 -266q-132 -88 -308 -53q-149 36 -218 160q-68 126 -40 298q24 116 101 203q79 86 162 122q-100 77 -98 196q1 122 72 216q72 94 182 135q111 41 228 -3q83 -31 109 -126q12 -62 -7 -122q-19 -61 -63 -103q-82 -81 -195 -25q-17 11 -9 29
q10 17 28 9q86 -42 148 17q35 35 51 85q17 51 6 101q-19 75 -84 87q-62 13 -130 -10q-99 -37 -149 -127q-50 -89 -50 -177q2 -89 54 -128q54 -39 161 21zM410 1419l81 231h67l82 -235l-67 -14l-48 138l-47 -134z" />
    <glyph glyph-name="Edieresis" unicode="&#xcb;" horiz-adv-x="896" 
d="M545 861q16 10 29 -7q8 -17 -7 -29q-47 -27 -89 -36q-87 -17 -153 -52q-55 -30 -95 -89.5t-57.5 -128.5t-17.5 -141t19 -129q22 -63 68.5 -105.5t102.5 -58.5t117.5 -8.5t114 37t92.5 86t53 130.5q19 95 -34 173q-46 67 -159 91q-19 5 -17 25q6 21 25 16
q130 -28 185 -107q63 -92 42 -206q-36 -177 -170 -266q-132 -88 -308 -53q-149 36 -218 160q-68 126 -40 298q24 116 101 203q79 86 162 122q-100 77 -98 196q1 122 72 216q72 94 182 135q109 41 228 -3q83 -31 109 -126q12 -62 -7 -122q-19 -61 -63 -103q-82 -81 -195 -25
q-17 11 -9 29q10 17 28 9q86 -42 148 17q35 35 51 85q17 51 6 101q-19 75 -84 87q-62 13 -130 -10q-99 -37 -149 -127q-50 -89 -50 -177q2 -89 54 -128q54 -39 161 21zM418 1565h123v-123h-123v123zM568 1565h123v-123h-123v123z" />
    <glyph glyph-name="Igrave" unicode="&#xcc;" horiz-adv-x="813" 
d="M294 101q55 70 84 191q30 121 45 235q3 18 7.5 53t6.5 49q21 169 54 356q35 185 94 335q-77 12 -150 3q-109 -12 -181 -64q-81 -65 -82 -154q-2 -45 15 -84q18 -40 47 -61q42 -33 110 -16q35 11 55 41q10 14 13 34q3 17 -2 38q-9 37 -58 71q-16 10 -7 30q13 18 31 6
q64 -44 77 -95q7 -29 3 -57q-4 -27 -20 -52q-28 -42 -80 -59q-91 -23 -149 23q-40 30 -61 79q-20 52 -19 104q5 119 101 188q86 60 202 73q97 11 193 -10q24 10 51 -1q33 -17 39 -51q-38 -106 -81 -402q-15 -100 -24.5 -157.5t-27.5 -152.5t-36 -157.5t-42.5 -134.5
t-56 -125t-68.5 -90q-55 -54 -140 -76t-157 6q-38 17 -59 47q-21 31 -19 70q2 56 57 113q16 15 32 -1q14 -16 -1 -31q-42 -42 -44 -83q-1 -24 12 -43q14 -21 39 -31q47 -19 105 -7q57 12 92 50zM570 1546q-1 11 15.5 19t37 11t38.5 -0.5t20 -14.5q12 -110 -11.5 -153
t-56.5 -1t-43 139z" />
    <glyph glyph-name="Iacute" unicode="&#xcd;" horiz-adv-x="837" 
d="M294 101q55 70 84 191q31 124 44 235q3 18 8 55t6 44q21 172 54 357q36 191 95 337q-77 12 -150 3q-108 -12 -182 -64q-80 -65 -81 -154q-2 -45 15 -84q17 -40 46 -61q43 -32 110 -16q35 10 55 41q11 16 14 34q3 17 -2 38q-10 37 -58 71q-19 12 -7 30t31 6q63 -43 76 -95
q9 -27 4 -57q-4 -28 -21 -52q-28 -43 -80 -59q-90 -23 -148 23q-40 30 -61 79q-20 52 -19 104q5 118 100 188q86 60 203 73q97 11 193 -10q23 10 50 -1q34 -16 40 -51q-37 -103 -82 -403q-16 -104 -24.5 -158t-27 -151.5t-36 -158t-42 -133.5t-56 -125.5t-68.5 -89.5
q-55 -53 -141 -76q-84 -22 -157 6q-36 16 -58 47q-21 32 -20 70q1 55 58 113q16 14 31 -1t0 -31q-42 -42 -44 -83q-1 -23 11 -43q14 -20 40 -31q46 -19 105 -7q57 12 92 50zM736 1546q-11 -97 -44 -139t-56.5 1t-11.5 153q2 11 20 14.5t39 0.5t37.5 -11t15.5 -19z" />
    <glyph glyph-name="Icircumflex" unicode="&#xce;" horiz-adv-x="830" 
d="M295 101q55 71 83 191q30 121 45 235q3 18 7.5 53t6.5 49q21 169 54 356q35 187 95 335q-77 12 -151 3q-109 -12 -181 -64q-81 -65 -82 -154q-2 -45 15 -84q18 -40 47 -61q43 -32 110 -16q35 11 55 41q9 13 14 34q3 18 -3 38q-9 37 -58 71q-18 11 -6 30q11 18 30 6
q64 -44 77 -95q7 -29 3 -57q-4 -27 -20 -52q-28 -42 -80 -59q-91 -23 -149 23q-40 30 -61 79q-19 49 -18 104q5 120 100 188q86 60 202 73q97 11 193 -10q24 10 51 -1q32 -16 40 -51q-38 -101 -82 -403q-15 -100 -24.5 -157.5t-27.5 -152t-36 -157.5t-42.5 -134.5
t-56 -124.5t-68.5 -90q-55 -54 -140 -76t-157 6q-38 17 -58 47q-22 30 -20 70q2 56 57 113q16 15 32 -1q14 -16 -1 -31q-42 -42 -44 -83q-1 -24 12 -43q14 -21 39 -31q47 -19 105 -7t93 50zM500 1419l80 231h68l82 -235l-68 -14l-48 138l-46 -134z" />
    <glyph glyph-name="Idieresis" unicode="&#xcf;" horiz-adv-x="866" 
d="M294 101q55 70 84 191q31 124 44 235q3 18 7.5 53t6.5 49q23 179 55 356q33 185 94 335q-77 12 -150 3q-109 -12 -181 -64q-82 -65 -83 -154q-1 -43 16 -84q17 -40 46 -61q43 -32 110 -16q35 10 55 41q11 16 14 34q3 17 -2 38q-10 37 -59 71q-17 13 -6 30q13 18 31 6
q63 -43 76 -95q9 -27 4 -57q-4 -27 -20 -52q-28 -42 -80 -59q-91 -23 -149 23q-40 30 -61 79q-20 52 -19 104q5 119 101 188q86 60 201 73q98 11 194 -10q23 10 51 -1q33 -17 39 -51q-37 -103 -82 -403q-16 -104 -24.5 -158t-27 -151.5t-36 -158t-42 -133.5t-56 -125.5
t-68.5 -89.5q-55 -54 -140 -76t-158 6q-38 17 -58 47q-21 32 -20 70q1 55 58 113q17 15 31 -1q16 -16 0 -31q-44 -44 -44 -83q-1 -24 12 -43q14 -21 39 -31q46 -19 105 -7q57 12 92 50zM493 1565h123v-123h-123v123zM643 1565h123v-123h-123v123z" />
    <glyph glyph-name="Ntilde" unicode="&#xd1;" horiz-adv-x="1546" 
d="M294 93q55 70 84 191q31 124 44 235q3 19 7.5 55.5t6.5 47.5q25 193 56 359q35 190 95 337q13 24 37 32.5t49 -1.5q34 -15 40 -50q-25 -70 -40 -156q25 -324 84 -555q59 -234 112 -360l4 43q4 39 9 98q8 108 17.5 191t27.5 202t48.5 219.5t71.5 171.5q37 64 91 104.5
t115 44.5q99 -3 146 -81q47 -77 29 -175t-110 -163q-19 -11 -31 8q-10 21 9 30q68 43 81 123q13 78 -19 143q-31 62 -97 55q-67 -17 -105 -124q-64 -204 -102 -468q-35 -243 -47 -380q-1 -5 -1 -12q0 -2 -1 -8t-1 -8q-10 -117 -22 -185q-5 -28 -27 -43.5t-50 -10.5t-43 27
t-11 50q2 10 8 57q-46 96 -111 310q-63 207 -104 528q-9 -58 -13 -80q-16 -103 -25 -158t-26.5 -151.5t-35.5 -157.5t-42.5 -133.5t-56 -125.5t-68.5 -90q-55 -53 -141 -76q-84 -22 -157 6q-36 16 -58 47q-21 32 -20 70q1 55 58 113q16 14 31 0q16 -16 0 -32
q-42 -43 -44 -83q-1 -24 12 -43q14 -21 39 -31q46 -19 105 -7q57 12 92 50zM783 1468q-17 -17 -37 -1q-17 20 0 37q58 58 114 53q54 -4 105 -29q32 -19 60.5 -17t42.5 37q12 22 35 14q22 -12 14 -34q-31 -72 -76 -74q-41 0 -95 26h-2q-36 17 -79 22q-42 5 -82 -34z" />
    <glyph glyph-name="Ograve" unicode="&#xd2;" horiz-adv-x="1205" 
d="M458 9q-19 -4 -41 -6q-155 -11 -251 84q-95 95 -131 253q-35 159 -12 338q22 179 104 338q84 160 221 253q61 39 130.5 62t147 16.5t129.5 -54.5q46 -43 61 -114q7 -33 5 -79q0 -11 -1 -17q104 -29 134 -188q16 -85 5 -198q-10 -109 -45 -220q-33 -102 -80 -186
q81 -1 125 52q43 53 75 123q4 9 12 25q14 27 40 13q11 -6 15 -18t-2 -24q-49 -110 -114 -174q-65 -65 -188 -56q-138 -202 -339 -223zM420 70q190 0 323 191q-18 16 -27 25q-44 34 -78 93t-51 111q-28 93 -23 221q6 125 39 219q39 115 127 151q27 9 53 8h3h3q4 42 -4 83
q-15 69 -84 86q-42 10 -90.5 -11t-92 -62.5t-77 -83t-58.5 -82.5q-114 -184 -151 -403q-37 -220 34 -406q55 -123 154 -140zM776 313q49 84 81 184q34 103 43 206q9 99 -5 180q-12 66 -41 103.5t-73 39.5q-16 0 -33 -5q-59 -24 -89 -113q-29 -86 -35 -199q-5 -117 20 -199
q19 -62 57 -115q29 -41 75 -82zM514 1546q-2 14 25.5 23.5t56 7.5t30.5 -16q12 -110 -12 -153t-57 -1t-43 139z" />
    <glyph glyph-name="Oacute" unicode="&#xd3;" horiz-adv-x="1203" 
d="M458 9q-19 -4 -41 -6q-155 -11 -251 84q-95 95 -131 253q-35 159 -12 338q22 179 104 338q83 159 222 253q60 39 129.5 62t147 16.5t128.5 -54.5q47 -44 62 -114q7 -33 5 -79v-8q0 -6 -1 -9q106 -34 133 -188q17 -89 6 -198q-11 -111 -46 -220q-33 -102 -80 -186
q82 -1 126 52q45 54 74 123q5 9 13 25q14 27 40 13q25 -14 13 -42q-49 -110 -114 -174q-65 -65 -188 -56q-138 -202 -339 -223zM420 70q188 0 323 191q-17 13 -27 25q-44 34 -78 93t-51 111q-29 98 -23 221q6 125 39 219q37 114 127 151q25 9 53 8h3h3q4 46 -3 83
q-16 70 -85 86q-42 10 -90.5 -11t-92 -62.5t-77 -83t-58.5 -82.5q-114 -184 -151 -403q-37 -220 34 -406q55 -123 154 -140zM777 313q47 80 80 184q32 102 43 206q9 99 -5 180q-12 66 -41 103.5t-73 39.5q-16 0 -33 -5q-59 -24 -89 -113q-29 -86 -35 -199q-6 -115 19 -199
q18 -60 58 -115q30 -42 76 -82zM676 1546q-10 -97 -43 -139t-57 1t-12 153q2 14 30.5 16t56 -7.5t25.5 -23.5z" />
    <glyph glyph-name="Ocircumflex" unicode="&#xd4;" horiz-adv-x="1203" 
d="M458 9q-19 -4 -41 -6q-155 -11 -251 84q-95 95 -131 253q-35 159 -12 338q22 179 104 338q83 159 222 253q60 39 129.5 62t147 16.5t128.5 -54.5q48 -45 61 -114q7 -37 6 -79v-9q-1 -2 -1 -8q105 -34 134 -188q16 -89 6 -198q-10 -107 -47 -220q-33 -102 -80 -186
q82 -1 126 52q45 54 74 123q6 15 13 25q14 27 40 13q11 -6 14.5 -18t-2.5 -24q-50 -111 -113 -174q-65 -65 -189 -56q-136 -202 -338 -223zM420 70q190 0 323 191q-27 24 -28 25q-43 35 -77 93q-37 62 -52 111q-28 95 -22 221q6 125 39 219q37 114 127 151q25 9 53 8h3h4
q3 44 -5 83q-15 69 -84 86q-42 10 -90.5 -11t-92 -62.5t-77 -83t-58.5 -82.5q-114 -184 -151 -403q-37 -220 34 -406q55 -123 154 -140zM776 313q49 84 81 184q32 102 43 206q10 99 -5 180q-12 66 -41 103.5t-73 39.5q-16 0 -33 -5q-59 -24 -89 -113q-30 -84 -36 -199
q-5 -117 20 -199q18 -60 58 -115q29 -41 75 -82zM466 1419l81 231h67l82 -235l-67 -14l-48 138l-47 -134z" />
    <glyph glyph-name="Otilde" unicode="&#xd5;" horiz-adv-x="1203" 
d="M458 9q-19 -4 -41 -6q-156 -11 -251 84t-131 253q-35 159 -12 338q22 179 104 338q84 160 221 253q61 39 130.5 62t147 16.5t128.5 -54.5q46 -43 61 -114q7 -37 6 -79q0 -10 -1 -15v-2q105 -34 134 -188q16 -85 5 -198q-10 -109 -45 -220q-32 -97 -81 -186q82 -1 125 51
q44 52 75 123q6 13 13 26q14 27 40 13q25 -14 13 -42q-49 -110 -114 -174q-65 -65 -189 -56q-136 -202 -338 -223zM420 70q188 0 323 191q-15 12 -28 25q-43 35 -77 93q-37 62 -52 111q-28 95 -22 221q6 125 39 219q39 115 126 151q27 9 54 8h3h3q4 42 -4 83q-15 69 -83 86
q-43 10 -91.5 -11t-92 -63t-76.5 -82.5t-59 -82.5q-114 -184 -151 -403q-37 -220 34 -406q55 -123 154 -140zM776 313q49 84 81 184q32 102 43 206q10 99 -5 180q-12 66 -41 103.5t-73 39.5q-16 0 -33 -5q-59 -24 -89 -113q-30 -84 -36 -199q-5 -117 20 -199q19 -62 57 -115
q31 -42 76 -82zM433 1468q-17 -17 -37 -1q-18 19 0 37q58 58 114 53q54 -4 105 -29q32 -19 59.5 -17t43.5 37q12 22 35 14q22 -12 14 -34q-31 -72 -76 -74q-42 0 -96 26q-36 17 -80 22q-42 5 -82 -34z" />
    <glyph glyph-name="Odieresis" unicode="&#xd6;" horiz-adv-x="1205" 
d="M459 9q-19 -4 -41 -6q-156 -11 -251 84t-131 253t-13 338q24 181 105 338q84 160 221 253q61 39 130.5 62t147 16.5t128.5 -54.5q45 -42 62 -114q7 -33 5 -79q0 -10 -1 -15v-2q106 -34 133 -188q16 -89 6 -198q-11 -111 -46 -220q-29 -96 -80 -186q82 -1 125 51t75 123
q6 13 13 26q14 27 40 13q25 -14 13 -42q-50 -110 -114 -174q-65 -65 -189 -56q-136 -202 -338 -223zM421 70q189 0 322 191q-18 16 -26 25q-43 34 -78 93q-37 62 -52 111q-28 95 -22 221q6 123 38 219q40 115 127 151q27 9 53 8h4h3q4 42 -4 83q-15 69 -84 86
q-42 10 -90.5 -11t-92 -63t-76.5 -82.5t-59 -82.5q-114 -184 -151 -403q-37 -220 34 -406q55 -123 154 -140zM777 313q49 84 81 184q32 102 43 206q9 101 -6 180q-12 65 -40.5 103t-72.5 40q-16 0 -33 -5q-60 -24 -89 -113q-30 -84 -36 -199q-5 -117 20 -199q18 -60 58 -115
q29 -41 75 -82zM444 1565h123v-123h-123v123zM594 1565h123v-123h-123v123z" />
    <glyph glyph-name="multiply" unicode="&#xd7;" horiz-adv-x="600" 
d="M0 500l190 190l-190 190l60 59l190 -190l190 190l60 -59l-190 -190l190 -190l-60 -60l-190 190l-190 -190z" />
    <glyph glyph-name="Oslash" unicode="&#xd8;" horiz-adv-x="1204" 
d="M418 3h-1q-155 -11 -251 84q-95 95 -131 253q-35 159 -12 338q22 179 104 338q84 160 221 253q99 66 232 80l1 16l117 -14l-3 -20q34 -15 59 -38q46 -43 61 -114q7 -37 6 -79q0 -10 -1 -15v-2q106 -30 133 -188q17 -89 6 -198q-11 -111 -46 -220q-29 -96 -80 -186
q82 -1 125 51q45 54 74 123q7 13 13 26q15 26 41 13q25 -14 13 -42q-49 -110 -114 -174q-65 -65 -189 -56q-100 -151 -257 -207l-5 -39l-116 14v3zM687 1261l-27 -229q30 36 69 49q27 9 53 8h4h3q4 42 -4 83q-15 69 -84 86q-3 0 -7.5 1t-6.5 2zM592 472l-45 -378
q117 53 195 167q-18 16 -27 25q-78 65 -123 186zM426 70l138 1151q-56 -40 -105 -98q-49 -60 -76 -104q-114 -184 -151 -403q-37 -220 34 -406q55 -123 154 -140h6zM776 313q50 86 80 184q33 100 44 206q9 101 -6 180q-12 65 -40.5 103t-72.5 40q-16 0 -33 -5
q-59 -24 -89 -113q-30 -84 -36 -199q-5 -117 20 -199q18 -60 58 -115q29 -41 75 -82z" />
    <glyph glyph-name="Ugrave" unicode="&#xd9;" horiz-adv-x="1811" 
d="M489 1340q-112 -47 -197 -151q-85 -103 -126 -227q-41 -122 -15 -223t137 -141q55 -19 124 6q64 32 114 104q42 66 46 147t-26 143q-17 38 -44 65q-23 24 -52 29q-46 10 -101 -52q-15 -17 -31 -4q-15 15 -3 32q71 83 142 68q43 -8 76 -41q31 -31 54 -80q32 -75 29 -163
q-2 -89 -53 -169q-47 -70 -112 -105.5t-129 -35.5t-125.5 30t-105.5 82.5t-65 130t-7 164.5q38 190 191 315q154 128 351 141q100 6 186 -35q87 -41 130 -137q43 -142 11 -316q-33 -178 -83 -340q-6 -21 -7 -24q-22 -70 -46 -180q-22 -102 -7 -194q15 -89 101 -119
q115 -32 230 -5q114 25 194 93q12 11 23 23q-54 125 -54 311q0 185 41 381q40 195 108 342q67 148 146 194q23 17 49.5 15t45.5 -23q17 -23 14.5 -49.5t-23.5 -45.5q-3 -2 -20 -19q-74 -83 -129 -235q-53 -149 -79 -330q-6 -38 -7 -118q-1 -88 6 -194q7 -104 29 -192
q23 -86 64 -114q43 -27 110 43q44 47 72 132q7 21 28 14q9 -2 13 -10t1 -17q-32 -97 -81 -149q-62 -62 -134 -67q-117 -5 -177 91q-3 -3 -9 -8.5t-8 -7.5q-89 -76 -213 -104q-125 -28 -253 7q-147 45 -194 129q-46 83 -28 198q18 119 61 252q1 7 5 16q11 35 33 132
q24 103 38 217q15 123 2 225q-12 104 -73 152q-60 48 -188 1zM1072 1546q-1 11 15.5 19t37.5 11t39 -0.5t20 -14.5q12 -110 -12 -153t-57 -1t-43 139z" />
    <glyph glyph-name="Uacute" unicode="&#xda;" horiz-adv-x="1811" 
d="M489 1340q-112 -47 -196 -151q-85 -103 -126 -227q-41 -122 -15 -223t136 -141q56 -20 124 6q66 32 114 104q45 71 46 147q3 77 -26 143q-18 40 -43 65t-53 29q-47 11 -100 -52q-15 -15 -32 -4q-15 15 -3 32q72 83 142 68q44 -8 77 -41q32 -32 53 -80q32 -75 29 -163
q-2 -89 -53 -169q-47 -70 -111.5 -105.5t-129 -35.5t-126 30t-105.5 82.5t-64.5 130t-6.5 164.5q38 190 191 315q155 128 351 141q99 6 185 -35q87 -41 130 -137q43 -144 12 -316q-31 -170 -84 -340q-5 -20 -7 -26q-22 -71 -46 -180q-21 -103 -6 -192t100 -119
q115 -32 230 -5q116 26 194 93q12 9 24 23q-55 123 -55 311q0 185 41 381q40 195 108 342q67 147 147 194q22 17 48.5 15t45.5 -23q18 -23 15.5 -49.5t-24.5 -45.5q-3 -2 -20 -19q-74 -83 -129 -235q-53 -149 -79 -330q-5 -30 -6 -118t6 -194q8 -112 29 -192q23 -86 64 -114
q43 -27 110 43q42 45 71 132q7 21 28 14q20 -5 15 -27q-32 -98 -82 -149q-61 -62 -133 -67q-118 -4 -178 91q-5 -6 -17 -16q-88 -76 -213 -104q-126 -28 -252 7q-147 45 -194 129q-46 83 -29 198q18 116 61 250q1 6 5 18q11 35 33 132q24 103 38 217q16 122 3 225
q-14 105 -74 152q-60 48 -188 1zM1199 1546q-10 -97 -43.5 -139t-57 1t-10.5 153q2 11 20 14.5t38.5 0.5t37 -11t15.5 -19z" />
    <glyph glyph-name="Ucircumflex" unicode="&#xdb;" horiz-adv-x="1811" 
d="M489 1340q-112 -47 -197 -151q-85 -103 -126 -227q-41 -122 -15 -223t137 -141q55 -19 124 6q64 32 114 104q42 66 46 147t-26 143q-17 38 -44 65q-23 24 -52 29q-48 10 -101 -52q-15 -17 -31 -4q-15 15 -3 32q71 83 142 68q43 -8 76 -41q31 -31 54 -80q32 -75 29 -163
q-3 -90 -54 -169q-75 -108 -175 -132q-99 -24 -191 20q-91 45 -144 143t-33 235q38 190 191 315q154 128 351 141q100 6 186 -35q87 -41 130 -137q42 -145 11 -316q-33 -178 -83 -340q-6 -21 -7 -24q-22 -71 -46 -180q-22 -102 -7 -194q15 -89 101 -119q115 -32 229 -5
q116 26 194 93q12 9 24 23q-55 123 -55 311q2 188 42 381q40 195 108 342q67 148 146 194q23 17 49.5 15t44.5 -23q18 -23 15.5 -49.5t-23.5 -45.5q-3 -2 -20 -19q-74 -83 -129 -235q-53 -149 -79 -330q-6 -38 -7 -118q-1 -88 6 -194q7 -104 29 -192q23 -86 64 -114
q43 -27 110 43q44 47 72 132q7 21 27 14q22 -5 15 -27q-32 -98 -82 -149q-61 -62 -133 -67q-117 -4 -178 91q-2 -3 -5 -5.5t-6 -5.5l-5 -5q-88 -76 -214 -104q-124 -28 -252 7q-147 45 -194 129q-46 83 -28 198q18 119 61 252q1 7 5 16q11 35 33 132q24 103 38 217
q15 123 2 225q-12 104 -73 152q-60 48 -188 1zM995 1419l80 231h68l82 -235l-67 -14l-49 138l-47 -134z" />
    <glyph glyph-name="Udieresis" unicode="&#xdc;" horiz-adv-x="1811" 
d="M489 1340q-112 -47 -197 -151q-85 -103 -126 -227q-41 -122 -15 -223q25 -100 137 -141q56 -20 124 6q66 32 114 104q42 66 46 147t-26 143q-17 38 -44 65q-23 24 -52 29q-46 10 -101 -52q-13 -15 -31 -4q-15 15 -3 32q72 83 142 68q44 -8 77 -41q32 -32 53 -80
q32 -75 29 -163q-2 -89 -53 -169q-47 -70 -112 -105.5t-129 -35.5t-126 30t-105.5 82.5t-64 130t-6.5 164.5q38 190 191 315q155 128 351 141q99 6 185 -35q87 -41 130 -137q43 -144 12 -316q-31 -170 -84 -340q-5 -18 -7 -23q-22 -71 -46 -180q-21 -102 -7 -194
q15 -88 101 -120q115 -32 230 -5q114 25 194 93q12 9 24 23q-55 123 -55 311q0 185 41 381q40 195 108 342q67 147 147 194q22 17 48.5 15t45.5 -23q18 -23 15.5 -49.5t-24.5 -45.5q-3 -2 -20 -19q-74 -83 -129 -235q-53 -149 -79 -330q-5 -30 -6 -118t6 -194
q8 -112 29 -192q23 -86 64 -114q43 -27 110 43q42 45 71 132q7 21 28 14q20 -5 15 -27q-32 -98 -82 -149q-61 -62 -133 -67q-118 -4 -178 91q-5 -6 -17 -16q-88 -76 -213 -104q-126 -28 -252 7q-147 45 -194 129q-46 83 -29 198q18 116 61 250q1 6 5 18q11 35 33 132
q24 103 38 217q15 123 2 225q-12 104 -73 152q-60 48 -188 1zM942 1565h123v-123h-123v123zM1092 1565h123v-123h-123v123z" />
    <glyph glyph-name="Yacute" unicode="&#xdd;" horiz-adv-x="971" 
d="M640 743q22 26 43 60q16 119 31 267q15 144 23 311q2 28 22 45.5t48 17.5q28 -2 46 -22t17 -48q-21 -377 -61 -637q-3 -18 -7 -54t-7 -54q-43 -363 -116 -556q-67 -161 -182 -251q-115 -89 -231 -95q-115 -7 -191 79q-75 86 -66 272q8 175 159 422q13 18 31 7
q8 -5 10 -14t-3 -16q-146 -239 -153 -402q-14 -205 80 -262q75 -45 185 20q115 68 198 216q21 38 38 78q67 169 103 484q2 17 7 50t7 49q-46 -53 -102 -85q-118 -60 -221 -12q-103 49 -145 174q-30 107 -38 238q-9 199 6 314q1 15 3 43q3 28 23 45.5t48 16.5q28 -3 45.5 -23
t16.5 -49q-1 -6 -2 -20t-1 -20q-14 -111 -6 -299q4 -71 17 -145q13 -88 41.5 -148t69.5 -86t96.5 -5t117.5 94zM622 1546q-11 -97 -44 -139t-56.5 1t-11.5 153q2 11 20 14.5t39 0.5t37.5 -11t15.5 -19z" />
    <glyph glyph-name="agrave" unicode="&#xe0;" horiz-adv-x="1091" 
d="M743 916q11 26 35 37t51 2q26 -11 37 -35.5t2 -50.5q-4 -13 -27 -82q-29 -83 -66 -204q-39 -127 -69 -242q-31 -123 -35 -201q-4 -81 36 -82q50 8 118 97q69 92 122 195q11 18 30 9t10 -30q-85 -161 -159 -240q-104 -109 -182 -86q-73 22 -96 98q-23 77 -10 181
q-29 -53 -64 -100.5t-82.5 -93t-104.5 -67.5t-114 -11q-101 22 -139 128q-36 104 -16 246q19 142 87 277q68 136 170 219q103 84 235 73q81 -10 140 -69q32 -33 50 -74q6 15 14 36.5t10 27.5q5 17 17 42zM676 744q-25 79 -91 117q-78 37 -156 -21q-76 -58 -140 -172
t-98 -239q-34 -122 -26 -221q9 -95 74 -118q64 -14 131 53q69 68 124 152q67 105 137 316q19 61 45 133zM501 1092q0 15 38 20t42 -10q8 -124 -27 -122t-53 112z" />
    <glyph glyph-name="aacute" unicode="&#xe1;" horiz-adv-x="1091" 
d="M743 916q11 26 35 37t51 2q26 -11 37 -35.5t2 -50.5q-3 -13 -26 -82q-21 -62 -67 -204q-41 -134 -68 -242q-31 -123 -35 -201q-4 -81 35 -82q50 8 118 97q69 92 122 195q11 18 30 9q19 -8 10 -30q-84 -161 -159 -240q-104 -109 -182 -86q-73 22 -96 98q-22 75 -9 181
q-29 -53 -64.5 -100.5t-83 -93t-104.5 -67.5t-113 -11q-102 22 -140 128q-36 104 -16 246q19 142 87 277q68 136 170 219q103 84 235 73q81 -10 140 -69q32 -33 50 -74q13 32 25 65q8 24 16 41zM676 744q-25 79 -91 117q-78 37 -156 -21q-76 -58 -140 -172t-98 -239
q-34 -122 -26 -221q9 -95 74 -118q64 -14 131 53q69 68 124 152q69 108 136 316q30 88 46 133zM612 1092q-16 -110 -53 -112q-35 -2 -26 122q1 6 9.5 9t20.5 2t23.5 -3.5t19 -7.5t6.5 -10z" />
    <glyph glyph-name="acircumflex" unicode="&#xe2;" horiz-adv-x="1091" 
d="M743 916q11 26 35 37t51 2q26 -11 37 -35.5t2 -50.5q-3 -13 -26 -82q-21 -62 -67 -204q-39 -127 -69 -242q-31 -123 -35 -201q-4 -81 36 -82q50 8 118 97q69 92 122 195q11 18 30 9q19 -8 10 -30q-84 -161 -159 -240q-104 -109 -182 -86q-73 22 -96 98q-22 75 -9 181
q-29 -53 -64.5 -100.5t-83 -93t-104.5 -67.5t-113 -11q-102 22 -140 128q-36 104 -16 246q21 142 87 277q68 136 170 219q103 84 235 73q82 -11 141 -69q31 -35 49 -74q13 32 25 65q8 24 16 41zM676 744q-26 80 -90 117q-78 37 -156 -21q-77 -58 -141 -172
q-62 -110 -97 -239q-34 -122 -26 -221q8 -95 74 -118q63 -14 130 53q69 68 124 152q69 107 136 315q38 112 46 134zM409 1001l56 164h49l58 -167l-48 -10l-34 98l-34 -95z" />
    <glyph glyph-name="atilde" unicode="&#xe3;" horiz-adv-x="1091" 
d="M743 916q11 26 35 37t51 2q26 -11 37 -35.5t2 -50.5q-3 -13 -26 -82q-21 -62 -67 -204q-39 -127 -69 -242q-31 -123 -35 -201q-4 -81 36 -82q50 8 118 97q69 90 123 195q8 18 30 9q18 -8 9 -30q-85 -161 -159 -240q-104 -109 -182 -86q-73 22 -96 98q-22 75 -9 181
q-29 -53 -64.5 -100.5t-83 -93t-104.5 -67.5t-113 -11q-102 22 -140 128q-36 104 -16 246q21 142 87 277q67 135 171 219q103 84 234 73q82 -11 141 -69q31 -34 50 -74q6 16 13.5 37t9.5 26q6 20 17 43zM676 744q-26 80 -90 117q-78 37 -156 -21q-77 -58 -141 -172
q-62 -110 -97 -239q-34 -122 -26 -221q8 -95 74 -118q64 -14 131 53q71 69 123 152q71 110 137 318q23 69 45 131zM380 1035q-14 -11 -27 0q-11 13 0 26q43 41 81 37q39 -3 75 -20q22 -14 42 -12.5t31 26.5q8 17 24 10q18 -6 10 -24q-22 -51 -53 -52q-31 0 -68 18
q-22 10 -38 14.5t-37.5 -0.5t-39.5 -23z" />
    <glyph glyph-name="adieresis" unicode="&#xe4;" horiz-adv-x="1091" 
d="M743 916q11 26 35 37t51 2q26 -11 37 -35.5t2 -50.5q-3 -13 -26 -82q-28 -83 -66 -204q-39 -127 -69 -242q-31 -123 -35 -201q-4 -80 35 -82q50 8 118 97q67 90 123 195q8 18 30 9q18 -8 9 -30q-84 -161 -159 -240q-104 -109 -182 -86q-73 22 -96 98q-22 75 -9 181
q-28 -52 -64 -100t-83 -93.5t-104.5 -67.5t-113.5 -11q-102 22 -140 128q-36 104 -16 246q21 142 87 277q68 136 170 219q103 84 235 73q82 -11 141 -69q32 -33 50 -74q14 36 25 67q10 29 15 39zM677 744q-27 80 -91 117q-78 37 -156 -21q-77 -58 -141 -172
q-62 -110 -97 -239q-34 -122 -26 -221q8 -95 73 -118q65 -14 132 53q71 69 123 152q71 111 137 316q23 71 46 133zM387 1105h87v-88h-87v88zM493 1105h88v-88h-88v88z" />
    <glyph glyph-name="aring" unicode="&#xe5;" horiz-adv-x="1091" 
d="M743 916q10 26 34 37t51 2q26 -11 37 -35.5t2 -50.5q-3 -13 -26 -82q-29 -83 -66 -204q-39 -127 -69 -242q-31 -123 -35 -201q-4 -80 35 -82q50 8 118 97q68 90 123 195q8 18 30 9q21 -10 9 -30q-83 -159 -158 -240q-105 -108 -183 -86q-73 22 -96 98q-22 75 -9 181
q-28 -52 -64 -100t-83 -93.5t-104.5 -67.5t-113.5 -11q-101 22 -139 128q-36 104 -16 246q19 140 86 277q68 136 170 219q103 84 235 73q83 -11 141 -69q32 -33 50 -74q13 35 24 65q8 24 17 41zM676 744q-25 79 -91 117q-78 37 -156 -21q-77 -58 -141 -172
q-62 -110 -97 -239q-34 -122 -26 -221q8 -95 73 -118q65 -14 132 53q69 68 124 152q69 107 136 315q25 78 46 134zM569 1148q34 0 57 -23t23 -56t-23 -56t-57 -23q-32 0 -55.5 23t-23.5 56t23.5 56t55.5 23zM569 1120q-20 0 -35 -15t-15 -36t15 -35.5t35 -14.5q21 0 36 14.5
t15 35.5t-15 36t-36 15z" />
    <glyph glyph-name="ae" unicode="&#xe6;" horiz-adv-x="1392" 
d="M1167 762q-3 -53 -33 -115q-40 -87 -118 -162q-76 -73 -218 -112q1 -106 38 -185q38 -77 113 -95q45 -10 92 13t86.5 67t68 85.5t51.5 84.5q11 19 30 10q20 -13 9 -30q-25 -51 -64 -114q-8 -12 -11 -17h-1q-103 -156 -235 -187q-155 -24 -270 52q-114 76 -164 225
q-29 -53 -64.5 -100.5t-83 -93t-104.5 -67.5t-113 -11q-102 22 -140 128q-36 104 -16 246q21 142 87 277q68 136 170 219q103 84 235 73q82 -11 141 -69q31 -35 49 -74q13 32 25 65q8 24 16 41q11 26 35 37t51 2q25 -11 36 -32q53 25 108 28.5t100 -14t71.5 -63t22.5 -112.5
zM676 744q-26 80 -90 117q-78 37 -156 -21q-77 -58 -141 -172q-62 -110 -97 -239q-34 -122 -26 -221q8 -95 74 -118q63 -14 131 53q71 69 123 152q69 107 136 315q25 78 46 134zM799 419q125 37 192 103t103 145q26 54 29 97q1 77 -52 97q-54 20 -119 -34q-99 -81 -136 -265
q-14 -67 -17 -143z" />
    <glyph glyph-name="egrave" unicode="&#xe8;" horiz-adv-x="773" 
d="M550 762q-3 -53 -33 -115q-40 -87 -118 -162q-76 -73 -218 -112q1 -106 38 -185q38 -77 113 -95q45 -10 92 13t86.5 67t68 85.5t51.5 84.5q8 19 30 10q18 -11 9 -30q-28 -54 -65 -114q-4 -9 -11 -17q-103 -156 -235 -187q-149 -23 -232 68q-81 90 -104 238
q-22 144 10 294q31 146 112 242q74 78 169 99q96 22 168 -22t69 -162zM182 419q125 37 192 103t103 145q26 54 29 97q1 77 -52 97q-54 20 -119 -34q-99 -81 -136 -265q-14 -67 -17 -143zM328 1092q-1 5 6.5 10t19 7.5t23.5 3.5t20.5 -2t9.5 -9q9 -124 -27 -122t-52 112z" />
    <glyph glyph-name="eacute" unicode="&#xe9;" horiz-adv-x="773" 
d="M550 762q-3 -53 -33 -115q-40 -87 -118 -162q-76 -73 -218 -112q1 -106 38 -185q36 -77 113 -95q45 -10 92 13t86.5 67t68 86t50.5 84q11 19 30 10q19 -11 10 -30q-28 -54 -65 -114q-4 -9 -11 -17q-103 -155 -235 -187q-149 -23 -232 68q-81 90 -104 238q-22 144 10 294
q31 146 112 242q74 78 169 99q96 22 168 -22t69 -162zM182 419q123 37 192 103q67 66 103 145q27 55 28 97q2 76 -50 96q-53 22 -119 -31q-97 -79 -136 -259q-15 -70 -18 -151zM413 1092q-16 -110 -53 -112q-35 -2 -26 122q1 6 9.5 9t20.5 2t23.5 -3.5t19 -7.5t6.5 -10z" />
    <glyph glyph-name="ecircumflex" unicode="&#xea;" horiz-adv-x="773" 
d="M549 762q-1 -52 -32 -115q-40 -87 -118 -162q-76 -73 -218 -112q1 -106 38 -185q36 -77 113 -95q44 -10 91.5 13t87 67t68.5 86t50 84q11 19 30 10q19 -11 10 -30q-28 -54 -65 -114q-8 -12 -11 -17q-103 -155 -236 -187q-148 -22 -231 68q-81 90 -104 238q-22 144 10 294
q31 146 112 242q74 78 169 99q96 22 168 -22t68 -162zM182 419q124 37 191 103q66 65 104 145q27 55 28 97q1 77 -52 97q-54 20 -119 -34q-98 -81 -135 -265q-14 -67 -17 -143zM305 1001l57 164h48l58 -167l-47 -10l-35 98l-33 -95z" />
    <glyph glyph-name="edieresis" unicode="&#xeb;" horiz-adv-x="773" 
d="M549 762q-3 -53 -33 -115q-40 -89 -117 -162q-76 -73 -218 -112q1 -106 38 -185q36 -77 113 -95q44 -10 91.5 13t87 67t68.5 86t50 84q11 19 30 10q18 -12 10 -30q-28 -54 -65 -114q-8 -12 -11 -17q-103 -155 -236 -187q-148 -22 -231 68q-81 90 -104 238q-22 144 10 294
q31 146 112 242q72 78 169 99q96 22 168 -22q71 -44 68 -162zM181 419q125 37 192 103q66 65 104 145q27 55 28 97q1 77 -51 97q-54 20 -120 -34q-98 -81 -136 -264q-14 -67 -17 -144zM269 1105h87v-88h-87v88zM375 1105h88v-88h-88v88z" />
    <glyph glyph-name="igrave" unicode="&#xec;" horiz-adv-x="560" 
d="M212 913q11 26 35 37t51 2q26 -11 37 -35t2 -51q-3 -13 -26 -82q-21 -62 -67 -204q-41 -134 -68 -242q-31 -123 -35 -201q-5 -80 35 -82q50 8 118 98q67 89 123 194q10 21 30 9q18 -8 9 -30q-83 -158 -158 -240q-105 -108 -183 -85q-73 21 -94.5 111t-3 201t58.5 241.5
t74.5 216.5t61.5 142zM222 1092q-1 5 6.5 10t19 7.5t23.5 3.5t20.5 -2t9.5 -9q9 -124 -27 -122t-52 112z" />
    <glyph glyph-name="iacute" unicode="&#xed;" horiz-adv-x="560" 
d="M212 913q11 26 35 37t51 2q26 -11 37 -35t2 -51q-3 -13 -26 -82q-21 -62 -67 -204q-41 -134 -68 -242q-31 -123 -35 -201q-5 -80 35 -82q50 8 118 98q68 89 123 194q10 21 30 9q18 -8 9 -30q-84 -159 -159 -240q-103 -108 -182 -85q-190 55 -41 552q36 116 77 219
q41 102 61 141zM345 1092q-16 -110 -52 -112q-35 -2 -27 122q1 6 10 8.5t21 2t23 -3t18.5 -7.5t6.5 -10z" />
    <glyph glyph-name="icircumflex" unicode="&#xee;" horiz-adv-x="561" 
d="M213 913q10 26 34 37t51 2q27 -11 37.5 -35t1.5 -51q-3 -13 -26 -82q-29 -82 -66 -204q-39 -127 -69 -242q-31 -123 -35 -201q-5 -80 35 -82q50 8 118 98q67 89 123 194q10 21 30 9q21 -10 9 -30q-84 -159 -159 -240q-103 -108 -182 -85q-73 21 -94.5 111t-3 201.5
t58.5 241t75 216.5t62 142zM218 1001l57 164h48l59 -167l-48 -10l-35 98l-33 -95z" />
    <glyph glyph-name="idieresis" unicode="&#xef;" horiz-adv-x="560" 
d="M213 913q10 26 34.5 37t50.5 2q27 -11 38 -35t1 -51q-3 -13 -26 -82q-29 -82 -66 -204q-39 -127 -69 -242q-31 -123 -35 -201q-5 -80 35 -82q51 8 119 98q68 91 122 194q12 19 30 9q18 -8 9 -30q-83 -158 -158 -240q-105 -108 -182 -85q-53 15 -79.5 67t-27 122t15 158
t40 171t54.5 165.5t53.5 138t40.5 90.5zM206 1105h88v-88h-88v88zM313 1105h87v-88h-87v88z" />
    <glyph glyph-name="ntilde" unicode="&#xf1;" horiz-adv-x="962" 
d="M12 876q1 29 20 47.5t47 18.5q29 -1 47.5 -20t18.5 -48l-1 -88q36 46 80.5 84.5t95.5 66.5t102.5 23t88.5 -49q26 -31 42 -85t21.5 -106.5t3.5 -133.5t-5.5 -130t-10.5 -133q-10 -115 -12 -189q0 -74 28 -75q50 8 118 97q68 91 122 194q11 17 30 10q19 -11 10 -30
q-85 -159 -159 -241q-103 -108 -182 -85q-93 30 -88 166q3 82 4 96q5 136 4 258q0 141 -26 242q-13 47 -35 71t-53.5 24.5t-77.5 -38t-101 -114.5q-1 -1 -1 -2q-2 -98 -4.5 -250.5t-3.5 -208.5l-2 -184q-1 -28 -20.5 -47t-46.5 -19q-29 1 -47.5 20t-18.5 47v5q0 4 0.5 16.5
t0.5 31.5t1 52t1.5 75t1.5 105t2 136.5t2.5 174.5t2.5 215zM115 1035q-13 -11 -26 0q-13 13 -1 26q44 41 82 37q38 -3 74 -20q23 -14 42.5 -12.5t30.5 26.5q9 16 25 10q17 -8 10 -24q-22 -50 -54 -52q-31 0 -68 18q-22 10 -38 14.5t-37.5 -0.5t-39.5 -23z" />
    <glyph glyph-name="ograve" unicode="&#xf2;" horiz-adv-x="881" 
d="M321 0q-9 -2 -29 -4q-139 -8 -210 95q-71 104 -77 260q-4 157 54 307q60 151 184 236q61 41 144 55t144 -37q32 -31 43 -81q6 -24 4 -57v-5q0 -4 -1 -6q75 -25 95 -134q12 -61 4 -140q-8 -82 -32 -157q-23 -70 -57 -131q58 -1 89 36q29 35 53 87q6 12 9 19q8 18 28 9
q20 -13 9 -30q-34 -77 -81 -124q-45 -46 -133 -39q-98 -143 -240 -159zM294 43q134 1 229 136q-5 4 -13 12q-3 2 -7 6q-61 51 -91 145q-20 70 -16 156q4 88 27 156q29 82 90 107q18 8 38 6h2q1 -1 3 -1q2 33 -3 60q-10 49 -60 61q-30 7 -64 -7.5t-65 -44.5t-54.5 -59
t-42.5 -59q-80 -128 -107 -286q-26 -157 24 -288q40 -88 110 -100zM546 216q35 60 58 130q22 75 30 147q8 71 -3 128q-17 95 -81 101q-14 2 -24 -3q-40 -18 -63 -81q-20 -58 -25 -141q-4 -78 14 -141q13 -43 41 -82q28 -35 53 -58zM360 1092q0 15 38 20t42 -10
q4 -62 -3 -92.5t-25 -29.5q-36 2 -52 112z" />
    <glyph glyph-name="oacute" unicode="&#xf3;" horiz-adv-x="879" 
d="M320 0q-9 -2 -29 -4q-138 -8 -209 95q-71 104 -77 260q-4 157 54 307q59 150 183 236q62 41 145 55t144 -37q32 -31 43 -81q6 -24 4 -57v-5q0 -4 -1 -6q75 -25 95 -134q12 -61 4 -140q-8 -82 -32 -157q-23 -70 -57 -131q58 -1 89 36q30 36 52 87q1 2 4.5 8.5t5.5 10.5
q8 18 28 9q18 -11 9 -30q-34 -77 -81 -124q-45 -46 -133 -39q-98 -143 -241 -159zM294 43q135 1 228 136q-8 8 -13 12l-6 6q-60 50 -92 145q-20 70 -16 156q4 85 28 156q29 82 90 107q18 8 38 6h2q1 -1 3 -1q2 35 -4 60q-10 49 -59 61q-39 10 -87 -20.5t-80.5 -69.5
t-58.5 -80q-80 -128 -107 -286q-26 -157 24 -288q40 -88 110 -100zM546 216q35 60 58 130q22 75 30 147q7 67 -4 128q-17 95 -80 101q-13 1 -23 -3q-43 -18 -64 -81q-20 -58 -25 -141q-4 -78 14 -141q13 -43 41 -82q22 -30 53 -58zM475 1092q-16 -110 -52 -112
q-35 -2 -27 122q1 6 10 8.5t21 2t23 -3t18.5 -7.5t6.5 -10z" />
    <glyph glyph-name="ocircumflex" unicode="&#xf4;" horiz-adv-x="879" 
d="M320 0q-9 -2 -29 -4q-139 -8 -209 95q-71 104 -77 260q-4 157 54 307q59 150 183 236q61 41 144 55t144 -37q34 -32 44 -81q5 -30 4 -57q-1 -2 -1 -5v-6q76 -25 94 -134q12 -65 5 -140q-8 -78 -33 -157q-21 -70 -57 -131q59 -2 89 36q29 35 53 87q6 12 9 19q11 17 29 9
q18 -11 9 -30q-36 -77 -81 -124t-134 -39q-96 -143 -240 -159zM293 43q134 1 229 136q-5 4 -13 12l-6 6q-62 50 -92 145q-20 70 -16 156q4 85 28 156q27 82 90 107q18 7 37 6h3q1 -1 2 -1q3 33 -3 60q-10 49 -59 61q-30 7 -64.5 -8t-65 -44t-55 -59t-41.5 -59
q-80 -128 -107 -286q-27 -157 24 -288q39 -88 109 -100zM546 216q35 62 57 130q23 73 31 147q6 73 -4 128q-17 95 -81 101q-12 2 -23 -3q-42 -18 -63 -81q-20 -58 -25 -141q-4 -76 13 -141q13 -44 42 -82q22 -30 53 -58zM326 1001l57 164h48l58 -167l-48 -10l-34 98l-33 -95
z" />
    <glyph glyph-name="otilde" unicode="&#xf5;" horiz-adv-x="879" 
d="M320 0q-9 -2 -29 -4q-139 -8 -210 95q-72 105 -76 260q-4 157 54 307t183 236q61 41 144 55t144 -37q32 -31 43 -81q6 -27 5 -57q0 -7 -1 -10q0 -1 -1 -1q75 -25 95 -134q12 -61 4 -140q-8 -82 -32 -157q-23 -70 -57 -131q58 -1 89 36q29 35 53 87q6 12 9 19
q4 8 12.5 10.5t15.5 -1.5q20 -13 9 -30q-34 -77 -81 -124q-45 -46 -133 -39q-96 -143 -240 -159zM293 43q134 1 229 136q-5 4 -13 12q-3 2 -7 6q-61 51 -91 145q-20 70 -16 156q5 88 27 156q29 82 90 107q18 8 38 6h3q1 -1 2 -1q3 33 -3 60q-10 49 -60 61
q-39 10 -86.5 -20.5t-80.5 -69.5t-58 -80q-81 -127 -108 -286q-25 -157 24 -288q40 -88 110 -100zM545 216q35 60 58 130q23 75 30 147q8 71 -3 128q-17 95 -81 101q-13 1 -23 -3q-43 -18 -64 -81q-20 -60 -24 -141q-4 -76 13 -141q13 -43 41 -82q28 -35 53 -58zM302 1035
q-13 -11 -26 0q-13 13 -1 26q44 41 82 37q38 -3 74 -20q23 -14 43 -12.5t31 26.5q8 17 24 10q17 -8 10 -24q-22 -50 -54 -52q-31 0 -67 18q-22 10 -38.5 14.5t-38 -0.5t-39.5 -23z" />
    <glyph glyph-name="odieresis" unicode="&#xf6;" horiz-adv-x="879" 
d="M320 0q-9 -2 -29 -4q-138 -8 -209 95q-71 104 -77 260q-4 157 54 307q60 151 184 236q61 41 144 55t144 -37q32 -31 43 -81q6 -24 4 -57q0 -7 -1 -10v-1q75 -25 95 -134q12 -61 4 -140q-8 -82 -32 -157q-23 -70 -57 -131q58 -1 89 36q30 36 52 87q1 2 4.5 8.5t5.5 10.5
q8 18 28 9q18 -11 9 -30q-34 -77 -81 -124q-45 -46 -133 -39q-98 -143 -241 -159zM294 43q134 1 229 136q-5 4 -13 12q-3 2 -7 6q-60 50 -92 145q-19 68 -15 156t27 156q29 82 90 107q18 8 38 6h2q1 -1 3 -1q3 33 -3 60q-10 49 -60 61q-30 7 -64 -7.5t-65 -44.5t-54.5 -59
t-42.5 -59q-80 -128 -107 -286q-26 -157 24 -288q40 -88 110 -100zM546 216q35 60 58 130q22 75 30 147q7 67 -4 128q-17 95 -80 101q-13 1 -23 -3q-43 -18 -64 -81q-20 -58 -25 -141q-4 -78 14 -141q13 -43 41 -82q22 -30 53 -58zM310 1105h87v-88h-87v88zM416 1105h88v-88
h-88v88z" />
    <glyph glyph-name="divide" unicode="&#xf7;" horiz-adv-x="722" 
d="M0 720h622v-84h-622v84zM311 525q30 0 51 -21t21 -51q0 -29 -21 -50t-51 -21t-51 21t-21 50q0 30 21 51t51 21zM311 974q30 0 51 -21t21 -50q0 -30 -21 -51t-51 -21t-51 21t-21 51q0 29 21 50t51 21z" />
    <glyph glyph-name="oslash" unicode="&#xf8;" horiz-adv-x="879" 
d="M291 -4q-139 -8 -210 95q-72 105 -76 260q-4 157 54 307t183 236q70 47 164 58l2 11l82 -10l-1 -14q20 -9 41 -27q32 -31 43 -81q6 -27 5 -57q0 -7 -1 -10v-1q75 -25 95 -134q11 -63 3 -140q-8 -82 -32 -157q-23 -70 -57 -131q58 -1 90 36q28 34 53 88q2 3 4.5 9t3.5 9
q4 8 12.5 10.5t15.5 -1.5q20 -13 9 -30q-35 -79 -80 -124q-46 -46 -134 -39q-72 -108 -183 -147l-3 -28l-83 10v2zM483 889l-20 -163q20 24 49 35q18 8 38 6h3q1 -1 2 -1q3 33 -3 60q-10 49 -60 61q-6 2 -9 2zM415 329l-32 -268q82 36 139 118q-5 4 -13 12q-4 4 -7 6
q-53 45 -87 132zM297 43l99 818q-76 -55 -129 -144q-81 -127 -108 -286q-26 -158 25 -288q39 -88 109 -100h4zM545 216q35 60 58 130q23 75 30 147q8 71 -3 128q-17 95 -81 101q-13 1 -23 -3q-41 -18 -64 -81q-20 -60 -24 -141q-4 -76 13 -141q13 -43 41 -82q28 -35 53 -58z
" />
    <glyph glyph-name="ugrave" unicode="&#xf9;" horiz-adv-x="969" 
d="M171 96q17 -27 45 -33q89 -19 203 125q-1 124 39 271q41 150 88 272q52 132 76 179q10 27 34 37.5t51 1.5q27 -11 38 -35t1 -51q-2 -11 -26 -83q-21 -62 -67 -204q-41 -132 -68 -241q-31 -123 -35 -201q-4 -80 36 -81q50 8 118 97q68 91 122 194q11 19 30 10
q18 -11 9 -30q-83 -159 -158 -240q-104 -109 -182 -86q-83 27 -99 123q-1 -1 -8.5 -10t-11.5 -13q-42 -46 -106.5 -74.5t-133.5 -21.5t-106 64q-25 38 -37 94q-34 149 15.5 363t132.5 389q11 27 35 38t51 1q27 -11 37.5 -35t1.5 -51q-7 -22 -20 -53q-19 -45 -31 -78
q-30 -74 -62 -195q-32 -125 -42 -248q-11 -125 30 -195zM369 1092q-1 5 6.5 10t19 7.5t23.5 3.5t20.5 -2t9.5 -9q9 -124 -27 -122t-52 112z" />
    <glyph glyph-name="uacute" unicode="&#xfa;" horiz-adv-x="969" 
d="M170 96q16 -27 46 -33q88 -19 202 125q0 124 39 271q42 153 89 272q51 128 75 179q11 27 35 37.5t51 1.5q26 -11 37 -35t2 -51q0 -1 -27 -83q-29 -82 -66 -204q-38 -124 -69 -241q-29 -117 -34 -201q-4 -79 35 -81q50 8 118 97q67 89 123 194q8 19 30 10q18 -11 9 -30
q-84 -160 -159 -240q-103 -109 -182 -86q-82 27 -98 123q-14 -16 -21 -23q-42 -46 -106.5 -74.5t-133 -21.5t-105.5 64q-26 40 -38 94q-32 150 17 365.5t132 386.5q10 27 34.5 38t51.5 1q26 -11 37 -35t2 -51q-3 -8 -21 -53q-8 -19 -31 -78q-27 -67 -61 -195
q-32 -125 -42 -248q-10 -124 29 -195zM508 1092q-16 -110 -52 -112q-35 -2 -27 122q1 6 10 8.5t21 2t23 -3t18.5 -7.5t6.5 -10z" />
    <glyph glyph-name="ucircumflex" unicode="&#xfb;" horiz-adv-x="971" 
d="M171 96q17 -27 46 -33q88 -19 202 125q0 124 39 271q41 150 88 272q52 132 76 179q11 27 35 37.5t51 1.5q26 -11 37 -35t2 -51q0 -1 -27 -83q-21 -62 -67 -204q-41 -134 -68 -242q-31 -122 -35 -200q-4 -79 35 -81q51 7 119 97q67 89 123 194q8 19 30 10q19 -12 8 -30
q-82 -159 -158 -240q-103 -109 -182 -86q-81 27 -98 123q-14 -16 -21 -23q-42 -46 -106.5 -74.5t-133.5 -21.5t-106 64q-25 38 -37 94q-34 149 15.5 363t132.5 389q11 27 35.5 38t51.5 1q26 -11 37 -35t2 -51q-3 -8 -21 -53q-8 -19 -31 -78q-31 -77 -61 -195
q-32 -125 -42 -248q-10 -124 29 -195zM363 1001l58 164h48l58 -167l-48 -10l-35 98l-33 -95z" />
    <glyph glyph-name="udieresis" unicode="&#xfc;" horiz-adv-x="969" 
d="M170 96q16 -27 46 -33q89 -19 203 125q-1 122 38 271q42 153 89 272q51 128 75 179q11 27 35 37.5t51 1.5q26 -11 37 -35t2 -51q-4 -17 -27 -83q-29 -82 -66 -204q-39 -127 -69 -242q-29 -117 -34 -200q-4 -79 35 -81q50 8 118 97t123 194q8 19 30 10q18 -11 9 -30
q-84 -160 -159 -240q-103 -109 -182 -86q-81 27 -99 123q-9 -12 -20 -23q-42 -46 -106 -74.5t-133 -21.5t-106 64q-26 40 -38 94q-32 150 17 365.5t132 386.5q11 27 35 38t51 1q26 -11 37 -35t2 -51q-3 -8 -21 -53q-8 -19 -31 -78q-27 -67 -61 -195q-32 -125 -42 -248
q-10 -124 29 -195zM341 1105h87v-88h-87v88zM447 1105h87v-88h-87v88z" />
    <glyph glyph-name="yacute" unicode="&#xfd;" horiz-adv-x="1174" 
d="M454 -48h18q8 -1 25 -1q30 89 62 210q-24 -31 -51 -64q-43 -46 -107.5 -74.5t-133.5 -21.5t-106 64q-25 38 -37 94q-34 150 15.5 364.5t133.5 387.5q10 27 34.5 38t51.5 1q26 -10 37 -34.5t2 -51.5q-4 -14 -21 -54q-19 -44 -31 -76q-32 -80 -61 -196q-32 -125 -42 -248
t29 -194q16 -28 46 -34q56 -13 125 43.5t147 186.5q57 274 83 459q3 21 6 39q14 87 18 112q6 28 28 43t50 10q28 -6 43 -27.5t10 -50.5q-7 -36 -18 -107q-1 -11 -5 -33q-22 -152 -60 -355q-40 -210 -106 -420q2 0 8 2q41 12 91 42q100 62 172 152q66 86 121 192q8 18 30 9
q17 -11 9 -30q-84 -161 -159 -240q-58 -63 -149 -120q-56 -35 -103 -48q-24 -6 -37 -8q-27 -80 -60.5 -147.5t-68.5 -116.5t-73 -88t-74.5 -60.5t-73 -35t-69 -11.5t-61.5 10q-80 32 -111 111q-31 77 -8 167q16 59 50.5 100.5t74.5 63t96 33t102.5 13.5t107.5 0zM481 -93
h-14q-5 1 -15 1q-142 6 -218 -16q-102 -36 -140 -110q-38 -76 -22 -144q16 -70 74 -92q59 -23 147 46q103 83 188 315zM582 1092q-18 -110 -53 -112t-27 122q4 15 42 10t38 -20z" />
    <glyph glyph-name="ydieresis" unicode="&#xff;" horiz-adv-x="1174" 
d="M454 -48q15 -1 43 -1q30 89 62 210q-27 -36 -52 -64q-43 -46 -107 -74.5t-132.5 -21.5t-105.5 64q-26 40 -38 94q-32 151 17 366.5t132 385.5q10 27 34.5 38t51.5 1q26 -10 37 -34.5t2 -51.5q-4 -14 -21 -54q-5 -12 -15.5 -38t-15.5 -38q-27 -69 -61 -196
q-32 -125 -42 -248t29 -194q16 -28 46 -34q119 -27 272 230q57 278 83 461q2 13 6 37q14 87 18 112q6 28 28 43t50 10q28 -6 43 -27.5t10 -50.5q-1 -8 -5.5 -33t-7.5 -43q0 -5 -1.5 -15t-2.5 -16q-3 -14 -7 -42q-24 -161 -61 -351q-38 -205 -105 -415q3 0 9 2q41 12 91 42
q100 62 172 152q66 86 121 192q8 18 29 9q18 -11 10 -30q-83 -159 -158 -240q-60 -63 -150 -120q-56 -35 -103 -48q-19 -5 -37 -8q-28 -80 -61.5 -147.5t-68 -116.5t-72.5 -88t-74.5 -60.5t-73 -35t-68.5 -11.5t-62 10q-80 32 -111 111q-31 77 -8 167q16 59 50.5 100.5
t74.5 63t96.5 33t102.5 13.5t107 0zM481 -93h-14q-5 1 -14 1q-143 6 -219 -16q-103 -36 -141 -110q-37 -75 -21 -144q16 -70 74 -92q60 -23 148 46q102 86 187 315zM448 1105h87v-88h-87v88zM554 1105h88v-88h-88v88z" />
    <glyph glyph-name="Ydieresis" unicode="&#x178;" horiz-adv-x="973" 
d="M641 743q27 34 43 60q16 119 31 267q11 111 23 311q2 28 21.5 45.5t48.5 17.5q28 -2 46 -22t17 -48q-21 -377 -61 -637q-2 -18 -6.5 -54t-7.5 -54q-21 -178 -46.5 -308.5t-70.5 -247.5q-67 -163 -181 -251q-115 -89 -231 -95q-115 -7 -192 79q-75 86 -65 272
q8 175 159 422q5 8 14 10t16 -3q8 -5 10.5 -14t-2.5 -16q-145 -239 -153 -402q-14 -206 81 -262q75 -45 184 20q115 69 198 218q20 37 37 76q65 158 104 484q2 14 6.5 47.5t7.5 51.5q-48 -54 -103 -85q-117 -60 -220 -12q-103 49 -145 174q-30 107 -38 238q-9 196 5 314
q1 8 2.5 22t1.5 21q2 28 22 45.5t49 16.5q28 -3 45.5 -23t16.5 -49q0 -6 -1 -20t-2 -20q-14 -111 -6 -299q5 -83 17 -145q13 -88 41.5 -148t69.5 -86t96.5 -5t117.5 94zM387 1565h122v-123h-122v123zM536 1565h123v-123h-123v123z" />
    <glyph glyph-name="hungarumlaut" unicode="&#x2dd;" horiz-adv-x="467" 
d="M176 1322q-17 -154 -71 -209q-37 -38 -65 -1q-44 57 -25 230q1 13 19 19t42 5t48 -6.5t39 -16t13 -21.5zM366 1295q-10 -84 -33.5 -143t-48.5 -73.5t-48 0t-32 78t0 159.5q3 16 29 21t56 1t54 -16t23 -27z" />
    <glyph glyph-name="quoteleft" unicode="&#x2018;" horiz-adv-x="278" 
d="M1 1139q10 85 33.5 144t48.5 73.5t48 -0.5t32 -78t0 -159q-3 -16 -29 -21.5t-56 -1t-54 16t-23 26.5z" />
    <glyph glyph-name="quoteright" unicode="&#x2019;" horiz-adv-x="276" 
d="M176 1322q-17 -154 -71 -209q-37 -38 -65 -1q-44 57 -25 230q1 13 18.5 19t42 5t48 -6.5t39 -16t13.5 -21.5z" />
    <glyph glyph-name="quotesinglbase" unicode="&#x201a;" horiz-adv-x="278" 
d="M177 224q-10 -85 -33.5 -144t-48.5 -73.5t-48 0.5t-32 78t0 159q3 16 29 21.5t56 1.5t54 -16t23 -27z" />
    <glyph glyph-name="quotedblleft" unicode="&#x201c;" horiz-adv-x="467" 
d="M190 1113q10 85 33.5 144t48.5 73.5t48 -0.5t32 -78t0 -160q-3 -16 -29 -21t-56 -1t-54 16t-23 27zM1 1139q19 148 65 201q45 52 78 -1q35 -53 18 -220q-3 -16 -29 -21.5t-55.5 -1t-53.5 16t-23 26.5z" />
    <glyph glyph-name="quotedblright" unicode="&#x201d;" horiz-adv-x="467" 
d="M177 1322q-20 -149 -65 -202q-44 -52 -79 1q-33 55 -17 221q3 16 29 21.5t55.5 1t53.5 -16t23 -26.5zM366 1295q-20 -150 -65 -201q-44 -52 -79 1q-33 55 -17 221q1 13 18.5 19t42 4.5t48 -6.5t39 -15.5t13.5 -22.5z" />
    <glyph glyph-name="quotedblbase" unicode="&#x201e;" horiz-adv-x="469" 
d="M177 248q-20 -151 -65 -202q-44 -52 -79 1q-33 55 -17 221q1 13 19 19t42 5t47.5 -6.5t39 -16t13.5 -21.5zM366 221q-20 -149 -64 -201t-79 1q-35 54 -18 221q1 13 19 19t42 4.5t47.5 -6.5t39 -15.5t13.5 -22.5z" />
    <glyph glyph-name="uniE027" unicode="&#xe027;" horiz-adv-x="702" 
d="M123 71q0 -28 -18 -47.5t-46 -20.5q-29 -1 -48.5 17.5t-20.5 46.5q-9 250 29 464q21 129 63 244q-104 18 -190 65q-99 53 -160 125q-40 -1 -87 3q-178 20 -390 119q-19 9 -10 29q8 18 29 11q204 -97 376 -115q26 -3 49 -3q-33 52 -38 105q-1 37 15 68q15 28 50 39
q17 6 39 1q20 -5 35 -26q12 -17 17 -49q25 20 48 22q24 2 41 -12q16 -14 23 -34q17 -49 -23 -98q-38 -43 -117 -55q51 -51 124 -91q81 -45 185 -62q8 22 13 33q49 112 127 218q79 109 182 161q66 31 111.5 24.5t68.5 -35.5t21 -77t-30 -101q-34 -64 -111 -124
q-118 -90 -256 -149l-4 -1q-22 -56 -39 -119q-1 -6 -4 -17.5t-5 -16.5q109 93 205 76q97 -17 149 -117q70 -142 16 -331q114 23 161 109q13 20 30 9q19 -9 10 -30q-19 -34 -62 -69q-44 -34 -79 -47q-38 -15 -75 -19q-7 -21 -18 -42q-65 -122 -153 -156q-88 -35 -155 -8
q-66 25 -71 85t99 125q75 40 180 52q36 111 4 226q-28 102 -91 128q-77 33 -168 -74q-40 -205 -31 -459zM-294 1117q3 -51 47 -107q84 6 120 45q22 28 14 54q-3 8 -9 13q-4 4 -9 3q-23 0 -54 -52l-42 13q5 66 -10 85q-4 6 -11 8q-6 2 -14 0q-17 -6 -23 -17q-11 -21 -9 -45z
M389 203q-83 -14 -137 -43q-67 -39 -59 -82q5 -30 39 -37q51 -11 97 41q39 43 60 121zM244 825q111 52 209 126q77 61 106 123q12 26 16 51t0 43t-14.5 29t-26 12.5t-38 -10t-46.5 -36.5q-67 -75 -125 -180q-58 -103 -81 -158z" />
    <glyph glyph-name="uniE029" unicode="&#xe029;" horiz-adv-x="933" 
d="M877 1232q65 31 110.5 24.5t69 -35t21.5 -77t-31 -101.5q-32 -63 -110 -124q-119 -91 -256 -148l-5 -2q-23 -63 -38 -118t-32 -134q-20 -92 -30 -194q-11 -106 2 -179q13 -76 67 -90q63 -15 141.5 57t167.5 239q10 21 30 9q18 -8 9 -30q-83 -159 -158 -240
q-46 -49 -112.5 -77t-136 -16.5t-105.5 74.5q-19 34 -30 82q-62 -84 -133.5 -121.5t-132 -27.5t-110 52.5t-74.5 110.5q-47 135 -11 283q35 151 129 254q95 105 225 105q87 -3 173 -110l27 75q-109 18 -198 67q-97 52 -160 125q-40 -1 -87 3q-180 20 -390 119q-20 8 -11 29
q8 19 29 11q206 -97 376 -115q25 -3 50 -3q-35 55 -38 105q-1 37 15 68q13 27 49 39q19 6 39 1q21 -4 36 -26q12 -17 17 -49q25 21 47 22q24 1 42 -12q16 -13 22 -34q17 -49 -22 -98q-40 -43 -118 -55q49 -49 125 -91q89 -48 195 -63q60 145 143 260q81 113 172 156z
M160 1117q3 -52 46 -107q85 6 121 45q23 29 13 54q-2 7 -8 13q-4 4 -10 3q-20 0 -52 -50q-7 -13 -23 -13q-9 1 -15 8t-5 16q5 66 -10 85q-4 6 -11 8q-7 1 -14 0q-17 -6 -23 -17q-11 -21 -9 -45zM441 234q-8 186 60 413q-56 84 -121 80q-64 -3 -126 -71q-36 -40 -62.5 -111
t-36.5 -149t-6 -149.5t32 -120t75 -52.5q79 -8 185 160zM701 828q113 54 209 127q78 61 105 123q21 42 18.5 73.5t-16.5 49.5t-44.5 10t-65.5 -45q-66 -72 -125 -179q-58 -107 -81 -159z" />
    <glyph glyph-name="uniE033" unicode="&#xe033;" horiz-adv-x="751" 
d="M117 71q0 -28 -18 -47.5t-47 -20.5q-28 -1 -47.5 17.5t-20.5 46.5q-10 271 35 498q21 108 57 210q-104 18 -190 65q-99 53 -160 125q-40 -1 -87 3q-179 20 -391 119q-19 9 -10 29q10 18 30 11q204 -97 375 -115q25 -3 50 -3q-33 52 -38 105q-1 37 15 68q13 27 49 39
q19 6 39 1q21 -5 35 -26q13 -16 18 -49q25 20 48 22t40 -12q15 -13 23 -34q17 -49 -22 -98q-39 -43 -118 -55q53 -51 125 -91q81 -45 185 -62q0 2 1 4.5t2 3.5q5 16 12 28q47 110 125 217q80 107 182 159q66 31 111 24.5t68.5 -35t21.5 -77t-31 -101.5q-32 -63 -110 -124
q-118 -90 -256 -149l-4 -1q-22 -56 -39 -119q-13 -48 -19 -78q69 56 119 89q133 90 198 87q64 -3 79 -68q15 -66 2 -163q-14 -103 -34 -196q-23 -111 -30 -187q-7 -75 30 -76q50 8 118 97q69 92 122 195q11 18 30 9q19 -11 10 -30q-86 -160 -159 -240q-103 -109 -182 -86
q-70 22 -90 92q-19 69 -9 159q10 89 27 178q34 128 20.5 190.5t-108.5 1.5q-60 -39 -157 -122q-33 -191 -25 -428zM-301 1117q5 -52 48 -107q83 6 120 45q22 28 13 54q-2 7 -8 13q-4 4 -10 3q-21 0 -53 -50q-6 -13 -21 -13q-21 2 -21 24q5 66 -10 85q-4 6 -11 8q-7 1 -14 0
q-17 -6 -23 -17q-11 -23 -10 -45zM239 825q108 50 208 126q78 61 105 123q19 39 18.5 73t-15.5 50.5t-45.5 9t-65.5 -43.5q-67 -75 -125 -180q-53 -96 -80 -158z" />
    <glyph glyph-name="uniE036" unicode="&#xe036;" horiz-adv-x="769" 
d="M353 308q-3 -98 25.5 -164t80.5 -78q59 -14 137 54q78 66 172 241q8 19 30 10q17 -11 9 -30q-85 -161 -159 -240q-34 -36 -82.5 -61.5t-99 -34.5t-98.5 10t-75 68q-34 67 -44 167q-58 -27 -128 -52q0 -84 1 -127q1 -28 -17 -47.5t-47 -20.5q-28 -1 -47.5 17.5t-21.5 46.5
q-7 253 30 465q23 131 62 242q-104 20 -191 66q-97 52 -159 125q-41 -2 -88 3q-178 20 -390 119q-18 8 -11 29q10 18 30 11q204 -97 376 -115q26 -3 49 -3q-34 53 -37 105q-3 36 14 68q15 28 49 39q19 6 39 1q21 -4 36 -26q12 -17 17 -49q25 20 48 22q24 2 41 -12
q15 -13 23 -34q16 -47 -22 -98q-40 -43 -118 -55q51 -51 124 -91q83 -45 187 -62q1 4 5 12q7 18 13 31q46 108 125 213q78 105 179 156q65 31 110.5 24.5t69 -35t21.5 -77t-31 -101.5q-35 -65 -110 -124q-116 -89 -257 -149l-3 -1q-22 -56 -39 -119q-4 -9 -7 -25
q47 41 86.5 68.5t86.5 48t87 12.5t70 -46q47 -67 31 -156q-29 -141 -182 -241zM-296 1117q3 -51 47 -107q84 6 120 45q23 29 14 54q-3 7 -8 13q-5 5 -10 3q-21 0 -53 -50q-7 -13 -22 -13q-9 1 -15 8t-6 16q5 66 -10 85q-4 7 -11 8q-6 1 -13 0q-18 -7 -24 -17q-11 -21 -9 -45
zM123 248q21 8 47 20q130 64 196 151q69 90 70 155q3 68 -66 70q-69 3 -215 -105q-26 -140 -32 -291zM244 825q111 52 209 126q77 61 105 123q21 42 18.5 73.5t-16.5 49.5t-44.5 10t-65.5 -44q-65 -71 -125 -180q-58 -103 -81 -158z" />
    <glyph glyph-name="uniE037" unicode="&#xe037;" horiz-adv-x="498" 
d="M424 1240q65 31 110.5 24.5t69 -35t21.5 -77t-31 -101.5q-32 -63 -110 -124q-119 -91 -256 -148l-4 -2q-23 -58 -39 -118q-15 -55 -32 -134q-20 -92 -30 -194q-11 -102 3 -179q14 -76 66 -90q63 -15 141.5 57t167.5 239q11 17 30 9q18 -8 9 -30q-83 -159 -158 -240
q-43 -46 -107 -74.5t-133 -21.5t-106 64q-65 108 -46 303q20 201 98 404q-110 18 -202 68q-97 52 -160 125q-41 -2 -88 3q-180 20 -390 119q-19 9 -10 29q8 19 29 11q204 -97 376 -115q25 -3 50 -3q-35 55 -38 105q-1 37 15 68q13 27 49 39q18 6 38 1q20 -4 37 -26
q11 -17 17 -49q23 20 47 22t41 -12q15 -13 23 -34q17 -49 -23 -98q-38 -43 -117 -55q50 -51 124 -91q89 -49 199 -64q61 149 144 266q82 115 175 159zM-300 1117q3 -52 46 -107q84 6 120 45q23 29 14 54q-2 7 -8 13q-4 4 -10 3q-21 0 -53 -50q-6 -13 -22 -13q-9 1 -15 8
t-5 16q4 65 -11 85q-4 6 -10 8q-7 1 -14 0q-18 -7 -24 -17q-10 -19 -8 -45zM248 836q111 52 209 126q77 62 105 123q19 39 18.5 73t-15.5 50.5t-45.5 9.5t-65.5 -44q-66 -72 -125 -179t-81 -159z" />
    <glyph glyph-name="uniE084" unicode="&#xe084;" horiz-adv-x="1930" 
d="M427 970q73 6 138 -46q28 -23 44 -58l3 15q3 25 6 37q0 4 1 5q0 1 1 2q0 2 0.5 7t1.5 7q0 2 0.5 5t1.5 5q6 28 28 43t50 11q27 -6 42 -28t11 -50q-3 -14 -17 -108q-23 -146 -37 -224q-54 -336 -142 -616q1 1 5 1q1 1 4 1l1 1q39 12 87 41q100 62 172 152q51 65 101 155
q-5 7 -14.5 19t-10.5 13q0 1 -1.5 3t-2.5 3q-97 133 -70 218q7 31 29 48q23 16 51 12q28 -5 49 -32q23 26 50 29q28 3 50 -18q18 -20 24 -53q5 -51 -11 -92.5t-51 -87.5q-26 -38 -37 -59q116 -142 246 -243q99 -78 201 -98q97 -18 173 64q42 46 77 142q3 8 11.5 12t17.5 1
q20 -7 13 -28q-38 -102 -86 -156q-94 -102 -212 -79q-113 21 -222 106q-143 113 -242 237q-69 -121 -129 -184q-61 -67 -150 -121q-66 -43 -139 -56q-96 -273 -240 -386q-56 -45 -120 -63t-122 -1q-87 31 -115 115q-29 84 1 175q28 90 117 149q68 38 151 47q91 8 159 4
q14 -1 41 -1q20 57 35 109q-56 -49 -132 -67q-148 -29 -228 48q-78 75 -104 204q-24 129 26 290q49 160 158 282q108 122 257 137zM953 370q1 1 5 3q35 45 59 89q27 49 22 102q-3 19 -12 28q-7 5 -13 5q-19 -1 -37 -38l-23 -46l-18 48q-15 37 -34 40q-7 1 -16 -4
q-10 -8 -14 -24q-20 -68 64 -181q1 -1 3 -3.5t3 -4.5q1 -1 11 -14zM563 575q12 73 31 193q-26 134 -109 135q-74 -1 -144 -79t-114 -191.5t-57 -229.5q-13 -117 15 -202q29 -86 107 -105q83 -20 188 90q52 208 83 389zM-1 -368q16 -43 51 -63t82 -8q36 10 80 45
q103 89 187 315q-5 1 -14 1h-14q-3 1 -8 1q-136 6 -212 -17q-89 -28 -135 -105q-46 -76 -17 -169z" />
    <glyph glyph-name="uniE087" unicode="&#xe087;" horiz-adv-x="1316" 
d="M524 564q-3 18 -11 28q-7 5 -13 5q-19 -1 -37 -38l-23 -46l-18 48q-16 37 -34 40q-7 1 -16 -4q-10 -8 -14 -24q-20 -69 64 -181q1 -2 5 -6q3 -5 13 -17q31 38 61 90q28 49 23 105zM-140 -32h2q14 -1 41 -1q4 7 7 19q3 11 10.5 34.5t11.5 34.5q86 292 153 750
q13 76 18 113q6 27 28.5 42t49.5 11q28 -6 43 -28t10 -50l-10 -65q-5 -35 -7 -43q-2 -13 -6 -41q-25 -165 -61 -352q-39 -201 -105 -415q1 1 4 1q2 1 5 1q44 13 91 43q99 61 172 151q54 72 99 154q-15 20 -19 24q-8 10 -11 15q-97 134 -71 218q9 32 30 48q22 16 50 12
q27 -5 49 -32q24 26 50 29q29 3 50 -18q19 -19 25 -53q5 -51 -11 -91.5t-50 -87.5q-23 -31 -38 -60q115 -142 245 -243q100 -78 202 -98q96 -18 172 64q45 49 77 142q9 20 29 13q21 -7 14 -28q-38 -102 -86 -156q-94 -102 -212 -79q-113 21 -222 106q-145 116 -243 237
q-70 -124 -128 -184q-61 -67 -150 -121q-51 -33 -102 -47q-24 -6 -37 -9q-32 -92 -72 -168.5t-81 -127.5t-86 -89t-86.5 -53t-82 -20t-72.5 10q-79 32 -111 111t-8 167q16 58 50 99.5t74 63t96.5 33t102.5 14t107 0.5zM-112 -78q-20 0 -29 1q-1 1 -4 1q-141 6 -215 -16
q-101 -36 -139 -110q-38 -76 -22 -145q16 -70 74 -92t147 46q103 86 188 315z" />
    <glyph glyph-name="uniE123" unicode="&#xe123;" horiz-adv-x="390" 
d="M264 1219q11 26 35 37t51 2q26 -11 37 -35t2 -51q-7 -24 -24 -77q-5 -19 -12 -38q157 -10 217 47q59 58 43 136t-87 131t-175 30q-36 -9 -80 -33t-76 -46.5t-88 -63.5q-101 -78 -212 -142q-112 -63 -242 -69q-131 -6 -280 91q-166 -77 -544 0q-22 6 -17 26q6 22 26 17
q337 -68 492 -12q-88 73 -83 153q1 31 17 51q16 23 45 27q31 4 69 -29q22 24 47 24q27 0 47 -22.5t25 -57.5q12 -74 -60 -139q-4 -3 -19 -14q134 -78 250 -68t219 69q99 57 194 130q83 63 143 100t116 51q130 33 228 -48q77 -63 92 -158q15 -103 -56 -167q-86 -77 -264 -58
q-3 -8 -9 -26q-2 -5 -4.5 -13.5t-3.5 -12.5q0 -2 -1.5 -6t-2.5 -7q-118 -371 -172 -622q-24 -109 -29 -192q-3 -74 29 -76q50 8 118 98q67 89 123 194q8 18 30 9q18 -8 9 -30q-84 -161 -159 -240q-103 -106 -182 -86q-80 23 -95 131q-15 111 13 266q28 158 78 321
q44 148 100 298q9 21 10 24q0 1 5 13q-11 8 -18 15q-41 41 -16 136q7 20 27 15q21 -7 16 -27q-19 -68 5 -94q1 0 1 -1q1 0 1 -1l10 26q21 53 41 94zM-623 1189q16 9 31 21q37 31 43 88q6 47 -19 52h-6q-18 -1 -38 -49q-1 -3 -3 -7q-3 3 -7 9q-38 53 -65 53q-43 -5 -12 -72
q26 -54 62 -84q2 -2 4 -3z" />
    <glyph glyph-name="uniE128" unicode="&#xe128;" horiz-adv-x="1775" 
d="M987 564q-1 18 -11 28q-7 5 -13 5q-17 -1 -37 -38l-22 -46l-19 48q-15 37 -34 40q-7 1 -16 -4q-8 -7 -13 -24q-22 -67 63 -181q1 -1 3 -3.5t3 -4.5l12 -15q31 38 61 90q29 52 23 105zM324 -32q14 -1 42 -1q34 100 63 209q-29 -39 -52 -63q-42 -46 -106.5 -74.5
t-133.5 -21.5t-106 64q-25 38 -37 94q-23 112 -4 246q18 137 60 270q44 135 93 236q11 26 35 37t51 2q26 -11 37 -35t1 -51q-9 -27 -20 -54q-19 -45 -31 -77q-30 -75 -61 -196q-32 -125 -42 -248t29 -194q17 -27 46 -33q56 -13 125 43t147 187q60 289 87 484q0 2 0.5 6.5
t1.5 6.5q11 79 18 113q6 27 28 42t50 11q27 -6 42 -28t11 -50q-8 -37 -18 -108q-1 -11 -5 -33q-21 -148 -60 -354q-40 -208 -106 -421q1 1 4 1q1 1 4 1q43 12 91 43q99 61 172 151q57 77 100 154q-18 21 -30 39q-96 129 -72 218q10 32 30 48q23 17 50 12t49 -32q26 26 50 29
q29 3 50 -18q19 -19 25 -53q5 -51 -11 -92.5t-51 -87.5q-26 -38 -37 -59q116 -142 246 -243q99 -78 202 -98q94 -18 172 64q42 46 77 142q7 20 28 13t14 -28q-38 -102 -86 -156q-94 -102 -212 -79q-113 21 -222 106q-143 113 -242 237q-69 -121 -129 -184q-57 -63 -149 -121
q-53 -33 -103 -47q-24 -6 -37 -9q-32 -92 -72 -168.5t-81 -127.5t-86 -89t-86.5 -53t-82 -20t-72.5 10q-80 32 -111 111q-31 77 -8 167q16 58 50.5 99.5t74.5 63t96 33t102.5 14t107.5 0.5zM351 -78q-20 0 -29 1q-1 1 -4 1q-140 6 -214 -16q-102 -36 -140 -110
q-38 -76 -22 -145q16 -70 74 -92t147 46q102 83 188 315z" />
    <glyph glyph-name="uniE129" unicode="&#xe129;" horiz-adv-x="1820" 
d="M438 353q82 -72 114.5 -167.5t7.5 -202.5q1 1 3 1t3 1q41 12 91 42q100 62 172 152q49 62 97 148q-5 7 -27 34q-1 1 -2.5 3t-1.5 3q-98 132 -71 219q9 32 29 47q22 18 51 13q26 -4 49 -33q24 27 50 30q29 3 50 -18q18 -18 24 -53q5 -50 -11.5 -92.5t-50.5 -90.5
q-9 -14 -35 -58q118 -145 244 -241q100 -79 202 -99q95 -18 172 65q42 48 77 142q9 20 29 13q8 -3 12 -11.5t1 -17.5q-39 -103 -86 -155q-94 -102 -212 -79q-113 21 -222 106q-141 113 -241 236q-65 -114 -125 -180q-58 -61 -150 -121q-57 -34 -102 -47q-21 -6 -34 -7
q-21 -98 -73 -201q-51 -106 -135 -181q-83 -75 -205 -80q-116 5 -166 94q-51 88 -24 196q16 59 51 100.5t74.5 63t96 33t102 13.5t107.5 0q7 0 24 -0.5t24 -0.5q2 4 2 7q21 69 13 154q-8 83 -66 128q-35 -45 -103 -126q-7 -11 -22 -29q-18 -23 -44 -26.5t-49 12.5
q-23 18 -26.5 44.5t13.5 49.5l24 31q2 3 8 10.5t9 11.5q35 42 59 73q42 53 79 102.5t82.5 115t74.5 120t48 104.5t11 82t-45 40q-108 20 -183 -42q-75 -63 -124 -159q-54 -106 -85 -190q-16 -40 -36 -86q-7 -17 -12 -27h-1q-1 -3 -3 -7l-5 -10t-5 -9q-10 -21 -30 -9
q-18 8 -9 30q1 3 5.5 11t7.5 13q1 2 2 5t2 4q1 2 3.5 8t4.5 9q2 5 17 39.5t23 52.5q10 24 15 37q50 130 115 234q69 109 197 169q121 54 204 23q94 -35 74 -171q-26 -167 -228 -448zM1033 566q-3 20 -12 27q-6 6 -13 6q-17 -1 -37 -38l-22 -46l-18 48q-17 38 -35 39
q-8 2 -15 -3q-9 -6 -14 -25q-21 -67 63 -180q2 -2 6 -8t7 -9q1 -1 3 -3.5t3 -4.5q31 41 60 93q28 52 24 104zM400 -72q-19 0 -28 1h-5q-140 6 -214 -16q-103 -36 -141 -110q-37 -75 -21 -145t74 -92t148 46q111 101 187 316z" />
    <glyph glyph-name="CR" horiz-adv-x="508" 
 />
    </font>
</defs>
</svg>
